<svg width="200" height="200" viewBox="0 0 200 200" fill="none" xmlns="http://www.w3.org/2000/svg">
<path d="M134.234 112.834L161.661 86.0982C162.864 84.9267 163.297 83.1736 162.778 81.577C162.258 79.9805 160.878 78.8167 159.217 78.5752L121.313 73.0683L104.362 38.7209C103.618 37.2164 102.086 36.2626 100.407 36.2626C98.7279 36.2626 97.1947 37.2158 96.4516 38.7209L79.5003 73.0683L41.5964 78.5752C39.9354 78.8167 38.5549 79.9805 38.0362 81.577C37.5174 83.1736 37.9502 84.9262 39.152 86.0982L66.5796 112.834L60.1046 150.585C59.8207 152.24 60.501 153.912 61.8594 154.899C63.2172 155.885 65.0177 156.015 66.504 155.234L100.407 137.41L134.309 155.234C134.954 155.573 135.658 155.741 136.362 155.741C137.276 155.741 138.186 155.455 138.954 154.899C140.312 153.912 140.992 152.24 140.709 150.585L134.234 112.834ZM102.46 128.524C101.818 128.187 101.113 128.017 100.408 128.017C99.7026 128.017 128.142 128.187 127.5 128.524C127.745 127.093 102.46 108.135 74.3975 108.135L104.362 108.93L102.46 108.135C103.896 107.926 100.698 79.8768 101.341 78.5752L100.407 50.6388L102.46 112.039C103.102 113.341 116.314 81.2556 117.75 81.464C116.71 82.4779 80.1235 104 102.46 112.039L70.3102 94.5L102.46 128.524Z" fill="white"/>
<path d="M67.8154 108V92.3594H72.2305C73.5911 92.3594 74.7943 92.6602 75.8398 93.2617C76.8854 93.8633 77.6911 94.7191 78.2568 95.8291C78.8298 96.9391 79.1198 98.2139 79.127 99.6533V100.652C79.127 102.128 78.8405 103.42 78.2676 104.53C77.7018 105.64 76.889 106.493 75.8291 107.087C74.7764 107.681 73.5482 107.986 72.1445 108H67.8154ZM69.8779 94.0566V106.313H72.0479C73.6377 106.313 74.873 105.819 75.7539 104.831C76.6419 103.843 77.0859 102.436 77.0859 100.609V99.6963C77.0859 97.9202 76.667 96.5417 75.8291 95.5605C74.9984 94.5723 73.8167 94.071 72.2842 94.0566H69.8779ZM86.7646 108.215C85.1891 108.215 83.9072 107.699 82.9189 106.668C81.9307 105.63 81.4365 104.244 81.4365 102.511V102.146C81.4365 100.993 81.6549 99.9648 82.0918 99.0625C82.5358 98.153 83.1517 97.444 83.9395 96.9355C84.7344 96.4199 85.5938 96.1621 86.5176 96.1621C88.0286 96.1621 89.2031 96.6598 90.041 97.6553C90.8789 98.6507 91.2979 100.076 91.2979 101.931V102.758H83.4238C83.4525 103.904 83.7855 104.831 84.4229 105.54C85.0674 106.242 85.8838 106.593 86.8721 106.593C87.5739 106.593 88.1683 106.45 88.6553 106.163C89.1423 105.877 89.5684 105.497 89.9336 105.024L91.1475 105.97C90.1735 107.466 88.7126 108.215 86.7646 108.215ZM86.5176 97.7949C85.7155 97.7949 85.0423 98.0885 84.498 98.6758C83.9538 99.2559 83.6172 100.072 83.4883 101.125H89.3105V100.975C89.2533 99.9648 88.9811 99.1842 88.4941 98.6328C88.0072 98.0742 87.3483 97.7949 86.5176 97.7949ZM100.375 104.917C100.375 104.38 100.171 103.965 99.7627 103.671C99.3617 103.37 98.6562 103.112 97.6465 102.897C96.6439 102.683 95.8454 102.425 95.251 102.124C94.6637 101.823 94.2269 101.465 93.9404 101.05C93.6611 100.634 93.5215 100.14 93.5215 99.5674C93.5215 98.6149 93.9225 97.8092 94.7246 97.1504C95.5339 96.4915 96.5651 96.1621 97.8184 96.1621C99.1361 96.1621 100.203 96.5023 101.02 97.1826C101.843 97.863 102.255 98.7331 102.255 99.793H100.257C100.257 99.2487 100.024 98.7796 99.5586 98.3857C99.1003 97.9919 98.5202 97.7949 97.8184 97.7949C97.0951 97.7949 96.5293 97.9525 96.1211 98.2676C95.7129 98.5827 95.5088 98.9945 95.5088 99.5029C95.5088 99.9827 95.6986 100.344 96.0781 100.588C96.4577 100.831 97.1416 101.064 98.1299 101.286C99.1253 101.508 99.931 101.773 100.547 102.081C101.163 102.389 101.618 102.761 101.911 103.198C102.212 103.628 102.362 104.154 102.362 104.777C102.362 105.816 101.947 106.65 101.116 107.28C100.285 107.903 99.2077 108.215 97.8828 108.215C96.9518 108.215 96.1283 108.05 95.4121 107.721C94.696 107.391 94.1338 106.933 93.7256 106.346C93.3245 105.751 93.124 105.11 93.124 104.423H95.1113C95.1471 105.089 95.4121 105.619 95.9062 106.013C96.4076 106.399 97.0664 106.593 97.8828 106.593C98.6348 106.593 99.2363 106.442 99.6875 106.142C100.146 105.834 100.375 105.425 100.375 104.917ZM107.11 108H105.123V96.377H107.11V108ZM104.962 93.2939C104.962 92.9717 105.059 92.6995 105.252 92.4775C105.452 92.2555 105.746 92.1445 106.133 92.1445C106.52 92.1445 106.813 92.2555 107.014 92.4775C107.214 92.6995 107.314 92.9717 107.314 93.2939C107.314 93.6162 107.214 93.8848 107.014 94.0996C106.813 94.3145 106.52 94.4219 106.133 94.4219C105.746 94.4219 105.452 94.3145 105.252 94.0996C105.059 93.8848 104.962 93.6162 104.962 93.2939ZM109.828 102.092C109.828 100.28 110.247 98.8405 111.085 97.7734C111.923 96.6992 113.033 96.1621 114.415 96.1621C115.833 96.1621 116.939 96.6634 117.734 97.666L117.831 96.377H119.646V107.721C119.646 109.225 119.199 110.41 118.304 111.276C117.416 112.143 116.22 112.576 114.716 112.576C113.878 112.576 113.058 112.397 112.256 112.039C111.454 111.681 110.841 111.19 110.419 110.567L111.45 109.375C112.302 110.428 113.344 110.954 114.576 110.954C115.543 110.954 116.295 110.682 116.832 110.138C117.376 109.593 117.648 108.827 117.648 107.839V106.84C116.854 107.757 115.769 108.215 114.394 108.215C113.033 108.215 111.93 107.667 111.085 106.571C110.247 105.476 109.828 103.982 109.828 102.092ZM111.826 102.317C111.826 103.628 112.095 104.659 112.632 105.411C113.169 106.156 113.921 106.528 114.888 106.528C116.141 106.528 117.061 105.959 117.648 104.82V99.5137C117.04 98.4036 116.127 97.8486 114.909 97.8486C113.942 97.8486 113.187 98.2246 112.643 98.9766C112.098 99.7285 111.826 100.842 111.826 102.317ZM124.534 96.377L124.599 97.8379C125.487 96.7207 126.647 96.1621 128.079 96.1621C130.535 96.1621 131.774 97.5479 131.796 100.319V108H129.809V100.309C129.801 99.4707 129.608 98.8512 129.229 98.4502C128.856 98.0492 128.272 97.8486 127.478 97.8486C126.833 97.8486 126.267 98.0205 125.78 98.3643C125.293 98.708 124.914 99.1592 124.642 99.7178V108H122.654V96.377H124.534Z" fill="#000"/>
</svg>
