<svg width="825" height="1530" viewBox="0 0 825 1530" fill="none" xmlns="http://www.w3.org/2000/svg">
<g clip-path="url(#clip0)">
<rect width="825" height="1530" fill="#26136E"/>
<g clip-path="url(#clip1)">
<path fill-rule="evenodd" clip-rule="evenodd" d="M-9 0H764V443.286H-9V0Z" fill="#26136E"/>
<path fill-rule="evenodd" clip-rule="evenodd" d="M48.8668 371.512C61.1781 371.512 71.2192 361.109 71.2192 348.353C71.2192 335.597 61.1781 325.193 48.8668 325.193C36.5555 325.193 26.5143 335.597 26.5143 348.353C26.5143 361.063 36.5555 371.512 48.8668 371.512Z" fill="#6699FF"/>
<path fill-rule="evenodd" clip-rule="evenodd" d="M64.2338 331.482C65.0632 332.296 65.8491 333.201 66.5912 334.151C64.8886 334.196 63.186 334.196 61.4397 334.196C50.5254 334.196 40.4406 333.608 32.364 332.658C32.6696 332.296 32.9752 331.979 33.3245 331.618C37.6902 331.844 42.3615 331.934 47.1202 331.934C53.1885 331.934 58.9512 331.799 64.2338 331.482ZM69.3416 338.945C69.4726 339.262 69.6036 339.624 69.7346 339.941C63.9718 346.499 51.2676 353.601 36.8171 357.808C34.2413 358.531 31.7528 359.165 29.3517 359.662C28.3476 357.808 27.6054 355.817 27.1252 353.691C32.0148 353.33 37.7339 352.289 43.8459 350.525C53.7124 347.675 62.7931 343.469 69.3416 338.945ZM70.564 354.144C70.5204 354.37 70.4331 354.641 70.3458 354.868C65.7181 357.084 60.5666 359.029 55.1531 360.612C46.247 363.236 38.2141 364.231 32.2331 363.824C31.3599 362.783 30.5304 361.652 29.8319 360.476C35.682 362.512 46.3343 361.969 58.6456 358.35C62.8367 357.174 66.8095 355.727 70.564 354.144ZM63.186 366.176C61.2651 367.849 59.0386 369.161 56.6374 370.066C50.7 370.021 45.0683 369.84 39.8731 369.523C37.3409 368.347 35.0708 366.764 33.1499 364.774C41.0518 365.633 50.7437 366.176 61.1778 366.176C61.8326 366.176 62.4875 366.176 63.186 366.176Z" fill="#66BDFF"/>
<path fill-rule="evenodd" clip-rule="evenodd" d="M65.0199 364.411C60.9598 368.798 55.2407 371.512 48.8668 371.512C36.5118 371.512 26.5143 361.109 26.5143 348.353C26.5143 335.552 36.5555 325.193 48.8668 325.193L41.5324 330.26L42.7548 332.431L41.0521 336.818L42.4492 342.563L45.1996 344.237L45.5488 347.448L43.0604 350.795L38.2581 349.936L38.0398 350.162L34.9838 355.816L37.2103 359.933L37.4286 359.978L43.4533 360.249L47.4261 357.671L48.9541 359.571L50.8313 359.933L50.3511 361.923C50.5257 361.923 50.6131 361.923 50.6131 361.923L55.1971 362.33C56.0702 361.878 55.459 362.194 55.5463 362.104L58.4713 358.757L54.4112 356.178L55.2844 354.007L59.3008 352.605L61.1344 355.862L59.9993 358.802L61.3527 360.702L57.5982 364.004L56.1139 363.506L55.459 364.637L58.0784 366.31L62.3132 363.913L65.0199 364.411ZM63.1427 351.836L61.1781 351.474L61.1344 350.117L62.7934 349.619L62.8807 349.574L63.9721 350.434L63.8412 350.976L63.1427 351.836ZM39.6551 358.937L39.3059 358.576L39.6988 357.716L40.0917 358.033L39.6551 358.937ZM44.8503 353.464L43.9772 352.967L43.4969 353.374V354.143L44.3701 354.505L45.2432 353.374L44.8503 353.464ZM52.9269 331.209L52.403 330.214L52.7959 329.762L53.5381 329.898V331.074L52.9269 331.209ZM48.1682 337.904L47.2951 336.773L47.9063 336.411L48.7795 336.683L48.9104 337.587L48.1682 337.904ZM53.2761 340.844L49.0851 340.98L48.2119 343.332L49.9145 344.87L52.1411 343.422L51.7918 342.111L53.0142 341.839L53.2761 340.844ZM38.3017 332.34L36.2062 332.883L35.464 335.597L38.3454 336.999L39.6988 334.783L38.3017 332.34ZM34.1543 346.408L33.936 347.132L34.6345 347.674L34.9838 346.679L34.1543 346.408ZM34.8528 349.529L32.5827 348.896L31.4912 350.931L33.3685 352.333L36.1189 349.936L34.8528 349.529ZM39.4368 343.694L40.7902 343.558L40.7465 344.463H39.4805V343.694H39.4368ZM36.2062 339.578L34.7219 339.532V340.573L36.3372 341.07L36.2062 339.578Z" fill="#426EC7"/>
<path fill-rule="evenodd" clip-rule="evenodd" d="M63.1861 366.176C61.2652 367.849 59.0387 369.161 56.6376 370.066C50.7002 370.021 45.0684 369.84 39.8732 369.523C37.3411 368.347 35.071 366.764 33.1501 364.774C40.2225 365.588 48.692 366.04 57.86 366.131L58.1656 366.312L58.4712 366.131C59.388 366.131 60.3048 366.131 61.2216 366.131C61.8328 366.176 62.4876 366.176 63.1861 366.176ZM32.2769 363.824C31.4038 362.783 30.5743 361.653 29.8758 360.476C34.4598 362.06 41.9251 362.06 50.8312 360.296L50.4819 361.833C43.4531 363.552 37.1665 364.186 32.2769 363.824ZM29.3956 359.708C28.3914 357.853 27.6493 355.863 27.169 353.737C30.1814 353.511 33.4557 353.058 36.9919 352.334L35.1146 355.817L36.2934 358.034C33.8922 358.667 31.6221 359.21 29.3956 359.708ZM32.3642 332.658C32.6698 332.296 32.9754 331.98 33.3247 331.618C36.2934 331.753 39.3494 331.844 42.4927 331.889L42.7546 332.341L42.318 333.517C41.1393 333.427 40.0042 333.337 38.9128 333.246L38.3452 332.251L36.2497 332.794L36.206 332.975C34.8527 332.929 33.5866 332.839 32.3642 332.658ZM57.598 359.888L58.5585 358.803L58.1656 358.531C58.3402 358.486 58.5148 358.441 58.7331 358.396C59.3443 358.215 59.9118 358.034 60.523 357.853L60.1301 358.848L60.2611 359.029C59.3006 359.3 58.4712 359.617 57.598 359.888ZM44.8502 353.465L43.977 352.968L43.4968 353.375V354.144L44.3699 354.506L45.2431 353.375L44.8502 353.465Z" fill="#2F83C4"/>
<path fill-rule="evenodd" clip-rule="evenodd" d="M48.8671 325.149C61.2221 325.149 71.2196 335.508 71.2196 348.309C71.2196 358.667 64.671 367.442 55.5903 370.428C63.7978 366.99 69.5606 358.667 69.5606 348.942C69.5606 336.141 59.5631 325.783 47.2081 325.783C44.8506 325.783 42.6241 326.144 40.4849 326.823C43.0607 325.737 45.9421 325.149 48.8671 325.149Z" fill="#DF99FF"/>
<path fill-rule="evenodd" clip-rule="evenodd" d="M652.446 307.907C667.021 307.907 678.892 295.477 678.892 280.214C678.892 264.991 667.021 252.561 652.446 252.561C637.908 252.561 626.038 264.991 626.038 280.214C626.038 295.477 637.908 307.907 652.446 307.907Z" fill="#FF6666"/>
<path fill-rule="evenodd" clip-rule="evenodd" d="M652.41 253.025C667.023 253.025 678.856 265.416 678.856 280.679C678.856 295.98 667.023 308.371 652.41 308.371C649.743 307.624 644.146 307.152 645.048 304.556C645.498 303.258 649.029 305.067 652.523 305.382C657.181 305.736 662.065 304.752 662.628 303.179C663.417 300.819 657.82 302.392 651.358 302.038C643.695 301.606 634.905 299.245 635.13 295.508C635.318 292.676 643.019 296.334 650.607 297.043C658.346 297.79 665.971 295.548 666.385 290.827C666.798 286.028 659.322 287.248 650.682 287.051C642.606 286.854 632.35 283.983 632.012 278.869C631.637 273.362 639.901 275.644 647.715 275.486C655.603 275.329 663.079 272.693 661.689 267.186C660.938 264.197 656.242 266.085 650.419 266.36C644.559 266.636 637.534 265.337 637.084 262.82C636.257 258.1 646.851 253.615 652.41 253.025Z" fill="#C43F57"/>
<path fill-rule="evenodd" clip-rule="evenodd" d="M652.446 252.561C653.31 252.561 654.174 252.6 655 252.679C654.812 252.679 654.587 252.679 654.399 252.679C639.786 252.679 627.953 265.07 627.953 280.372C627.953 294.769 638.434 306.57 651.845 307.946C637.533 307.632 626 295.359 626 280.254C626.038 264.952 637.871 252.561 652.446 252.561Z" fill="#DF99FF"/>
<path fill-rule="evenodd" clip-rule="evenodd" d="M182.266 81.0882C185.933 81.0882 188.946 77.9671 188.946 74.1675C188.946 70.3679 185.933 67.2468 182.266 67.2468C178.599 67.2468 175.587 70.3679 175.587 74.1675C175.587 78.0124 178.599 81.0882 182.266 81.0882Z" fill="#7C1370"/>
<path fill-rule="evenodd" clip-rule="evenodd" d="M185.934 68.3776C187.767 69.6442 188.946 71.7701 188.946 74.1675C188.946 78.0123 185.934 81.0882 182.266 81.0882C182.004 81.0882 181.742 81.0882 181.481 81.0429C179.647 79.8216 178.468 77.6504 178.468 75.2531C178.468 71.4535 181.481 68.3324 185.148 68.3324C185.41 68.3324 185.672 68.3776 185.934 68.3776Z" fill="#BE2385"/>
<path fill-rule="evenodd" clip-rule="evenodd" d="M604.411 57.1039C611.177 57.1039 616.678 51.4045 616.678 44.3934C616.678 37.3822 611.177 31.6828 604.411 31.6828C597.644 31.6828 592.143 37.3822 592.143 44.3934C592.143 51.4045 597.644 57.1039 604.411 57.1039Z" fill="#336666"/>
<path fill-rule="evenodd" clip-rule="evenodd" d="M611.483 54.797C609.475 56.2897 607.03 57.1039 604.411 57.1039C597.644 57.1039 592.143 51.4045 592.143 44.3934C592.143 42.4483 592.579 40.5938 593.365 38.9201C595.374 37.4274 597.818 36.568 600.438 36.568C607.205 36.568 612.705 42.2674 612.705 49.2786C612.705 51.2688 612.269 53.1234 611.483 54.797ZM607.554 36.0252C607.99 36.0252 608.383 36.3871 608.383 36.8846C608.383 37.337 607.99 37.7441 607.554 37.7441C607.074 37.7441 606.724 37.337 606.724 36.8846C606.681 36.3871 607.074 36.0252 607.554 36.0252ZM612.662 39.6439C612.836 39.6439 612.967 39.7796 612.967 39.9605C612.967 40.1414 612.836 40.2771 612.662 40.2771C612.487 40.2771 612.356 40.0962 612.356 39.9605C612.356 39.8248 612.487 39.6439 612.662 39.6439Z" fill="#669999"/>
<path fill-rule="evenodd" clip-rule="evenodd" d="M600.132 38.4678C600.831 38.4678 601.442 39.0558 601.442 39.8248C601.442 40.5937 600.831 41.1818 600.132 41.1818C599.39 41.1818 598.822 40.5937 598.822 39.8248C598.822 39.0558 599.39 38.4678 600.132 38.4678ZM603.93 49.0976C604.105 49.0976 604.236 49.2333 604.236 49.4142C604.236 49.5952 604.105 49.7309 603.93 49.7309C603.756 49.7309 603.625 49.5952 603.625 49.4142C603.625 49.2333 603.756 49.0976 603.93 49.0976ZM606.07 40.7747C606.244 40.7747 606.375 40.9104 606.375 41.0913C606.375 41.2722 606.244 41.4079 606.07 41.4079C605.895 41.4079 605.764 41.2722 605.764 41.0913C605.764 40.9104 605.939 40.7747 606.07 40.7747ZM609.693 45.0718C609.868 45.0718 609.999 45.2075 609.999 45.3885C609.999 45.5694 609.868 45.7051 609.693 45.7051C609.519 45.7051 609.388 45.5242 609.388 45.3885C609.388 45.2528 609.562 45.0718 609.693 45.0718ZM607.86 51.314C608.209 51.314 608.471 51.5854 608.471 51.9473C608.471 52.3092 608.209 52.6258 607.86 52.6258C607.51 52.6258 607.248 52.3092 607.248 51.9473C607.248 51.5854 607.51 51.314 607.86 51.314ZM602.402 54.6613C602.752 54.6613 603.057 54.9327 603.057 55.2945C603.057 55.6564 602.752 55.973 602.402 55.973C602.053 55.973 601.791 55.6564 601.791 55.2945C601.791 54.9327 602.053 54.6613 602.402 54.6613ZM610.828 52.6258C611.265 52.6258 611.658 53.0329 611.658 53.4852C611.658 53.9828 611.265 54.3447 610.828 54.3447C610.348 54.3447 609.999 53.9828 609.999 53.4852C609.999 53.0329 610.392 52.6258 610.828 52.6258ZM608.034 42.7197C608.471 42.7197 608.864 43.1268 608.864 43.5791C608.864 44.0767 608.471 44.4386 608.034 44.4386C607.554 44.4386 607.205 44.0315 607.205 43.5791C607.161 43.1268 607.554 42.7197 608.034 42.7197ZM596.465 43.4887C596.945 43.4887 597.294 43.8958 597.294 44.3481C597.294 44.8004 596.945 45.2075 596.465 45.2075C595.985 45.2075 595.635 44.8004 595.635 44.3481C595.635 43.8958 596.028 43.4887 596.465 43.4887Z" fill="#336666"/>
<path fill-rule="evenodd" clip-rule="evenodd" d="M134.726 421.8C135.119 421.8 135.555 421.891 135.905 422.117C136.254 422.343 177.815 397.962 178.034 398.324C178.296 398.731 137.171 423.836 137.171 424.333C137.171 425.736 136.079 426.821 134.77 426.821C133.46 426.821 132.369 425.736 132.369 424.333C132.325 422.931 133.416 421.8 134.726 421.8Z" fill="#FFFFCC"/>
<path fill-rule="evenodd" clip-rule="evenodd" d="M134.726 426.233C135.774 426.233 136.603 425.328 136.603 424.288C136.603 423.248 135.774 422.343 134.726 422.343C133.678 422.343 132.849 423.202 132.849 424.288C132.849 425.374 133.722 426.233 134.726 426.233Z" fill="#FFFF66"/>
<path fill-rule="evenodd" clip-rule="evenodd" d="M134.595 425.781C135.293 425.781 135.861 425.193 135.861 424.469C135.861 423.745 135.293 423.157 134.595 423.157C133.896 423.157 133.329 423.745 133.329 424.469C133.329 425.193 133.896 425.781 134.595 425.781Z" fill="#FFCC00"/>
<path fill-rule="evenodd" clip-rule="evenodd" d="M186.329 393.077C186.416 393.032 250.417 354.493 250.504 354.629C250.592 354.764 186.896 393.756 186.765 393.846C185.892 394.389 185.543 393.575 186.329 393.077Z" fill="#FFFFCC"/>
<path fill-rule="evenodd" clip-rule="evenodd" d="M0 9.58942C39.6843 41.4789 65.2674 91.3259 65.2674 147.415C65.2674 203.459 39.6843 253.351 0 285.241V9.58942Z" fill="#9966FF"/>
<path fill-rule="evenodd" clip-rule="evenodd" d="M0 266.967V12.2582C32.8738 44.0572 53.3927 89.3357 53.3927 139.59C53.3927 189.844 32.8738 235.168 0 266.967Z" fill="#003399"/>
<path fill-rule="evenodd" clip-rule="evenodd" d="M0 210.968V21.1691C8.20754 29.1301 20.6498 40.5741 26.2379 50.7969C35.4496 67.5784 30.7346 78.9319 30.7346 99.6035C30.7346 111.862 41.6489 140.359 39.0295 152.436C34.5328 173.153 28.8137 198.8 0 210.968Z" fill="#082C73"/>
<path fill-rule="evenodd" clip-rule="evenodd" d="M281.152 52.1992C281.763 52.1992 282.243 51.7017 282.243 51.0684C282.243 50.4351 281.763 49.9828 281.152 49.9828C280.541 49.9828 280.06 50.4804 280.06 51.0684C280.06 51.7017 280.541 52.1992 281.152 52.1992Z" fill="white"/>
<path fill-rule="evenodd" clip-rule="evenodd" d="M210.733 38.8554C211.344 38.8554 211.824 38.3578 211.824 37.7246C211.824 37.0913 211.344 36.5938 210.733 36.5938C210.121 36.5938 209.641 37.0913 209.641 37.7246C209.641 38.3578 210.165 38.8554 210.733 38.8554Z" fill="white"/>
<path fill-rule="evenodd" clip-rule="evenodd" d="M184.844 296.911C185.455 296.911 185.935 296.414 185.935 295.826C185.935 295.238 185.455 294.695 184.844 294.695C184.233 294.695 183.753 295.192 183.753 295.826C183.753 296.459 184.277 296.911 184.844 296.911Z" fill="white"/>
<path fill-rule="evenodd" clip-rule="evenodd" d="M301.278 385.116C301.889 385.116 302.369 384.619 302.369 383.985C302.369 383.352 301.889 382.854 301.278 382.854C300.666 382.854 300.186 383.352 300.186 383.985C300.186 384.664 300.71 385.116 301.278 385.116Z" fill="white"/>
<path fill-rule="evenodd" clip-rule="evenodd" d="M272.202 405.245C272.813 405.245 273.294 404.747 273.294 404.114C273.294 403.481 272.813 403.029 272.202 403.029C271.591 403.029 271.111 403.526 271.111 404.114C271.111 404.747 271.591 405.245 272.202 405.245Z" fill="white"/>
<path fill-rule="evenodd" clip-rule="evenodd" d="M79.1935 313.648C79.8047 313.648 80.2849 313.15 80.2849 312.517C80.2849 311.884 79.8047 311.386 79.1935 311.386C78.5822 311.386 78.102 311.884 78.102 312.517C78.1457 313.15 78.6259 313.648 79.1935 313.648Z" fill="white"/>
<path fill-rule="evenodd" clip-rule="evenodd" d="M349.824 292.433C350.435 292.433 350.916 291.936 350.916 291.302C350.916 290.669 350.435 290.172 349.824 290.172C349.213 290.172 348.733 290.669 348.733 291.302C348.733 291.936 349.213 292.433 349.824 292.433Z" fill="white"/>
<path fill-rule="evenodd" clip-rule="evenodd" d="M450.061 339.34C450.672 339.34 451.152 338.842 451.152 338.209C451.152 337.576 450.672 337.078 450.061 337.078C449.45 337.078 448.969 337.576 448.969 338.209C448.969 338.842 449.493 339.34 450.061 339.34Z" fill="white"/>
<path fill-rule="evenodd" clip-rule="evenodd" d="M543.88 247.743C544.491 247.743 544.972 247.245 544.972 246.612C544.972 245.979 544.491 245.481 543.88 245.481C543.269 245.481 542.789 245.979 542.789 246.612C542.789 247.245 543.269 247.743 543.88 247.743Z" fill="white"/>
<path fill-rule="evenodd" clip-rule="evenodd" d="M612.859 159.493C613.47 159.493 613.95 158.995 613.95 158.362C613.95 157.728 613.47 157.231 612.859 157.231C612.247 157.231 611.767 157.728 611.767 158.362C611.767 158.995 612.291 159.493 612.859 159.493Z" fill="white"/>
<path fill-rule="evenodd" clip-rule="evenodd" d="M595.614 117.064C596.226 117.064 596.706 116.566 596.706 115.933C596.706 115.3 596.226 114.802 595.614 114.802C595.003 114.802 594.523 115.3 594.523 115.933C594.523 116.566 595.003 117.064 595.614 117.064Z" fill="white"/>
<path fill-rule="evenodd" clip-rule="evenodd" d="M644.38 93.9947C644.991 93.9947 645.472 93.4971 645.472 92.9091C645.472 92.2759 644.991 91.7783 644.38 91.7783C643.768 91.7783 643.331 92.2759 643.331 92.9091C643.288 93.4971 643.768 93.9947 644.38 93.9947Z" fill="white"/>
<path fill-rule="evenodd" clip-rule="evenodd" d="M678.65 91.3712C679.261 91.3712 679.741 90.8736 679.741 90.2404C679.741 89.6071 679.261 89.1096 678.65 89.1096C678.039 89.1096 677.558 89.6071 677.558 90.2404C677.558 90.8736 678.039 91.3712 678.65 91.3712Z" fill="white"/>
<path fill-rule="evenodd" clip-rule="evenodd" d="M635.43 73.2779C636.041 73.2779 636.521 72.7803 636.521 72.1471C636.521 71.5138 636.041 71.0162 635.43 71.0162C634.818 71.0162 634.338 71.5138 634.338 72.1471C634.338 72.8256 634.818 73.2779 635.43 73.2779Z" fill="white"/>
<path fill-rule="evenodd" clip-rule="evenodd" d="M570.817 19.9027C571.428 19.9027 571.908 19.4051 571.908 18.7719C571.908 18.1386 571.428 17.6411 570.817 17.6411C570.206 17.6411 569.726 18.1386 569.726 18.7719C569.726 19.3599 570.206 19.9027 570.817 19.9027Z" fill="white"/>
<path fill-rule="evenodd" clip-rule="evenodd" d="M731.475 19.9027C732.086 19.9027 732.567 19.4051 732.567 18.7719C732.567 18.1386 732.086 17.6411 731.475 17.6411C730.864 17.6411 730.384 18.1386 730.384 18.7719C730.384 19.3599 730.864 19.9027 731.475 19.9027Z" fill="white"/>
<path fill-rule="evenodd" clip-rule="evenodd" d="M727.153 105.891C727.765 105.891 728.245 105.394 728.245 104.76C728.245 104.127 727.765 103.629 727.153 103.629C726.542 103.629 726.062 104.127 726.062 104.76C726.062 105.394 726.542 105.891 727.153 105.891Z" fill="white"/>
<path fill-rule="evenodd" clip-rule="evenodd" d="M673.236 215.356C673.847 215.356 674.328 214.858 674.328 214.225C674.328 213.592 673.847 213.094 673.236 213.094C672.625 213.094 672.145 213.592 672.145 214.225C672.145 214.858 672.625 215.356 673.236 215.356Z" fill="white"/>
<path fill-rule="evenodd" clip-rule="evenodd" d="M721.74 263.393C722.351 263.393 722.831 262.896 722.831 262.263C722.831 261.629 722.351 261.132 721.74 261.132C721.128 261.132 720.648 261.629 720.648 262.263C720.648 262.896 721.172 263.393 721.74 263.393Z" fill="white"/>
<path fill-rule="evenodd" clip-rule="evenodd" d="M695.895 342.687C696.506 342.687 696.986 342.19 696.986 341.556C696.986 340.923 696.506 340.471 695.895 340.471C695.284 340.471 694.803 340.968 694.803 341.556C694.803 342.19 695.284 342.687 695.895 342.687Z" fill="white"/>
<path fill-rule="evenodd" clip-rule="evenodd" d="M556.803 335.993C557.414 335.993 557.894 335.495 557.894 334.862C557.894 334.229 557.414 333.731 556.803 333.731C556.191 333.731 555.711 334.229 555.711 334.862C555.711 335.495 556.191 335.993 556.803 335.993Z" fill="white"/>
<path fill-rule="evenodd" clip-rule="evenodd" d="M499.656 390.725C500.267 390.725 500.747 390.227 500.747 389.594C500.747 388.961 500.267 388.463 499.656 388.463C499.044 388.463 498.564 388.961 498.564 389.594C498.608 390.227 499.088 390.725 499.656 390.725Z" fill="white"/>
<path fill-rule="evenodd" clip-rule="evenodd" d="M449.013 57.8534C449.625 57.8534 450.061 57.3558 450.061 56.7226C450.061 56.0893 449.581 55.5917 449.013 55.5917C448.402 55.5917 447.922 56.0893 447.922 56.7226C447.922 57.3558 448.402 57.8534 449.013 57.8534Z" fill="white"/>
<path fill-rule="evenodd" clip-rule="evenodd" d="M58.7188 25.4664C59.33 25.4664 59.7666 24.9688 59.7666 24.3355C59.7666 23.7023 59.2863 23.2047 58.7188 23.2047C58.1076 23.2047 57.6273 23.7023 57.6273 24.3355C57.671 24.9688 58.1076 25.4664 58.7188 25.4664Z" fill="white"/>
<path fill-rule="evenodd" clip-rule="evenodd" d="M64.9178 31.4371C65.922 31.4371 66.7078 30.6229 66.7078 29.5825C66.7078 28.5874 65.922 27.728 64.9178 27.728C63.9574 27.728 63.1279 28.5874 63.1279 29.5825C63.1279 30.6229 63.9574 31.4371 64.9178 31.4371Z" fill="white"/>
<path fill-rule="evenodd" clip-rule="evenodd" d="M123.593 16.4197C124.554 16.4197 125.383 15.6055 125.383 14.5651C125.383 13.57 124.554 12.7106 123.593 12.7106C122.589 12.7106 121.803 13.57 121.803 14.5651C121.803 15.6055 122.589 16.4197 123.593 16.4197Z" fill="white"/>
<path fill-rule="evenodd" clip-rule="evenodd" d="M145.159 37.6342C146.12 37.6342 146.949 36.7747 146.949 35.7796C146.949 34.7392 146.12 33.925 145.159 33.925C144.155 33.925 143.369 34.7392 143.369 35.7796C143.369 36.82 144.155 37.6342 145.159 37.6342Z" fill="white"/>
<path fill-rule="evenodd" clip-rule="evenodd" d="M281.501 27.0495C282.505 27.0495 283.291 26.1901 283.291 25.195C283.291 24.1546 282.505 23.3404 281.501 23.3404C280.54 23.3404 279.711 24.1998 279.711 25.195C279.711 26.1901 280.54 27.0495 281.501 27.0495Z" fill="white"/>
<path fill-rule="evenodd" clip-rule="evenodd" d="M117.83 172.972C118.79 172.972 119.62 172.158 119.62 171.117C119.62 170.122 118.79 169.263 117.83 169.263C116.826 169.263 116.04 170.122 116.04 171.117C116.04 172.158 116.826 172.972 117.83 172.972Z" fill="white"/>
<path fill-rule="evenodd" clip-rule="evenodd" d="M251.508 328.258C252.469 328.258 253.298 327.444 253.298 326.403C253.298 325.408 252.469 324.549 251.508 324.549C250.504 324.549 249.719 325.408 249.719 326.403C249.719 327.398 250.504 328.258 251.508 328.258Z" fill="white"/>
<path fill-rule="evenodd" clip-rule="evenodd" d="M25.1026 399.727C26.1067 399.727 26.8926 398.867 26.8926 397.872C26.8926 396.877 26.1067 396.017 25.1026 396.017C24.1421 396.017 23.3126 396.877 23.3126 397.872C23.3126 398.912 24.1421 399.727 25.1026 399.727Z" fill="white"/>
<path fill-rule="evenodd" clip-rule="evenodd" d="M439.103 414.246C440.107 414.246 440.893 413.432 440.893 412.392C440.893 411.397 440.107 410.537 439.103 410.537C438.142 410.537 437.313 411.397 437.313 412.392C437.313 413.432 438.099 414.246 439.103 414.246Z" fill="white"/>
<path fill-rule="evenodd" clip-rule="evenodd" d="M522.313 217.663C523.318 217.663 524.103 216.803 524.103 215.808C524.103 214.768 523.318 213.953 522.313 213.953C521.353 213.953 520.523 214.768 520.523 215.808C520.523 216.803 521.309 217.663 522.313 217.663Z" fill="white"/>
<path fill-rule="evenodd" clip-rule="evenodd" d="M694.847 307.812C695.851 307.812 696.637 306.998 696.637 305.958C696.637 304.963 695.851 304.103 694.847 304.103C693.886 304.103 693.057 304.963 693.057 305.958C693.057 306.998 693.886 307.812 694.847 307.812Z" fill="white"/>
<path fill-rule="evenodd" clip-rule="evenodd" d="M409.897 102.725C410.9 102.725 411.686 101.865 411.686 100.87C411.686 99.8299 410.9 99.0157 409.897 99.0157C408.937 99.0157 408.108 99.8299 408.108 100.87C408.108 101.911 408.893 102.725 409.897 102.725Z" fill="white"/>
<path fill-rule="evenodd" clip-rule="evenodd" d="M692.445 31.8895C693.406 31.8895 694.235 31.0301 694.235 30.0349C694.235 28.9946 693.406 28.1804 692.445 28.1804C691.485 28.1804 690.655 28.9946 690.655 30.0349C690.655 31.0301 691.485 31.8895 692.445 31.8895Z" fill="white"/>
<path fill-rule="evenodd" clip-rule="evenodd" d="M296.432 74.1374C296.825 74.1374 297.174 73.7755 297.174 73.3684C297.174 72.9613 296.869 72.5994 296.432 72.5994C296.039 72.5994 295.69 72.9613 295.69 73.3684C295.69 73.7755 296.039 74.1374 296.432 74.1374Z" fill="white"/>
<path fill-rule="evenodd" clip-rule="evenodd" d="M422.033 30.9848C422.426 30.9848 422.776 30.6229 422.776 30.2158C422.776 29.8087 422.47 29.4468 422.033 29.4468C421.597 29.4468 421.291 29.7635 421.291 30.2158C421.291 30.6681 421.64 30.9848 422.033 30.9848Z" fill="white"/>
<path fill-rule="evenodd" clip-rule="evenodd" d="M575.139 135.971C575.532 135.971 575.881 135.609 575.881 135.202C575.881 134.795 575.532 134.433 575.139 134.433C574.746 134.433 574.397 134.795 574.397 135.202C574.397 135.655 574.703 135.971 575.139 135.971Z" fill="white"/>
<path fill-rule="evenodd" clip-rule="evenodd" d="M684.02 135.971C684.412 135.971 684.762 135.609 684.762 135.202C684.762 134.795 684.456 134.433 684.02 134.433C683.627 134.433 683.277 134.795 683.277 135.202C683.277 135.655 683.583 135.971 684.02 135.971Z" fill="white"/>
<path fill-rule="evenodd" clip-rule="evenodd" d="M710.956 235.394C711.349 235.394 711.698 235.077 711.698 234.625C711.698 234.173 711.349 233.856 710.956 233.856C710.563 233.856 710.214 234.218 710.214 234.625C710.214 235.032 710.563 235.394 710.956 235.394Z" fill="white"/>
<path fill-rule="evenodd" clip-rule="evenodd" d="M455.431 244.35C455.824 244.35 456.173 243.988 456.173 243.581C456.173 243.174 455.824 242.812 455.431 242.812C455.038 242.812 454.689 243.129 454.689 243.581C454.689 244.034 455.038 244.35 455.431 244.35Z" fill="white"/>
<path fill-rule="evenodd" clip-rule="evenodd" d="M497.517 331.469C497.909 331.469 498.259 331.108 498.259 330.701C498.259 330.293 497.909 329.932 497.517 329.932C497.124 329.932 496.774 330.293 496.774 330.701C496.774 331.108 497.08 331.469 497.517 331.469Z" fill="white"/>
<path fill-rule="evenodd" clip-rule="evenodd" d="M112.592 97.7491C112.985 97.7491 113.334 97.3872 113.334 96.9801C113.334 96.573 112.985 96.2112 112.592 96.2112C112.199 96.2112 111.85 96.573 111.85 96.9801C111.85 97.4325 112.199 97.7491 112.592 97.7491Z" fill="white"/>
<path fill-rule="evenodd" clip-rule="evenodd" d="M110.452 153.884C110.845 153.884 111.195 153.522 111.195 153.115C111.195 152.708 110.845 152.346 110.452 152.346C110.059 152.346 109.71 152.708 109.71 153.115C109.71 153.522 110.059 153.884 110.452 153.884Z" fill="white"/>
<path fill-rule="evenodd" clip-rule="evenodd" d="M69.5022 232.047C69.8951 232.047 70.2443 231.685 70.2443 231.278C70.2443 230.871 69.8951 230.509 69.5022 230.509C69.1093 230.509 68.76 230.825 68.76 231.278C68.76 231.73 69.0656 232.047 69.5022 232.047Z" fill="white"/>
<path fill-rule="evenodd" clip-rule="evenodd" d="M94.2118 80.5605C94.6048 80.5605 94.954 80.2439 94.954 79.7915C94.954 79.3844 94.6048 79.0226 94.2118 79.0226C93.8189 79.0226 93.4697 79.3844 93.4697 79.7915C93.4697 80.2439 93.8189 80.5605 94.2118 80.5605Z" fill="white"/>
<path fill-rule="evenodd" clip-rule="evenodd" d="M84.7383 396.062C85.1313 396.062 85.4805 395.701 85.4805 395.293C85.4805 394.886 85.1313 394.524 84.7383 394.524C84.3454 394.524 83.9962 394.886 83.9962 395.293C83.9962 395.701 84.3018 396.062 84.7383 396.062Z" fill="white"/>
<path fill-rule="evenodd" clip-rule="evenodd" d="M237.669 425.283C238.062 425.283 238.412 424.921 238.412 424.514C238.412 424.107 238.106 423.745 237.669 423.745C237.276 423.745 236.927 424.107 236.927 424.514C236.927 424.966 237.276 425.283 237.669 425.283Z" fill="white"/>
<path fill-rule="evenodd" clip-rule="evenodd" d="M738.984 400.269C739.377 400.269 739.726 399.907 739.726 399.5C739.726 399.093 739.377 398.731 738.984 398.731C738.591 398.731 738.242 399.093 738.242 399.5C738.286 399.953 738.591 400.269 738.984 400.269Z" fill="white"/>
<path fill-rule="evenodd" clip-rule="evenodd" d="M581.905 292.704C582.298 292.704 582.648 292.343 582.648 291.935C582.648 291.528 582.298 291.167 581.905 291.167C581.513 291.167 581.163 291.483 581.163 291.935C581.163 292.388 581.513 292.704 581.905 292.704Z" fill="white"/>
</g>
<g clip-path="url(#clip2)">
<path fill-rule="evenodd" clip-rule="evenodd" d="M-9 497.226H764V880.688H-9V497.226Z" fill="#26136E"/>
<path fill-rule="evenodd" clip-rule="evenodd" d="M79 723.906C94.4318 723.906 107 711.541 107 696.359C107 681.217 94.4318 668.852 79 668.852C63.6081 668.852 51.0399 681.217 51.0399 696.359C51.0399 711.541 63.6081 723.906 79 723.906Z" fill="#FF6666"/>
<path fill-rule="evenodd" clip-rule="evenodd" d="M78.9999 668.852C94.4715 668.852 107 681.177 107 696.359C107 711.581 94.4715 723.906 78.9999 723.906C76.176 723.163 70.2499 722.693 71.2044 720.111C71.6817 718.819 75.4204 720.619 79.1192 720.932C84.0511 721.284 89.2215 720.306 89.8181 718.741C90.6533 716.393 84.7272 717.959 77.8862 717.606C69.7726 717.176 60.4658 714.828 60.7044 711.111C60.9033 708.294 69.0567 711.933 77.0908 712.637C85.284 713.38 93.3579 711.15 93.7954 706.455C94.2329 701.681 86.3181 702.894 77.1704 702.698C68.6192 702.503 57.7612 699.646 57.4032 694.559C57.0055 689.081 65.7556 691.351 74.0283 691.194C82.3806 691.038 90.2954 688.416 88.8238 682.938C88.0283 679.964 83.0567 681.843 76.8919 682.117C70.6874 682.39 63.2498 681.099 62.7726 678.595C61.8976 673.9 73.1135 669.439 78.9999 668.852Z" fill="#336666"/>
<path fill-rule="evenodd" clip-rule="evenodd" d="M79 668.852C79.9147 668.852 80.8295 668.891 81.7045 668.969C81.5056 668.969 81.267 668.969 81.0681 668.969C65.5966 668.969 53.0682 681.295 53.0682 696.516C53.0682 710.837 64.1648 722.576 78.3636 723.945C63.2102 723.632 51 711.424 51 696.399C51.0398 681.177 63.5682 668.852 79 668.852Z" fill="#336666"/>
<path fill-rule="evenodd" clip-rule="evenodd" d="M276.839 541.634C277.45 541.634 277.931 541.203 277.931 540.655C277.931 540.108 277.45 539.716 276.839 539.716C276.228 539.716 275.748 540.147 275.748 540.655C275.748 541.203 276.228 541.634 276.839 541.634Z" fill="white"/>
<path fill-rule="evenodd" clip-rule="evenodd" d="M206.42 530.091C207.031 530.091 207.511 529.66 207.511 529.112C207.511 528.565 207.031 528.134 206.42 528.134C205.809 528.134 205.329 528.565 205.329 529.112C205.329 529.66 205.852 530.091 206.42 530.091Z" fill="white"/>
<path fill-rule="evenodd" clip-rule="evenodd" d="M180.531 753.32C181.143 753.32 181.623 752.89 181.623 752.381C181.623 751.872 181.143 751.403 180.531 751.403C179.92 751.403 179.44 751.833 179.44 752.381C179.44 752.929 179.964 753.32 180.531 753.32Z" fill="white"/>
<path fill-rule="evenodd" clip-rule="evenodd" d="M296.965 829.621C297.576 829.621 298.056 829.191 298.056 828.643C298.056 828.095 297.576 827.665 296.965 827.665C296.354 827.665 295.874 828.095 295.874 828.643C295.874 829.23 296.397 829.621 296.965 829.621Z" fill="white"/>
<path fill-rule="evenodd" clip-rule="evenodd" d="M267.89 847.034C268.501 847.034 268.981 846.603 268.981 846.055C268.981 845.508 268.501 845.116 267.89 845.116C267.278 845.116 266.798 845.547 266.798 846.055C266.798 846.603 267.278 847.034 267.89 847.034Z" fill="white"/>
<path fill-rule="evenodd" clip-rule="evenodd" d="M74.8809 767.798C75.4921 767.798 75.9723 767.368 75.9723 766.82C75.9723 766.272 75.4921 765.842 74.8809 765.842C74.2697 765.842 73.7894 766.272 73.7894 766.82C73.8331 767.368 74.3133 767.798 74.8809 767.798Z" fill="white"/>
<path fill-rule="evenodd" clip-rule="evenodd" d="M345.512 749.447C346.123 749.447 346.603 749.016 346.603 748.468C346.603 747.921 346.123 747.49 345.512 747.49C344.9 747.49 344.42 747.921 344.42 748.468C344.42 749.016 344.9 749.447 345.512 749.447Z" fill="white"/>
<path fill-rule="evenodd" clip-rule="evenodd" d="M445.748 790.023C446.359 790.023 446.84 789.592 446.84 789.045C446.84 788.497 446.359 788.066 445.748 788.066C445.137 788.066 444.657 788.497 444.657 789.045C444.657 789.592 445.181 790.023 445.748 790.023Z" fill="white"/>
<path fill-rule="evenodd" clip-rule="evenodd" d="M539.568 710.787C540.179 710.787 540.659 710.357 540.659 709.809C540.659 709.261 540.179 708.831 539.568 708.831C538.956 708.831 538.476 709.261 538.476 709.809C538.476 710.357 538.956 710.787 539.568 710.787Z" fill="white"/>
<path fill-rule="evenodd" clip-rule="evenodd" d="M608.546 634.447C609.157 634.447 609.637 634.017 609.637 633.469C609.637 632.921 609.157 632.491 608.546 632.491C607.935 632.491 607.454 632.921 607.454 633.469C607.454 634.017 607.978 634.447 608.546 634.447Z" fill="white"/>
<path fill-rule="evenodd" clip-rule="evenodd" d="M591.302 597.744C591.913 597.744 592.393 597.314 592.393 596.766C592.393 596.218 591.913 595.788 591.302 595.788C590.691 595.788 590.21 596.218 590.21 596.766C590.21 597.314 590.691 597.744 591.302 597.744Z" fill="white"/>
<path fill-rule="evenodd" clip-rule="evenodd" d="M640.067 577.788C640.679 577.788 641.159 577.358 641.159 576.849C641.159 576.302 640.679 575.871 640.067 575.871C639.456 575.871 639.019 576.302 639.019 576.849C638.975 577.358 639.456 577.788 640.067 577.788Z" fill="white"/>
<path fill-rule="evenodd" clip-rule="evenodd" d="M674.337 575.519C674.948 575.519 675.429 575.089 675.429 574.541C675.429 573.993 674.948 573.563 674.337 573.563C673.726 573.563 673.246 573.993 673.246 574.541C673.246 575.089 673.726 575.519 674.337 575.519Z" fill="white"/>
<path fill-rule="evenodd" clip-rule="evenodd" d="M631.117 559.868C631.728 559.868 632.208 559.437 632.208 558.889C632.208 558.341 631.728 557.911 631.117 557.911C630.506 557.911 630.026 558.341 630.026 558.889C630.026 559.476 630.506 559.868 631.117 559.868Z" fill="white"/>
<path fill-rule="evenodd" clip-rule="evenodd" d="M566.504 513.696C567.116 513.696 567.596 513.265 567.596 512.717C567.596 512.17 567.116 511.739 566.504 511.739C565.893 511.739 565.413 512.17 565.413 512.717C565.413 513.226 565.893 513.696 566.504 513.696Z" fill="white"/>
<path fill-rule="evenodd" clip-rule="evenodd" d="M727.163 513.696C727.774 513.696 728.254 513.265 728.254 512.717C728.254 512.17 727.774 511.739 727.163 511.739C726.551 511.739 726.071 512.17 726.071 512.717C726.071 513.226 726.551 513.696 727.163 513.696Z" fill="white"/>
<path fill-rule="evenodd" clip-rule="evenodd" d="M722.841 588.079C723.452 588.079 723.932 587.649 723.932 587.101C723.932 586.553 723.452 586.123 722.841 586.123C722.23 586.123 721.749 586.553 721.749 587.101C721.749 587.649 722.23 588.079 722.841 588.079Z" fill="white"/>
<path fill-rule="evenodd" clip-rule="evenodd" d="M668.924 682.771C669.535 682.771 670.015 682.341 670.015 681.793C670.015 681.245 669.535 680.815 668.924 680.815C668.312 680.815 667.832 681.245 667.832 681.793C667.832 682.341 668.312 682.771 668.924 682.771Z" fill="white"/>
<path fill-rule="evenodd" clip-rule="evenodd" d="M717.427 724.326C718.038 724.326 718.518 723.895 718.518 723.348C718.518 722.8 718.038 722.369 717.427 722.369C716.816 722.369 716.336 722.8 716.336 723.348C716.336 723.895 716.859 724.326 717.427 724.326Z" fill="white"/>
<path fill-rule="evenodd" clip-rule="evenodd" d="M691.582 792.919C692.193 792.919 692.674 792.488 692.674 791.94C692.674 791.392 692.193 791.001 691.582 791.001C690.971 791.001 690.491 791.432 690.491 791.94C690.491 792.488 690.971 792.919 691.582 792.919Z" fill="white"/>
<path fill-rule="evenodd" clip-rule="evenodd" d="M552.49 787.128C553.101 787.128 553.581 786.697 553.581 786.149C553.581 785.602 553.101 785.171 552.49 785.171C551.879 785.171 551.399 785.602 551.399 786.149C551.399 786.697 551.879 787.128 552.49 787.128Z" fill="white"/>
<path fill-rule="evenodd" clip-rule="evenodd" d="M495.343 834.473C495.954 834.473 496.434 834.043 496.434 833.495C496.434 832.947 495.954 832.517 495.343 832.517C494.732 832.517 494.251 832.947 494.251 833.495C494.295 834.043 494.775 834.473 495.343 834.473Z" fill="white"/>
<path fill-rule="evenodd" clip-rule="evenodd" d="M444.701 546.525C445.312 546.525 445.749 546.094 445.749 545.546C445.749 544.999 445.268 544.568 444.701 544.568C444.09 544.568 443.609 544.999 443.609 545.546C443.609 546.094 444.09 546.525 444.701 546.525Z" fill="white"/>
<path fill-rule="evenodd" clip-rule="evenodd" d="M54.4062 518.508C55.0174 518.508 55.4539 518.078 55.4539 517.53C55.4539 516.982 54.9737 516.552 54.4062 516.552C53.795 516.552 53.3147 516.982 53.3147 517.53C53.3584 518.078 53.795 518.508 54.4062 518.508Z" fill="white"/>
<path fill-rule="evenodd" clip-rule="evenodd" d="M60.6052 523.673C61.6093 523.673 62.3952 522.969 62.3952 522.069C62.3952 521.208 61.6093 520.465 60.6052 520.465C59.6448 520.465 58.8153 521.208 58.8153 522.069C58.8153 522.969 59.6448 523.673 60.6052 523.673Z" fill="white"/>
<path fill-rule="evenodd" clip-rule="evenodd" d="M119.281 510.683C120.241 510.683 121.071 509.978 121.071 509.078C121.071 508.218 120.241 507.474 119.281 507.474C118.277 507.474 117.491 508.218 117.491 509.078C117.491 509.978 118.277 510.683 119.281 510.683Z" fill="white"/>
<path fill-rule="evenodd" clip-rule="evenodd" d="M140.847 529.034C141.807 529.034 142.637 528.291 142.637 527.43C142.637 526.53 141.807 525.826 140.847 525.826C139.843 525.826 139.057 526.53 139.057 527.43C139.057 528.33 139.843 529.034 140.847 529.034Z" fill="white"/>
<path fill-rule="evenodd" clip-rule="evenodd" d="M277.188 519.878C278.192 519.878 278.978 519.134 278.978 518.274C278.978 517.374 278.192 516.669 277.188 516.669C276.228 516.669 275.398 517.413 275.398 518.274C275.398 519.134 276.228 519.878 277.188 519.878Z" fill="white"/>
<path fill-rule="evenodd" clip-rule="evenodd" d="M113.517 646.107C114.478 646.107 115.307 645.403 115.307 644.503C115.307 643.642 114.478 642.899 113.517 642.899C112.513 642.899 111.727 643.642 111.727 644.503C111.727 645.403 112.513 646.107 113.517 646.107Z" fill="white"/>
<path fill-rule="evenodd" clip-rule="evenodd" d="M247.196 780.437C248.156 780.437 248.986 779.732 248.986 778.832C248.986 777.971 248.156 777.228 247.196 777.228C246.192 777.228 245.406 777.971 245.406 778.832C245.406 779.693 246.192 780.437 247.196 780.437Z" fill="white"/>
<path fill-rule="evenodd" clip-rule="evenodd" d="M20.79 842.26C21.7941 842.26 22.5799 841.517 22.5799 840.656C22.5799 839.795 21.7941 839.051 20.79 839.051C19.8295 839.051 19 839.795 19 840.656C19 841.556 19.8295 842.26 20.79 842.26Z" fill="white"/>
<path fill-rule="evenodd" clip-rule="evenodd" d="M434.79 854.82C435.795 854.82 436.581 854.116 436.581 853.216C436.581 852.355 435.795 851.612 434.79 851.612C433.83 851.612 433 852.355 433 853.216C433 854.116 433.786 854.82 434.79 854.82Z" fill="white"/>
<path fill-rule="evenodd" clip-rule="evenodd" d="M518.001 684.767C519.005 684.767 519.791 684.023 519.791 683.162C519.791 682.262 519.005 681.558 518.001 681.558C517.04 681.558 516.211 682.262 516.211 683.162C516.211 684.023 516.997 684.767 518.001 684.767Z" fill="white"/>
<path fill-rule="evenodd" clip-rule="evenodd" d="M690.534 762.75C691.538 762.75 692.324 762.046 692.324 761.146C692.324 760.285 691.538 759.542 690.534 759.542C689.574 759.542 688.744 760.285 688.744 761.146C688.744 762.046 689.574 762.75 690.534 762.75Z" fill="white"/>
<path fill-rule="evenodd" clip-rule="evenodd" d="M405.584 585.34C406.588 585.34 407.373 584.597 407.373 583.736C407.373 582.836 406.588 582.132 405.584 582.132C404.624 582.132 403.795 582.836 403.795 583.736C403.795 584.636 404.58 585.34 405.584 585.34Z" fill="white"/>
<path fill-rule="evenodd" clip-rule="evenodd" d="M688.133 524.065C689.093 524.065 689.923 523.321 689.923 522.46C689.923 521.56 689.093 520.856 688.133 520.856C687.172 520.856 686.343 521.56 686.343 522.46C686.343 523.321 687.172 524.065 688.133 524.065Z" fill="white"/>
<path fill-rule="evenodd" clip-rule="evenodd" d="M292.119 560.611C292.512 560.611 292.862 560.298 292.862 559.946C292.862 559.594 292.556 559.281 292.119 559.281C291.727 559.281 291.377 559.594 291.377 559.946C291.377 560.298 291.727 560.611 292.119 560.611Z" fill="white"/>
<path fill-rule="evenodd" clip-rule="evenodd" d="M417.721 523.282C418.114 523.282 418.463 522.969 418.463 522.617C418.463 522.265 418.157 521.952 417.721 521.952C417.284 521.952 416.979 522.226 416.979 522.617C416.979 523.008 417.328 523.282 417.721 523.282Z" fill="white"/>
<path fill-rule="evenodd" clip-rule="evenodd" d="M570.827 614.1C571.219 614.1 571.569 613.787 571.569 613.435C571.569 613.083 571.219 612.77 570.827 612.77C570.434 612.77 570.084 613.083 570.084 613.435C570.084 613.826 570.39 614.1 570.827 614.1Z" fill="white"/>
<path fill-rule="evenodd" clip-rule="evenodd" d="M679.707 614.1C680.1 614.1 680.449 613.787 680.449 613.435C680.449 613.083 680.144 612.77 679.707 612.77C679.314 612.77 678.965 613.083 678.965 613.435C678.965 613.826 679.27 614.1 679.707 614.1Z" fill="white"/>
<path fill-rule="evenodd" clip-rule="evenodd" d="M706.644 700.105C707.037 700.105 707.386 699.831 707.386 699.44C707.386 699.049 707.037 698.775 706.644 698.775C706.251 698.775 705.901 699.088 705.901 699.44C705.901 699.792 706.251 700.105 706.644 700.105Z" fill="white"/>
<path fill-rule="evenodd" clip-rule="evenodd" d="M451.119 707.853C451.512 707.853 451.861 707.54 451.861 707.187C451.861 706.835 451.512 706.522 451.119 706.522C450.726 706.522 450.376 706.796 450.376 707.187C450.376 707.579 450.726 707.853 451.119 707.853Z" fill="white"/>
<path fill-rule="evenodd" clip-rule="evenodd" d="M493.204 783.215C493.597 783.215 493.946 782.902 493.946 782.55C493.946 782.197 493.597 781.884 493.204 781.884C492.811 781.884 492.462 782.197 492.462 782.55C492.462 782.902 492.767 783.215 493.204 783.215Z" fill="white"/>
<path fill-rule="evenodd" clip-rule="evenodd" d="M108.279 581.036C108.672 581.036 109.021 580.723 109.021 580.371C109.021 580.019 108.672 579.706 108.279 579.706C107.886 579.706 107.537 580.019 107.537 580.371C107.537 580.762 107.886 581.036 108.279 581.036Z" fill="white"/>
<path fill-rule="evenodd" clip-rule="evenodd" d="M106.14 629.595C106.533 629.595 106.882 629.282 106.882 628.93C106.882 628.578 106.533 628.265 106.14 628.265C105.747 628.265 105.398 628.578 105.398 628.93C105.398 629.282 105.747 629.595 106.14 629.595Z" fill="white"/>
<path fill-rule="evenodd" clip-rule="evenodd" d="M65.1896 697.21C65.5825 697.21 65.9317 696.897 65.9317 696.544C65.9317 696.192 65.5825 695.879 65.1896 695.879C64.7966 695.879 64.4474 696.153 64.4474 696.544C64.4474 696.936 64.753 697.21 65.1896 697.21Z" fill="white"/>
<path fill-rule="evenodd" clip-rule="evenodd" d="M89.8992 566.167C90.2921 566.167 90.6414 565.893 90.6414 565.502C90.6414 565.15 90.2921 564.837 89.8992 564.837C89.5063 564.837 89.157 565.15 89.157 565.502C89.157 565.893 89.5063 566.167 89.8992 566.167Z" fill="white"/>
<path fill-rule="evenodd" clip-rule="evenodd" d="M80.4257 839.09C80.8186 839.09 81.1679 838.777 81.1679 838.425C81.1679 838.073 80.8186 837.76 80.4257 837.76C80.0328 837.76 79.6835 838.073 79.6835 838.425C79.6835 838.777 79.9891 839.09 80.4257 839.09Z" fill="white"/>
<path fill-rule="evenodd" clip-rule="evenodd" d="M233.357 864.368C233.75 864.368 234.099 864.055 234.099 863.702C234.099 863.35 233.794 863.037 233.357 863.037C232.964 863.037 232.614 863.35 232.614 863.702C232.614 864.094 232.964 864.368 233.357 864.368Z" fill="white"/>
<path fill-rule="evenodd" clip-rule="evenodd" d="M734.672 842.73C735.064 842.73 735.414 842.417 735.414 842.064C735.414 841.712 735.064 841.399 734.672 841.399C734.279 841.399 733.929 841.712 733.929 842.064C733.973 842.456 734.279 842.73 734.672 842.73Z" fill="white"/>
<path fill-rule="evenodd" clip-rule="evenodd" d="M577.593 749.681C577.986 749.681 578.335 749.368 578.335 749.016C578.335 748.664 577.986 748.351 577.593 748.351C577.2 748.351 576.851 748.625 576.851 749.016C576.851 749.407 577.2 749.681 577.593 749.681Z" fill="white"/>
<path fill-rule="evenodd" clip-rule="evenodd" d="M591.359 720.161C591.752 720.161 592.188 720.239 592.537 720.435C592.887 720.631 634.448 699.54 634.666 699.853C634.928 700.205 593.804 721.922 593.804 722.352C593.804 723.565 592.712 724.504 591.402 724.504C590.093 724.504 589.001 723.565 589.001 722.352C588.958 721.139 590.049 720.161 591.359 720.161Z" fill="#FFFFCC"/>
<path fill-rule="evenodd" clip-rule="evenodd" d="M591.359 723.996C592.406 723.996 593.236 723.213 593.236 722.313C593.236 721.413 592.406 720.631 591.359 720.631C590.311 720.631 589.481 721.374 589.481 722.313C589.481 723.252 590.354 723.996 591.359 723.996Z" fill="#FFFF66"/>
<path fill-rule="evenodd" clip-rule="evenodd" d="M591.228 723.604C591.926 723.604 592.494 723.096 592.494 722.47C592.494 721.844 591.926 721.335 591.228 721.335C590.529 721.335 589.962 721.844 589.962 722.47C589.962 723.096 590.529 723.604 591.228 723.604Z" fill="#FFCC00"/>
<path fill-rule="evenodd" clip-rule="evenodd" d="M642.962 695.314C643.049 695.275 707.05 661.937 707.137 662.055C707.224 662.172 643.529 695.901 643.398 695.98C642.525 696.449 642.176 695.745 642.962 695.314Z" fill="#FFFFCC"/>
</g>
<path fill-rule="evenodd" clip-rule="evenodd" d="M711.857 1434C767.391 1434 814.393 1479.02 829.761 1540.9H594C609.321 1479.02 656.276 1434 711.857 1434Z" fill="#9966FF"/>
<path fill-rule="evenodd" clip-rule="evenodd" d="M819.201 1510.83C823.538 1520.24 827.121 1530.34 829.714 1540.9H599.374C616.44 1482.72 661.932 1441.1 715.298 1441.1C759 1441.1 797.327 1468.92 819.201 1510.83Z" fill="#321791"/>
<path fill-rule="evenodd" clip-rule="evenodd" d="M812.13 1509.21C815.383 1516.25 818.023 1533.05 820.003 1540.9H648.308C656.983 1511.35 668.486 1522.14 692.01 1509.91C702.994 1504.19 722.04 1466.5 734.721 1466.5C746.884 1466.5 758.764 1476.89 769.371 1482.14C787.191 1490.97 801.9 1489.64 812.13 1509.21ZM683.383 1457.78C684.373 1457.78 685.221 1458.76 685.221 1460.09C685.221 1461.36 684.373 1462.4 683.383 1462.4C682.346 1462.4 681.544 1461.36 681.544 1460.09C681.544 1458.82 682.346 1457.78 683.383 1457.78ZM717.42 1449.87C718.646 1449.87 719.588 1451.09 719.588 1452.53C719.588 1454.03 718.646 1455.24 717.42 1455.24C716.241 1455.24 715.251 1454.03 715.251 1452.53C715.298 1451.09 716.241 1449.87 717.42 1449.87ZM708.793 1461.88C710.443 1461.88 711.81 1463.55 711.81 1465.57C711.81 1467.59 710.49 1469.27 708.793 1469.27C707.143 1469.27 705.823 1467.59 705.823 1465.57C705.776 1463.55 707.143 1461.88 708.793 1461.88ZM658.067 1498.01C660.566 1498.01 662.593 1500.55 662.593 1503.67C662.593 1506.79 660.566 1509.33 658.067 1509.33C655.521 1509.33 653.494 1506.79 653.494 1503.67C653.541 1500.55 655.568 1498.01 658.067 1498.01ZM635.438 1496.11C640.671 1496.11 644.914 1501.36 644.914 1507.88C644.914 1514.35 640.671 1519.66 635.438 1519.66C630.205 1519.66 625.963 1514.41 625.963 1507.88C626.01 1501.36 630.253 1496.11 635.438 1496.11Z" fill="#220B78"/>
<path fill-rule="evenodd" clip-rule="evenodd" d="M285.03 1181.75C285.729 1181.75 286.278 1181.12 286.278 1180.31C286.278 1179.5 285.729 1178.93 285.03 1178.93C284.331 1178.93 283.782 1179.56 283.782 1180.31C283.782 1181.12 284.331 1181.75 285.03 1181.75Z" fill="white"/>
<path fill-rule="evenodd" clip-rule="evenodd" d="M204.53 1164.73C205.229 1164.73 205.778 1164.09 205.778 1163.28C205.778 1162.47 205.229 1161.84 204.53 1161.84C203.832 1161.84 203.283 1162.47 203.283 1163.28C203.283 1164.09 203.882 1164.73 204.53 1164.73Z" fill="white"/>
<path fill-rule="evenodd" clip-rule="evenodd" d="M174.936 1494.03C175.635 1494.03 176.184 1493.4 176.184 1492.65C176.184 1491.9 175.635 1491.2 174.936 1491.2C174.237 1491.2 173.688 1491.84 173.688 1492.65C173.688 1493.46 174.287 1494.03 174.936 1494.03Z" fill="white"/>
<path fill-rule="evenodd" clip-rule="evenodd" d="M54.1615 1515.39C54.8602 1515.39 55.4092 1514.76 55.4092 1513.95C55.4092 1513.14 54.8602 1512.5 54.1615 1512.5C53.4629 1512.5 52.9139 1513.14 52.9139 1513.95C52.9638 1514.76 53.5128 1515.39 54.1615 1515.39Z" fill="white"/>
<path fill-rule="evenodd" clip-rule="evenodd" d="M363.533 1488.32C364.231 1488.32 364.78 1487.68 364.78 1486.88C364.78 1486.07 364.231 1485.43 363.533 1485.43C362.834 1485.43 362.285 1486.07 362.285 1486.88C362.285 1487.68 362.834 1488.32 363.533 1488.32Z" fill="white"/>
<path fill-rule="evenodd" clip-rule="evenodd" d="M585.368 1431.29C586.067 1431.29 586.615 1430.65 586.615 1429.85C586.615 1429.04 586.067 1428.4 585.368 1428.4C584.669 1428.4 584.12 1429.04 584.12 1429.85C584.12 1430.65 584.669 1431.29 585.368 1431.29Z" fill="white"/>
<path fill-rule="evenodd" clip-rule="evenodd" d="M664.22 1318.67C664.919 1318.67 665.468 1318.04 665.468 1317.23C665.468 1316.42 664.919 1315.79 664.22 1315.79C663.522 1315.79 662.973 1316.42 662.973 1317.23C662.973 1318.04 663.571 1318.67 664.22 1318.67Z" fill="white"/>
<path fill-rule="evenodd" clip-rule="evenodd" d="M644.508 1264.53C645.206 1264.53 645.755 1263.89 645.755 1263.08C645.755 1262.28 645.206 1261.64 644.508 1261.64C643.809 1261.64 643.26 1262.28 643.26 1263.08C643.26 1263.89 643.809 1264.53 644.508 1264.53Z" fill="white"/>
<path fill-rule="evenodd" clip-rule="evenodd" d="M700.254 1235.09C700.953 1235.09 701.502 1234.45 701.502 1233.7C701.502 1232.9 700.953 1232.26 700.254 1232.26C699.555 1232.26 699.055 1232.9 699.055 1233.7C699.005 1234.45 699.555 1235.09 700.254 1235.09Z" fill="white"/>
<path fill-rule="evenodd" clip-rule="evenodd" d="M739.43 1231.74C740.128 1231.74 740.677 1231.11 740.677 1230.3C740.677 1229.49 740.128 1228.86 739.43 1228.86C738.731 1228.86 738.182 1229.49 738.182 1230.3C738.182 1231.11 738.731 1231.74 739.43 1231.74Z" fill="white"/>
<path fill-rule="evenodd" clip-rule="evenodd" d="M690.022 1208.65C690.721 1208.65 691.27 1208.02 691.27 1207.21C691.27 1206.4 690.721 1205.77 690.022 1205.77C689.324 1205.77 688.775 1206.4 688.775 1207.21C688.775 1208.08 689.324 1208.65 690.022 1208.65Z" fill="white"/>
<path fill-rule="evenodd" clip-rule="evenodd" d="M616.161 1140.54C616.859 1140.54 617.408 1139.91 617.408 1139.1C617.408 1138.29 616.859 1137.65 616.161 1137.65C615.462 1137.65 614.913 1138.29 614.913 1139.1C614.913 1139.85 615.462 1140.54 616.161 1140.54Z" fill="white"/>
<path fill-rule="evenodd" clip-rule="evenodd" d="M799.817 1140.54C800.515 1140.54 801.064 1139.91 801.064 1139.1C801.064 1138.29 800.515 1137.65 799.817 1137.65C799.118 1137.65 798.569 1138.29 798.569 1139.1C798.569 1139.85 799.118 1140.54 799.817 1140.54Z" fill="white"/>
<path fill-rule="evenodd" clip-rule="evenodd" d="M794.876 1250.27C795.575 1250.27 796.124 1249.64 796.124 1248.83C796.124 1248.02 795.575 1247.38 794.876 1247.38C794.178 1247.38 793.629 1248.02 793.629 1248.83C793.629 1249.64 794.178 1250.27 794.876 1250.27Z" fill="white"/>
<path fill-rule="evenodd" clip-rule="evenodd" d="M733.241 1389.96C733.94 1389.96 734.489 1389.32 734.489 1388.52C734.489 1387.71 733.94 1387.07 733.241 1387.07C732.542 1387.07 731.993 1387.71 731.993 1388.52C731.993 1389.32 732.542 1389.96 733.241 1389.96Z" fill="white"/>
<path fill-rule="evenodd" clip-rule="evenodd" d="M788.688 1451.26C789.386 1451.26 789.935 1450.63 789.935 1449.82C789.935 1449.01 789.386 1448.37 788.688 1448.37C787.989 1448.37 787.44 1449.01 787.44 1449.82C787.44 1450.63 788.039 1451.26 788.688 1451.26Z" fill="white"/>
<path fill-rule="evenodd" clip-rule="evenodd" d="M476.921 1188.97C477.62 1188.97 478.119 1188.33 478.119 1187.53C478.119 1186.72 477.57 1186.08 476.921 1186.08C476.222 1186.08 475.673 1186.72 475.673 1187.53C475.673 1188.33 476.222 1188.97 476.921 1188.97Z" fill="white"/>
<path fill-rule="evenodd" clip-rule="evenodd" d="M30.7559 1147.64C31.4546 1147.64 31.9537 1147 31.9537 1146.2C31.9537 1145.39 31.4047 1144.75 30.7559 1144.75C30.0572 1144.75 29.5083 1145.39 29.5083 1146.2C29.5582 1147 30.0572 1147.64 30.7559 1147.64Z" fill="white"/>
<path fill-rule="evenodd" clip-rule="evenodd" d="M37.8424 1155.26C38.9903 1155.26 39.8886 1154.22 39.8886 1152.89C39.8886 1151.62 38.9903 1150.53 37.8424 1150.53C36.7445 1150.53 35.7962 1151.62 35.7962 1152.89C35.7962 1154.22 36.7445 1155.26 37.8424 1155.26Z" fill="white"/>
<path fill-rule="evenodd" clip-rule="evenodd" d="M104.917 1136.1C106.015 1136.1 106.963 1135.06 106.963 1133.73C106.963 1132.46 106.015 1131.36 104.917 1131.36C103.769 1131.36 102.871 1132.46 102.871 1133.73C102.871 1135.06 103.769 1136.1 104.917 1136.1Z" fill="white"/>
<path fill-rule="evenodd" clip-rule="evenodd" d="M129.57 1163.17C130.668 1163.17 131.617 1162.07 131.617 1160.8C131.617 1159.47 130.668 1158.43 129.57 1158.43C128.423 1158.43 127.524 1159.47 127.524 1160.8C127.524 1162.13 128.423 1163.17 129.57 1163.17Z" fill="white"/>
<path fill-rule="evenodd" clip-rule="evenodd" d="M285.429 1149.66C286.577 1149.66 287.475 1148.56 287.475 1147.29C287.475 1145.97 286.577 1144.93 285.429 1144.93C284.331 1144.93 283.383 1146.02 283.383 1147.29C283.383 1148.56 284.331 1149.66 285.429 1149.66Z" fill="white"/>
<path fill-rule="evenodd" clip-rule="evenodd" d="M98.3289 1335.87C99.4268 1335.87 100.375 1334.83 100.375 1333.51C100.375 1332.24 99.4268 1331.14 98.3289 1331.14C97.181 1331.14 96.2827 1332.24 96.2827 1333.51C96.2827 1334.83 97.181 1335.87 98.3289 1335.87Z" fill="white"/>
<path fill-rule="evenodd" clip-rule="evenodd" d="M251.143 1534.03C252.241 1534.03 253.189 1533 253.189 1531.67C253.189 1530.4 252.241 1529.3 251.143 1529.3C249.995 1529.3 249.097 1530.4 249.097 1531.67C249.097 1532.94 249.995 1534.03 251.143 1534.03Z" fill="white"/>
<path fill-rule="evenodd" clip-rule="evenodd" d="M560.714 1392.9C561.862 1392.9 562.76 1391.81 562.76 1390.54C562.76 1389.21 561.862 1388.17 560.714 1388.17C559.616 1388.17 558.668 1389.21 558.668 1390.54C558.668 1391.81 559.566 1392.9 560.714 1392.9Z" fill="white"/>
<path fill-rule="evenodd" clip-rule="evenodd" d="M757.945 1507.94C759.093 1507.94 759.991 1506.9 759.991 1505.58C759.991 1504.31 759.093 1503.21 757.945 1503.21C756.847 1503.21 755.899 1504.31 755.899 1505.58C755.899 1506.9 756.847 1507.94 757.945 1507.94Z" fill="white"/>
<path fill-rule="evenodd" clip-rule="evenodd" d="M432.205 1246.23C433.352 1246.23 434.25 1245.13 434.25 1243.86C434.25 1242.54 433.352 1241.5 432.205 1241.5C431.107 1241.5 430.16 1242.54 430.16 1243.86C430.16 1245.19 431.057 1246.23 432.205 1246.23Z" fill="white"/>
<path fill-rule="evenodd" clip-rule="evenodd" d="M755.2 1155.84C756.298 1155.84 757.246 1154.74 757.246 1153.47C757.246 1152.14 756.298 1151.1 755.2 1151.1C754.102 1151.1 753.154 1152.14 753.154 1153.47C753.154 1154.74 754.102 1155.84 755.2 1155.84Z" fill="white"/>
<path fill-rule="evenodd" clip-rule="evenodd" d="M302.498 1209.75C302.947 1209.75 303.346 1209.29 303.346 1208.77C303.346 1208.25 302.997 1207.79 302.498 1207.79C302.049 1207.79 301.649 1208.25 301.649 1208.77C301.649 1209.29 302.049 1209.75 302.498 1209.75Z" fill="white"/>
<path fill-rule="evenodd" clip-rule="evenodd" d="M446.079 1154.68C446.528 1154.68 446.927 1154.22 446.927 1153.7C446.927 1153.18 446.578 1152.72 446.079 1152.72C445.58 1152.72 445.23 1153.12 445.23 1153.7C445.23 1154.28 445.629 1154.68 446.079 1154.68Z" fill="white"/>
<path fill-rule="evenodd" clip-rule="evenodd" d="M621.101 1288.66C621.551 1288.66 621.95 1288.19 621.95 1287.67C621.95 1287.16 621.551 1286.69 621.101 1286.69C620.652 1286.69 620.253 1287.16 620.253 1287.67C620.253 1288.25 620.602 1288.66 621.101 1288.66Z" fill="white"/>
<path fill-rule="evenodd" clip-rule="evenodd" d="M745.568 1288.66C746.017 1288.66 746.416 1288.19 746.416 1287.67C746.416 1287.16 746.067 1286.69 745.568 1286.69C745.119 1286.69 744.72 1287.16 744.72 1287.67C744.72 1288.25 745.069 1288.66 745.568 1288.66Z" fill="white"/>
<path fill-rule="evenodd" clip-rule="evenodd" d="M776.361 1415.53C776.81 1415.53 777.209 1415.13 777.209 1414.55C777.209 1413.97 776.81 1413.57 776.361 1413.57C775.911 1413.57 775.512 1414.03 775.512 1414.55C775.512 1415.07 775.911 1415.53 776.361 1415.53Z" fill="white"/>
<path fill-rule="evenodd" clip-rule="evenodd" d="M484.257 1426.96C484.707 1426.96 485.106 1426.5 485.106 1425.98C485.106 1425.46 484.707 1425 484.257 1425C483.808 1425 483.409 1425.4 483.409 1425.98C483.409 1426.56 483.808 1426.96 484.257 1426.96Z" fill="white"/>
<path fill-rule="evenodd" clip-rule="evenodd" d="M92.3408 1239.88C92.7899 1239.88 93.1892 1239.42 93.1892 1238.9C93.1892 1238.38 92.7899 1237.92 92.3408 1237.92C91.8916 1237.92 91.4924 1238.38 91.4924 1238.9C91.4924 1239.48 91.8916 1239.88 92.3408 1239.88Z" fill="white"/>
<path fill-rule="evenodd" clip-rule="evenodd" d="M89.8953 1311.51C90.3445 1311.51 90.7438 1311.05 90.7438 1310.53C90.7438 1310.01 90.3445 1309.55 89.8953 1309.55C89.446 1309.55 89.0467 1310.01 89.0467 1310.53C89.0467 1311.05 89.446 1311.51 89.8953 1311.51Z" fill="white"/>
<path fill-rule="evenodd" clip-rule="evenodd" d="M43.083 1411.26C43.5321 1411.26 43.9314 1410.8 43.9314 1410.28C43.9314 1409.76 43.5321 1409.3 43.083 1409.3C42.6338 1409.3 42.2346 1409.7 42.2346 1410.28C42.2346 1410.85 42.5839 1411.26 43.083 1411.26Z" fill="white"/>
<path fill-rule="evenodd" clip-rule="evenodd" d="M71.3298 1217.95C71.779 1217.95 72.1782 1217.54 72.1782 1216.96C72.1782 1216.45 71.779 1215.98 71.3298 1215.98C70.8806 1215.98 70.4814 1216.45 70.4814 1216.96C70.4814 1217.54 70.8806 1217.95 71.3298 1217.95Z" fill="white"/>
<path fill-rule="evenodd" clip-rule="evenodd" d="M628.836 1488.66C629.285 1488.66 629.685 1488.2 629.685 1487.68C629.685 1487.16 629.285 1486.7 628.836 1486.7C628.387 1486.7 627.988 1487.11 627.988 1487.68C627.988 1488.26 628.387 1488.66 628.836 1488.66Z" fill="white"/>
<path fill-rule="evenodd" clip-rule="evenodd" d="M127.352 1168.36C139.664 1168.36 149.705 1157.96 149.705 1145.2C149.705 1132.45 139.664 1122.04 127.352 1122.04C115.041 1122.04 105 1132.45 105 1145.2C105 1157.91 115.041 1168.36 127.352 1168.36Z" fill="#66FFA3"/>
<path fill-rule="evenodd" clip-rule="evenodd" d="M142.719 1128.33C143.549 1129.15 144.335 1130.05 145.077 1131C143.374 1131.05 141.672 1131.05 139.925 1131.05C129.011 1131.05 118.926 1130.46 110.85 1129.51C111.155 1129.15 111.461 1128.83 111.81 1128.47C116.176 1128.69 120.847 1128.78 125.606 1128.78C131.674 1128.78 137.437 1128.65 142.719 1128.33ZM147.827 1135.8C147.958 1136.11 148.089 1136.47 148.22 1136.79C142.458 1143.35 129.753 1150.45 115.303 1154.66C112.727 1155.38 110.239 1156.02 107.837 1156.51C106.833 1154.66 106.091 1152.67 105.611 1150.54C110.5 1150.18 116.22 1149.14 122.332 1147.38C132.198 1144.53 141.279 1140.32 147.827 1135.8ZM149.05 1150.99C149.006 1151.22 148.919 1151.49 148.831 1151.72C144.204 1153.93 139.052 1155.88 133.639 1157.46C124.733 1160.09 116.7 1161.08 110.719 1160.67C109.846 1159.63 109.016 1158.5 108.318 1157.33C114.168 1159.36 124.82 1158.82 137.131 1155.2C141.322 1154.03 145.295 1152.58 149.05 1150.99ZM141.672 1163.03C139.751 1164.7 137.524 1166.01 135.123 1166.92C129.186 1166.87 123.554 1166.69 118.359 1166.37C115.827 1165.2 113.556 1163.61 111.636 1161.62C119.537 1162.48 129.229 1163.03 139.663 1163.03C140.318 1163.03 140.973 1163.03 141.672 1163.03Z" fill="#66BDFF"/>
<path fill-rule="evenodd" clip-rule="evenodd" d="M143.506 1161.26C139.445 1165.65 133.726 1168.36 127.352 1168.36C114.997 1168.36 105 1157.96 105 1145.2C105 1132.4 115.041 1122.04 127.352 1122.04L120.018 1127.11L121.24 1129.28L119.538 1133.67L120.935 1139.41L123.685 1141.09L124.035 1144.3L121.546 1147.65L116.744 1146.79L116.525 1147.01L113.469 1152.67L115.696 1156.78L115.914 1156.83L121.939 1157.1L125.912 1154.52L127.44 1156.42L129.317 1156.78L128.837 1158.77C129.011 1158.77 129.099 1158.77 129.099 1158.77L133.683 1159.18C134.556 1158.73 133.945 1159.04 134.032 1158.95L136.957 1155.61L132.897 1153.03L133.77 1150.86L137.787 1149.46L139.62 1152.71L138.485 1155.65L139.838 1157.55L136.084 1160.85L134.6 1160.36L133.945 1161.49L136.564 1163.16L140.799 1160.76L143.506 1161.26ZM141.628 1148.69L139.664 1148.32L139.62 1146.97L141.279 1146.47L141.366 1146.42L142.458 1147.28L142.327 1147.83L141.628 1148.69ZM118.141 1155.79L117.792 1155.43L118.184 1154.57L118.577 1154.88L118.141 1155.79ZM123.336 1150.31L122.463 1149.82L121.983 1150.22V1150.99L122.856 1151.36L123.729 1150.22L123.336 1150.31ZM131.413 1128.06L130.889 1127.06L131.282 1126.61L132.024 1126.75V1127.92L131.413 1128.06ZM126.654 1134.75L125.781 1133.62L126.392 1133.26L127.265 1133.53L127.396 1134.44L126.654 1134.75ZM131.762 1137.69L127.571 1137.83L126.698 1140.18L128.4 1141.72L130.627 1140.27L130.277 1138.96L131.5 1138.69L131.762 1137.69ZM116.787 1129.19L114.692 1129.73L113.95 1132.45L116.831 1133.85L118.184 1131.63L116.787 1129.19ZM112.64 1143.26L112.422 1143.98L113.12 1144.53L113.469 1143.53L112.64 1143.26ZM113.339 1146.38L111.068 1145.75L109.977 1147.78L111.854 1149.18L114.605 1146.79L113.339 1146.38ZM117.923 1140.54L119.276 1140.41L119.232 1141.31H117.966V1140.54H117.923ZM114.692 1136.43L113.208 1136.38V1137.42L114.823 1137.92L114.692 1136.43Z" fill="#052C02"/>
<path fill-rule="evenodd" clip-rule="evenodd" d="M141.672 1163.03C139.751 1164.7 137.524 1166.01 135.123 1166.92C129.186 1166.87 123.554 1166.69 118.359 1166.37C115.827 1165.2 113.557 1163.61 111.636 1161.62C118.708 1162.44 127.178 1162.89 136.346 1162.98L136.651 1163.16L136.957 1162.98C137.874 1162.98 138.79 1162.98 139.707 1162.98C140.318 1163.03 140.973 1163.03 141.672 1163.03ZM110.763 1160.67C109.889 1159.63 109.06 1158.5 108.361 1157.33C112.945 1158.91 120.411 1158.91 129.317 1157.15L128.968 1158.68C121.939 1160.4 115.652 1161.04 110.763 1160.67ZM107.881 1156.56C106.877 1154.7 106.135 1152.71 105.655 1150.59C108.667 1150.36 111.941 1149.91 115.478 1149.19L113.6 1152.67L114.779 1154.88C112.378 1155.52 110.108 1156.06 107.881 1156.56ZM110.85 1129.51C111.156 1129.15 111.461 1128.83 111.81 1128.47C114.779 1128.6 117.835 1128.69 120.978 1128.74L121.24 1129.19L120.804 1130.37C119.625 1130.28 118.49 1130.19 117.398 1130.1L116.831 1129.1L114.735 1129.64L114.692 1129.83C113.338 1129.78 112.072 1129.69 110.85 1129.51ZM136.084 1156.74L137.044 1155.65L136.651 1155.38C136.826 1155.34 137.001 1155.29 137.219 1155.25C137.83 1155.07 138.398 1154.88 139.009 1154.7L138.616 1155.7L138.747 1155.88C137.786 1156.15 136.957 1156.47 136.084 1156.74ZM123.336 1150.32L122.463 1149.82L121.982 1150.23V1150.99L122.856 1151.36L123.729 1150.23L123.336 1150.32Z" fill="#39EC29" fill-opacity="0.82"/>
<path fill-rule="evenodd" clip-rule="evenodd" d="M127.353 1122C139.708 1122 149.705 1132.36 149.705 1145.16C149.705 1155.52 143.157 1164.29 134.076 1167.28C142.284 1163.84 148.046 1155.52 148.046 1145.79C148.046 1132.99 138.049 1122.63 125.694 1122.63C123.336 1122.63 121.11 1123 118.971 1123.67C121.546 1122.59 124.428 1122 127.353 1122Z" fill="#DF99FF"/>
<path fill-rule="evenodd" clip-rule="evenodd" d="M716.316 1222.84C729.611 1222.84 740.454 1211.05 740.454 1196.6C740.454 1182.14 729.611 1170.35 716.316 1170.35C703.022 1170.35 692.179 1182.14 692.179 1196.6C692.179 1211 703.022 1222.84 716.316 1222.84Z" fill="#6699FF"/>
<path fill-rule="evenodd" clip-rule="evenodd" d="M732.91 1177.48C733.806 1178.4 734.655 1179.43 735.456 1180.5C733.618 1180.55 731.779 1180.55 729.893 1180.55C718.108 1180.55 707.218 1179.89 698.496 1178.81C698.826 1178.4 699.156 1178.04 699.533 1177.63C704.248 1177.89 709.292 1177.99 714.43 1177.99C720.983 1177.99 727.206 1177.84 732.91 1177.48ZM738.426 1185.93C738.568 1186.29 738.709 1186.7 738.85 1187.06C732.628 1194.49 718.909 1202.54 703.305 1207.31C700.523 1208.13 697.836 1208.85 695.243 1209.41C694.159 1207.31 693.358 1205.05 692.839 1202.64C698.119 1202.23 704.295 1201.05 710.895 1199.06C721.549 1195.83 731.355 1191.06 738.426 1185.93ZM739.746 1203.16C739.699 1203.41 739.605 1203.72 739.51 1203.98C734.513 1206.49 728.95 1208.69 723.105 1210.49C713.488 1213.46 704.813 1214.59 698.355 1214.12C697.412 1212.95 696.516 1211.66 695.762 1210.33C702.079 1212.64 713.582 1212.02 726.876 1207.92C731.402 1206.59 735.692 1204.95 739.746 1203.16ZM731.779 1216.79C729.705 1218.69 727.3 1220.17 724.708 1221.2C718.296 1221.15 712.215 1220.94 706.605 1220.58C703.87 1219.25 701.419 1217.46 699.345 1215.2C707.878 1216.17 718.343 1216.79 729.61 1216.79C730.318 1216.79 731.025 1216.79 731.779 1216.79Z" fill="#66BDFF"/>
<path fill-rule="evenodd" clip-rule="evenodd" d="M733.759 1214.79C729.375 1219.76 723.199 1222.84 716.316 1222.84C702.975 1222.84 692.179 1211.05 692.179 1196.6C692.179 1182.09 703.022 1170.35 716.316 1170.35L708.396 1176.09L709.716 1178.55L707.878 1183.53L709.386 1190.04L712.356 1191.93L712.734 1195.57L710.046 1199.36L704.861 1198.39L704.625 1198.65L701.325 1205.05L703.729 1209.72L703.965 1209.77L710.471 1210.08L714.761 1207.15L716.411 1209.31L718.438 1209.72L717.919 1211.97C718.108 1211.97 718.202 1211.97 718.202 1211.97L723.152 1212.43C724.095 1211.92 723.435 1212.28 723.529 1212.18L726.688 1208.38L722.304 1205.46L723.246 1203L727.584 1201.41L729.564 1205.1L728.338 1208.44L729.799 1210.59L725.745 1214.33L724.142 1213.77L723.435 1215.05L726.264 1216.94L730.836 1214.23L733.759 1214.79ZM731.732 1200.54L729.611 1200.13L729.564 1198.6L731.355 1198.03L731.449 1197.98L732.628 1198.95L732.486 1199.57L731.732 1200.54ZM706.369 1208.59L705.992 1208.18L706.416 1207.21L706.841 1207.56L706.369 1208.59ZM711.979 1202.39L711.036 1201.82L710.518 1202.29V1203.16L711.461 1203.57L712.404 1202.29L711.979 1202.39ZM720.701 1177.17L720.135 1176.04L720.559 1175.53L721.361 1175.68V1177.02L720.701 1177.17ZM715.562 1184.76L714.619 1183.48L715.279 1183.06L716.222 1183.37L716.364 1184.4L715.562 1184.76ZM721.078 1188.09L716.552 1188.24L715.609 1190.91L717.448 1192.65L719.852 1191.01L719.475 1189.52L720.795 1189.22L721.078 1188.09ZM704.908 1178.45L702.645 1179.07L701.844 1182.14L704.955 1183.73L706.416 1181.22L704.908 1178.45ZM700.429 1194.39L700.194 1195.21L700.948 1195.83L701.325 1194.7L700.429 1194.39ZM701.184 1197.93L698.732 1197.21L697.554 1199.52L699.581 1201.11L702.551 1198.39L701.184 1197.93ZM706.134 1191.32L707.595 1191.16L707.548 1192.19H706.181V1191.32H706.134ZM702.645 1186.65L701.042 1186.6V1187.78L702.786 1188.34L702.645 1186.65Z" fill="#FFFF66"/>
<path fill-rule="evenodd" clip-rule="evenodd" d="M731.779 1216.79C729.705 1218.69 727.301 1220.17 724.708 1221.2C718.296 1221.15 712.215 1220.94 706.605 1220.58C703.871 1219.25 701.419 1217.46 699.345 1215.2C706.982 1216.12 716.128 1216.64 726.028 1216.74L726.358 1216.94L726.688 1216.74C727.678 1216.74 728.668 1216.74 729.658 1216.74C730.318 1216.79 731.025 1216.79 731.779 1216.79ZM698.402 1214.12C697.459 1212.95 696.563 1211.66 695.809 1210.33C700.759 1212.13 708.821 1212.13 718.438 1210.13L718.061 1211.87C710.471 1213.82 703.682 1214.53 698.402 1214.12ZM695.291 1209.46C694.206 1207.36 693.405 1205.1 692.886 1202.69C696.139 1202.44 699.675 1201.93 703.493 1201.11L701.466 1205.05L702.739 1207.56C700.146 1208.28 697.695 1208.9 695.291 1209.46ZM698.496 1178.81C698.826 1178.4 699.156 1178.04 699.533 1177.63C702.739 1177.79 706.039 1177.89 709.433 1177.94L709.716 1178.45L709.245 1179.78C707.972 1179.68 706.746 1179.58 705.568 1179.48L704.955 1178.35L702.692 1178.96L702.645 1179.17C701.183 1179.12 699.816 1179.02 698.496 1178.81ZM725.745 1209.67L726.782 1208.44L726.358 1208.13C726.546 1208.08 726.735 1208.03 726.971 1207.97C727.631 1207.77 728.243 1207.56 728.903 1207.36L728.479 1208.49L728.621 1208.69C727.583 1209 726.688 1209.36 725.745 1209.67ZM711.979 1202.39L711.036 1201.82L710.518 1202.28V1203.16L711.461 1203.57L712.403 1202.28L711.979 1202.39Z" fill="#2F83C4"/>
<path fill-rule="evenodd" clip-rule="evenodd" d="M716.317 1170.3C729.658 1170.3 740.454 1182.04 740.454 1196.54C740.454 1208.28 733.383 1218.23 723.577 1221.61C732.44 1217.71 738.663 1208.28 738.663 1197.26C738.663 1182.76 727.867 1171.02 714.525 1171.02C711.98 1171.02 709.575 1171.43 707.265 1172.2C710.047 1170.97 713.158 1170.3 716.317 1170.3Z" fill="#DF99FF"/>
<path fill-rule="evenodd" clip-rule="evenodd" d="M322.934 1382.38C324.767 1383.64 325.946 1385.77 325.946 1388.17C325.946 1392.01 322.934 1395.09 319.266 1395.09C319.004 1395.09 318.742 1395.09 318.481 1395.04C316.647 1393.82 315.468 1391.65 315.468 1389.25C315.468 1385.45 318.481 1382.33 322.148 1382.33C322.41 1382.33 322.672 1382.38 322.934 1382.38Z" fill="#BE2385"/>
</g>
<defs>
<clipPath id="clip0">
<rect width="825" height="1530" fill="white"/>
</clipPath>
<clipPath id="clip1">
<rect width="764" height="443.286" fill="white"/>
</clipPath>
<clipPath id="clip2">
<rect width="764" height="383.462" fill="white" transform="translate(0 497.226)"/>
</clipPath>
</defs>
</svg>
