<svg width="764" height="1191" viewBox="0 0 764 1191" fill="none" xmlns="http://www.w3.org/2000/svg">
<g clip-path="url(#clip0)">
<rect width="764" height="1191" fill="#26136E"/>
<g clip-path="url(#clip1)">
<path fill-rule="evenodd" clip-rule="evenodd" d="M-9 0H764V452H-9V0Z" fill="#26136E"/>
<path fill-rule="evenodd" clip-rule="evenodd" d="M48.8668 378.815C61.1781 378.815 71.2192 368.207 71.2192 355.201C71.2192 342.194 61.1781 331.586 48.8668 331.586C36.5555 331.586 26.5143 342.194 26.5143 355.201C26.5143 368.161 36.5555 378.815 48.8668 378.815Z" fill="#6699FF"/>
<path fill-rule="evenodd" clip-rule="evenodd" d="M64.2338 337.998C65.0632 338.828 65.8491 339.751 66.5912 340.719C64.8886 340.765 63.186 340.765 61.4397 340.765C50.5254 340.765 40.4406 340.166 32.364 339.197C32.6696 338.828 32.9752 338.505 33.3245 338.136C37.6902 338.367 42.3615 338.459 47.1202 338.459C53.1885 338.459 58.9512 338.321 64.2338 337.998ZM69.3416 345.608C69.4726 345.931 69.6036 346.3 69.7346 346.623C63.9718 353.311 51.2676 360.552 36.8171 364.841C34.2413 365.579 31.7528 366.225 29.3517 366.732C28.3476 364.841 27.6054 362.812 27.1252 360.644C32.0148 360.275 37.7339 359.214 43.8459 357.416C53.7124 354.51 62.7931 350.221 69.3416 345.608ZM70.564 361.105C70.5204 361.336 70.4331 361.613 70.3458 361.843C65.7181 364.103 60.5666 366.087 55.1531 367.701C46.247 370.376 38.2141 371.391 32.2331 370.976C31.3599 369.915 30.5304 368.762 29.8319 367.563C35.682 369.638 46.3343 369.085 58.6456 365.395C62.8367 364.196 66.8095 362.72 70.564 361.105ZM63.186 373.374C61.2651 375.081 59.0386 376.418 56.6374 377.341C50.7 377.294 45.0683 377.11 39.8731 376.787C37.3409 375.588 35.0708 373.974 33.1499 371.944C41.0518 372.821 50.7437 373.374 61.1778 373.374C61.8326 373.374 62.4875 373.374 63.186 373.374Z" fill="#66BDFF"/>
<path fill-rule="evenodd" clip-rule="evenodd" d="M65.0199 371.574C60.9598 376.048 55.2407 378.815 48.8668 378.815C36.5118 378.815 26.5143 368.207 26.5143 355.201C26.5143 342.148 36.5555 331.586 48.8668 331.586L41.5324 336.752L42.7548 338.966L41.0521 343.44L42.4492 349.297L45.1996 351.004L45.5488 354.278L43.0604 357.691L38.2581 356.815L38.0398 357.046L34.9838 362.811L37.2103 367.008L37.4286 367.054L43.4533 367.331L47.4261 364.702L48.9541 366.639L50.8313 367.008L50.3511 369.037C50.5257 369.037 50.6131 369.037 50.6131 369.037L55.1971 369.453C56.0702 368.991 55.459 369.314 55.5463 369.222L58.4713 365.809L54.4112 363.18L55.2844 360.966L59.3008 359.536L61.1344 362.857L59.9993 365.855L61.3527 367.792L57.5982 371.159L56.1139 370.652L55.459 371.805L58.0784 373.511L62.3132 371.067L65.0199 371.574ZM63.1427 358.752L61.1781 358.383L61.1344 357L62.7934 356.492L62.8807 356.446L63.9721 357.322L63.8412 357.876L63.1427 358.752ZM39.6551 365.993L39.3059 365.624L39.6988 364.748L40.0917 365.071L39.6551 365.993ZM44.8503 360.413L43.9772 359.905L43.4969 360.32V361.104L44.3701 361.473L45.2432 360.32L44.8503 360.413ZM52.9269 337.72L52.403 336.706L52.7959 336.244L53.5381 336.383V337.582L52.9269 337.72ZM48.1682 344.546L47.2951 343.393L47.9063 343.024L48.7795 343.301L48.9104 344.224L48.1682 344.546ZM53.2761 347.544L49.0851 347.683L48.2119 350.081L49.9145 351.649L52.1411 350.173L51.7918 348.836L53.0142 348.559L53.2761 347.544ZM38.3017 338.873L36.2062 339.427L35.464 342.194L38.3454 343.624L39.6988 341.364L38.3017 338.873ZM34.1543 353.217L33.936 353.955L34.6345 354.509L34.9838 353.494L34.1543 353.217ZM34.8528 356.4L32.5827 355.754L31.4912 357.83L33.3685 359.26L36.1189 356.815L34.8528 356.4ZM39.4368 350.45L40.7902 350.312L40.7465 351.234H39.4805V350.45H39.4368ZM36.2062 346.253L34.7219 346.207V347.268L36.3372 347.775L36.2062 346.253Z" fill="#426EC7"/>
<path fill-rule="evenodd" clip-rule="evenodd" d="M63.1861 373.374C61.2652 375.081 59.0387 376.418 56.6376 377.341C50.7002 377.294 45.0684 377.11 39.8732 376.787C37.3411 375.588 35.071 373.974 33.1501 371.944C40.2225 372.774 48.692 373.236 57.86 373.328L58.1656 373.512L58.4712 373.328C59.388 373.328 60.3048 373.328 61.2216 373.328C61.8328 373.374 62.4876 373.374 63.1861 373.374ZM32.2769 370.976C31.4038 369.915 30.5743 368.762 29.8758 367.563C34.4598 369.177 41.9251 369.177 50.8312 367.378L50.4819 368.946C43.4531 370.699 37.1665 371.345 32.2769 370.976ZM29.3956 366.779C28.3914 364.888 27.6493 362.858 27.169 360.69C30.1814 360.46 33.4557 359.999 36.9919 359.261L35.1146 362.812L36.2934 365.072C33.8922 365.718 31.6221 366.271 29.3956 366.779ZM32.3642 339.197C32.6698 338.828 32.9754 338.505 33.3247 338.136C36.2934 338.275 39.3494 338.367 42.4927 338.413L42.7546 338.874L42.318 340.074C41.1393 339.981 40.0042 339.889 38.9128 339.797L38.3452 338.782L36.2497 339.336L36.206 339.52C34.8527 339.474 33.5866 339.382 32.3642 339.197ZM57.598 366.963L58.5585 365.856L58.1656 365.579C58.3402 365.533 58.5148 365.487 58.7331 365.441C59.3443 365.256 59.9118 365.072 60.523 364.888L60.1301 365.902L60.2611 366.087C59.3006 366.363 58.4712 366.686 57.598 366.963ZM44.8502 360.414L43.977 359.906L43.4968 360.321V361.105L44.3699 361.474L45.2431 360.321L44.8502 360.414Z" fill="#2F83C4"/>
<path fill-rule="evenodd" clip-rule="evenodd" d="M48.8671 331.541C61.2221 331.541 71.2196 342.103 71.2196 355.156C71.2196 365.718 64.671 374.666 55.5903 377.71C63.7978 374.204 69.5606 365.718 69.5606 355.801C69.5606 342.749 59.5631 332.187 47.2081 332.187C44.8506 332.187 42.6241 332.556 40.4849 333.248C43.0607 332.141 45.9421 331.541 48.8671 331.541Z" fill="#DF99FF"/>
<path fill-rule="evenodd" clip-rule="evenodd" d="M652.446 313.96C667.021 313.96 678.892 301.285 678.892 285.723C678.892 270.2 667.021 257.526 652.446 257.526C637.908 257.526 626.038 270.2 626.038 285.723C626.038 301.285 637.908 313.96 652.446 313.96Z" fill="#FF6666"/>
<path fill-rule="evenodd" clip-rule="evenodd" d="M652.446 257.526C667.059 257.526 678.892 270.16 678.892 285.723C678.892 301.325 667.059 313.96 652.446 313.96C649.779 313.198 644.181 312.716 645.083 310.069C645.534 308.746 649.065 310.591 652.559 310.912C657.217 311.273 662.1 310.27 662.664 308.665C663.452 306.259 657.855 307.863 651.394 307.502C643.731 307.061 634.94 304.654 635.166 300.844C635.354 297.956 643.054 301.686 650.643 302.408C658.381 303.17 666.007 300.884 666.42 296.071C666.833 291.178 659.358 292.421 650.718 292.22C642.641 292.02 632.386 289.092 632.048 283.878C631.672 278.262 639.937 280.589 647.75 280.428C655.639 280.268 663.114 277.58 661.724 271.965C660.973 268.917 656.277 270.842 650.455 271.123C644.595 271.404 637.57 270.08 637.119 267.513C636.293 262.7 646.886 258.127 652.446 257.526Z" fill="#C43F57"/>
<path fill-rule="evenodd" clip-rule="evenodd" d="M652.446 257.526C653.31 257.526 654.174 257.566 655 257.646C654.813 257.646 654.587 257.646 654.399 257.646C639.786 257.646 627.953 270.281 627.953 285.883C627.953 300.563 638.434 312.596 651.845 314C637.533 313.679 626 301.165 626 285.763C626.038 270.16 637.871 257.526 652.446 257.526Z" fill="#DF99FF"/>
<path fill-rule="evenodd" clip-rule="evenodd" d="M182.266 82.6822C185.933 82.6822 188.946 79.4998 188.946 75.6255C188.946 71.7512 185.933 68.5687 182.266 68.5687C178.599 68.5687 175.587 71.7512 175.587 75.6255C175.587 79.5459 178.599 82.6822 182.266 82.6822Z" fill="#7C1370"/>
<path fill-rule="evenodd" clip-rule="evenodd" d="M185.934 69.7218C187.767 71.0132 188.946 73.181 188.946 75.6254C188.946 79.5458 185.934 82.6822 182.266 82.6822C182.004 82.6822 181.742 82.6822 181.481 82.636C179.647 81.3907 178.468 79.1769 178.468 76.7324C178.468 72.8581 181.481 69.6757 185.148 69.6757C185.41 69.6757 185.672 69.7218 185.934 69.7218Z" fill="#BE2385"/>
<path fill-rule="evenodd" clip-rule="evenodd" d="M604.411 58.2265C611.177 58.2265 616.678 52.4151 616.678 45.2661C616.678 38.1171 611.177 32.3057 604.411 32.3057C597.644 32.3057 592.143 38.1171 592.143 45.2661C592.143 52.4151 597.644 58.2265 604.411 58.2265Z" fill="#336666"/>
<path fill-rule="evenodd" clip-rule="evenodd" d="M611.483 55.8742C609.475 57.3963 607.03 58.2265 604.411 58.2265C597.644 58.2265 592.143 52.4151 592.143 45.2661C592.143 43.2828 592.579 41.3918 593.365 39.6852C595.374 38.1632 597.818 37.2869 600.438 37.2869C607.205 37.2869 612.705 43.0983 612.705 50.2473C612.705 52.2767 612.269 54.1677 611.483 55.8742ZM607.554 36.7334C607.99 36.7334 608.383 37.1024 608.383 37.6097C608.383 38.0709 607.99 38.4861 607.554 38.4861C607.074 38.4861 606.724 38.0709 606.724 37.6097C606.681 37.1024 607.074 36.7334 607.554 36.7334ZM612.662 40.4232C612.836 40.4232 612.967 40.5616 612.967 40.7461C612.967 40.9305 612.836 41.0689 612.662 41.0689C612.487 41.0689 612.356 40.8844 612.356 40.7461C612.356 40.6077 612.487 40.4232 612.662 40.4232Z" fill="#669999"/>
<path fill-rule="evenodd" clip-rule="evenodd" d="M600.132 39.2241C600.831 39.2241 601.442 39.8237 601.442 40.6077C601.442 41.3918 600.831 41.9914 600.132 41.9914C599.39 41.9914 598.822 41.3918 598.822 40.6077C598.822 39.8237 599.39 39.2241 600.132 39.2241ZM603.93 50.0628C604.105 50.0628 604.236 50.2012 604.236 50.3857C604.236 50.5702 604.105 50.7086 603.93 50.7086C603.756 50.7086 603.625 50.5702 603.625 50.3857C603.625 50.2012 603.756 50.0628 603.93 50.0628ZM606.07 41.5763C606.244 41.5763 606.375 41.7147 606.375 41.8992C606.375 42.0837 606.244 42.222 606.07 42.222C605.895 42.222 605.764 42.0837 605.764 41.8992C605.764 41.7147 605.939 41.5763 606.07 41.5763ZM609.693 45.9579C609.868 45.9579 609.999 46.0963 609.999 46.2808C609.999 46.4653 609.868 46.6037 609.693 46.6037C609.519 46.6037 609.388 46.4192 609.388 46.2808C609.388 46.1424 609.562 45.9579 609.693 45.9579ZM607.86 52.3228C608.209 52.3228 608.471 52.5996 608.471 52.9686C608.471 53.3375 608.209 53.6604 607.86 53.6604C607.51 53.6604 607.248 53.3375 607.248 52.9686C607.248 52.5996 607.51 52.3228 607.86 52.3228ZM602.402 55.7359C602.752 55.7359 603.057 56.0126 603.057 56.3816C603.057 56.7506 602.752 57.0734 602.402 57.0734C602.053 57.0734 601.791 56.7506 601.791 56.3816C601.791 56.0126 602.053 55.7359 602.402 55.7359ZM610.828 53.6604C611.265 53.6604 611.658 54.0755 611.658 54.5367C611.658 55.0441 611.265 55.413 610.828 55.413C610.348 55.413 609.999 55.0441 609.999 54.5367C609.999 54.0755 610.392 53.6604 610.828 53.6604ZM608.034 43.5596C608.471 43.5596 608.864 43.9747 608.864 44.4359C608.864 44.9432 608.471 45.3122 608.034 45.3122C607.554 45.3122 607.205 44.8971 607.205 44.4359C607.161 43.9747 607.554 43.5596 608.034 43.5596ZM596.465 44.3437C596.945 44.3437 597.294 44.7588 597.294 45.22C597.294 45.6812 596.945 46.0963 596.465 46.0963C595.985 46.0963 595.635 45.6812 595.635 45.22C595.635 44.7588 596.028 44.3437 596.465 44.3437Z" fill="#336666"/>
<path fill-rule="evenodd" clip-rule="evenodd" d="M134.726 430.092C135.119 430.092 135.555 430.184 135.905 430.415C136.254 430.645 177.815 405.785 178.034 406.154C178.296 406.569 137.171 432.167 137.171 432.675C137.171 434.104 136.079 435.211 134.77 435.211C133.46 435.211 132.369 434.104 132.369 432.675C132.325 431.245 133.416 430.092 134.726 430.092Z" fill="#FFFFCC"/>
<path fill-rule="evenodd" clip-rule="evenodd" d="M134.726 434.612C135.774 434.612 136.603 433.689 136.603 432.629C136.603 431.568 135.774 430.645 134.726 430.645C133.678 430.645 132.849 431.522 132.849 432.629C132.849 433.736 133.722 434.612 134.726 434.612Z" fill="#FFFF66"/>
<path fill-rule="evenodd" clip-rule="evenodd" d="M134.595 434.151C135.293 434.151 135.861 433.551 135.861 432.813C135.861 432.075 135.293 431.476 134.595 431.476C133.896 431.476 133.329 432.075 133.329 432.813C133.329 433.551 133.896 434.151 134.595 434.151Z" fill="#000"/>
<path fill-rule="evenodd" clip-rule="evenodd" d="M186.329 400.804C186.416 400.758 250.417 361.462 250.504 361.6C250.592 361.738 186.896 401.496 186.765 401.588C185.892 402.142 185.543 401.311 186.329 400.804Z" fill="#FFFFCC"/>
<path fill-rule="evenodd" clip-rule="evenodd" d="M0 9.77795C39.6843 42.2943 65.2674 93.1212 65.2674 150.313C65.2674 207.459 39.6843 258.332 0 290.848V9.77795Z" fill="#9966FF"/>
<path fill-rule="evenodd" clip-rule="evenodd" d="M0 272.215V12.4992C32.8738 44.9233 53.3927 91.0919 53.3927 142.334C53.3927 193.576 32.8738 239.791 0 272.215Z" fill="#003399"/>
<path fill-rule="evenodd" clip-rule="evenodd" d="M0 215.115V21.5853C8.20754 29.7028 20.6498 41.3718 26.2379 51.7955C35.4496 68.9069 30.7346 80.4836 30.7346 101.562C30.7346 114.061 41.6489 143.118 39.0295 155.433C34.5328 176.557 28.8137 202.708 0 215.115Z" fill="#082C73"/>
<path fill-rule="evenodd" clip-rule="evenodd" d="M281.152 53.2253C281.763 53.2253 282.243 52.718 282.243 52.0723C282.243 51.4266 281.763 50.9653 281.152 50.9653C280.541 50.9653 280.06 51.4727 280.06 52.0723C280.06 52.718 280.541 53.2253 281.152 53.2253Z" fill="white"/>
<path fill-rule="evenodd" clip-rule="evenodd" d="M210.733 39.6192C211.344 39.6192 211.824 39.1119 211.824 38.4662C211.824 37.8205 211.344 37.3131 210.733 37.3131C210.121 37.3131 209.641 37.8205 209.641 38.4662C209.641 39.1119 210.165 39.6192 210.733 39.6192Z" fill="white"/>
<path fill-rule="evenodd" clip-rule="evenodd" d="M184.844 302.748C185.455 302.748 185.935 302.24 185.935 301.641C185.935 301.041 185.455 300.488 184.844 300.488C184.233 300.488 183.753 300.995 183.753 301.641C183.753 302.287 184.277 302.748 184.844 302.748Z" fill="white"/>
<path fill-rule="evenodd" clip-rule="evenodd" d="M301.278 392.687C301.889 392.687 302.369 392.179 302.369 391.534C302.369 390.888 301.889 390.381 301.278 390.381C300.666 390.381 300.186 390.888 300.186 391.534C300.186 392.225 300.71 392.687 301.278 392.687Z" fill="white"/>
<path fill-rule="evenodd" clip-rule="evenodd" d="M272.202 413.211C272.813 413.211 273.294 412.704 273.294 412.058C273.294 411.412 272.813 410.951 272.202 410.951C271.591 410.951 271.111 411.459 271.111 412.058C271.111 412.704 271.591 413.211 272.202 413.211Z" fill="white"/>
<path fill-rule="evenodd" clip-rule="evenodd" d="M79.1935 319.813C79.8047 319.813 80.2849 319.306 80.2849 318.66C80.2849 318.014 79.8047 317.507 79.1935 317.507C78.5822 317.507 78.102 318.014 78.102 318.66C78.1457 319.306 78.6259 319.813 79.1935 319.813Z" fill="white"/>
<path fill-rule="evenodd" clip-rule="evenodd" d="M349.824 298.182C350.435 298.182 350.916 297.674 350.916 297.029C350.916 296.383 350.435 295.876 349.824 295.876C349.213 295.876 348.733 296.383 348.733 297.029C348.733 297.674 349.213 298.182 349.824 298.182Z" fill="white"/>
<path fill-rule="evenodd" clip-rule="evenodd" d="M450.061 346.011C450.672 346.011 451.152 345.503 451.152 344.858C451.152 344.212 450.672 343.704 450.061 343.704C449.45 343.704 448.969 344.212 448.969 344.858C448.969 345.503 449.493 346.011 450.061 346.011Z" fill="white"/>
<path fill-rule="evenodd" clip-rule="evenodd" d="M543.88 252.613C544.491 252.613 544.972 252.105 544.972 251.46C544.972 250.814 544.491 250.307 543.88 250.307C543.269 250.307 542.789 250.814 542.789 251.46C542.789 252.105 543.269 252.613 543.88 252.613Z" fill="white"/>
<path fill-rule="evenodd" clip-rule="evenodd" d="M612.859 162.628C613.47 162.628 613.95 162.12 613.95 161.475C613.95 160.829 613.47 160.322 612.859 160.322C612.247 160.322 611.767 160.829 611.767 161.475C611.767 162.12 612.291 162.628 612.859 162.628Z" fill="white"/>
<path fill-rule="evenodd" clip-rule="evenodd" d="M595.614 119.365C596.226 119.365 596.706 118.858 596.706 118.212C596.706 117.566 596.226 117.059 595.614 117.059C595.003 117.059 594.523 117.566 594.523 118.212C594.523 118.858 595.003 119.365 595.614 119.365Z" fill="white"/>
<path fill-rule="evenodd" clip-rule="evenodd" d="M644.38 95.8424C644.991 95.8424 645.472 95.3351 645.472 94.7355C645.472 94.0898 644.991 93.5825 644.38 93.5825C643.768 93.5825 643.331 94.0898 643.331 94.7355C643.288 95.3351 643.768 95.8424 644.38 95.8424Z" fill="white"/>
<path fill-rule="evenodd" clip-rule="evenodd" d="M678.65 93.1674C679.261 93.1674 679.741 92.66 679.741 92.0143C679.741 91.3686 679.261 90.8613 678.65 90.8613C678.039 90.8613 677.558 91.3686 677.558 92.0143C677.558 92.66 678.039 93.1674 678.65 93.1674Z" fill="white"/>
<path fill-rule="evenodd" clip-rule="evenodd" d="M635.43 74.7184C636.041 74.7184 636.521 74.211 636.521 73.5653C636.521 72.9196 636.041 72.4122 635.43 72.4122C634.818 72.4122 634.338 72.9196 634.338 73.5653C634.338 74.2571 634.818 74.7184 635.43 74.7184Z" fill="white"/>
<path fill-rule="evenodd" clip-rule="evenodd" d="M570.817 20.294C571.428 20.294 571.908 19.7866 571.908 19.1409C571.908 18.4952 571.428 17.9879 570.817 17.9879C570.206 17.9879 569.726 18.4952 569.726 19.1409C569.726 19.7405 570.206 20.294 570.817 20.294Z" fill="white"/>
<path fill-rule="evenodd" clip-rule="evenodd" d="M731.475 20.294C732.086 20.294 732.567 19.7866 732.567 19.1409C732.567 18.4952 732.086 17.9879 731.475 17.9879C730.864 17.9879 730.384 18.4952 730.384 19.1409C730.384 19.7405 730.864 20.294 731.475 20.294Z" fill="white"/>
<path fill-rule="evenodd" clip-rule="evenodd" d="M727.153 107.973C727.765 107.973 728.245 107.465 728.245 106.82C728.245 106.174 727.765 105.667 727.153 105.667C726.542 105.667 726.062 106.174 726.062 106.82C726.062 107.465 726.542 107.973 727.153 107.973Z" fill="white"/>
<path fill-rule="evenodd" clip-rule="evenodd" d="M673.236 219.589C673.847 219.589 674.328 219.082 674.328 218.436C674.328 217.79 673.847 217.283 673.236 217.283C672.625 217.283 672.145 217.79 672.145 218.436C672.145 219.082 672.625 219.589 673.236 219.589Z" fill="white"/>
<path fill-rule="evenodd" clip-rule="evenodd" d="M721.74 268.571C722.351 268.571 722.831 268.064 722.831 267.418C722.831 266.772 722.351 266.265 721.74 266.265C721.128 266.265 720.648 266.772 720.648 267.418C720.648 268.064 721.172 268.571 721.74 268.571Z" fill="white"/>
<path fill-rule="evenodd" clip-rule="evenodd" d="M695.895 349.424C696.506 349.424 696.986 348.916 696.986 348.271C696.986 347.625 696.506 347.164 695.895 347.164C695.284 347.164 694.803 347.671 694.803 348.271C694.803 348.916 695.284 349.424 695.895 349.424Z" fill="white"/>
<path fill-rule="evenodd" clip-rule="evenodd" d="M556.803 342.598C557.414 342.598 557.894 342.09 557.894 341.445C557.894 340.799 557.414 340.292 556.803 340.292C556.191 340.292 555.711 340.799 555.711 341.445C555.711 342.09 556.191 342.598 556.803 342.598Z" fill="white"/>
<path fill-rule="evenodd" clip-rule="evenodd" d="M499.656 398.406C500.267 398.406 500.747 397.898 500.747 397.253C500.747 396.607 500.267 396.1 499.656 396.1C499.044 396.1 498.564 396.607 498.564 397.253C498.608 397.898 499.088 398.406 499.656 398.406Z" fill="white"/>
<path fill-rule="evenodd" clip-rule="evenodd" d="M449.013 58.9907C449.625 58.9907 450.061 58.4834 450.061 57.8376C450.061 57.1919 449.581 56.6846 449.013 56.6846C448.402 56.6846 447.922 57.1919 447.922 57.8376C447.922 58.4834 448.402 58.9907 449.013 58.9907Z" fill="white"/>
<path fill-rule="evenodd" clip-rule="evenodd" d="M58.7188 25.9669C59.33 25.9669 59.7666 25.4596 59.7666 24.8139C59.7666 24.1682 59.2863 23.6608 58.7188 23.6608C58.1076 23.6608 57.6273 24.1682 57.6273 24.8139C57.671 25.4596 58.1076 25.9669 58.7188 25.9669Z" fill="white"/>
<path fill-rule="evenodd" clip-rule="evenodd" d="M64.9178 32.0551C65.922 32.0551 66.7078 31.2249 66.7078 30.1641C66.7078 29.1494 65.922 28.2731 64.9178 28.2731C63.9574 28.2731 63.1279 29.1494 63.1279 30.1641C63.1279 31.2249 63.9574 32.0551 64.9178 32.0551Z" fill="white"/>
<path fill-rule="evenodd" clip-rule="evenodd" d="M123.593 16.7425C124.554 16.7425 125.383 15.9123 125.383 14.8515C125.383 13.8368 124.554 12.9604 123.593 12.9604C122.589 12.9604 121.803 13.8368 121.803 14.8515C121.803 15.9123 122.589 16.7425 123.593 16.7425Z" fill="white"/>
<path fill-rule="evenodd" clip-rule="evenodd" d="M145.159 38.374C146.12 38.374 146.949 37.4976 146.949 36.4829C146.949 35.4221 146.12 34.5919 145.159 34.5919C144.155 34.5919 143.369 35.4221 143.369 36.4829C143.369 37.5438 144.155 38.374 145.159 38.374Z" fill="white"/>
<path fill-rule="evenodd" clip-rule="evenodd" d="M281.501 27.5812C282.505 27.5812 283.291 26.7049 283.291 25.6902C283.291 24.6294 282.505 23.7992 281.501 23.7992C280.54 23.7992 279.711 24.6755 279.711 25.6902C279.711 26.7049 280.54 27.5812 281.501 27.5812Z" fill="white"/>
<path fill-rule="evenodd" clip-rule="evenodd" d="M117.83 176.372C118.79 176.372 119.62 175.542 119.62 174.481C119.62 173.467 118.79 172.59 117.83 172.59C116.826 172.59 116.04 173.467 116.04 174.481C116.04 175.542 116.826 176.372 117.83 176.372Z" fill="white"/>
<path fill-rule="evenodd" clip-rule="evenodd" d="M251.508 334.711C252.469 334.711 253.298 333.881 253.298 332.82C253.298 331.805 252.469 330.929 251.508 330.929C250.504 330.929 249.719 331.805 249.719 332.82C249.719 333.834 250.504 334.711 251.508 334.711Z" fill="white"/>
<path fill-rule="evenodd" clip-rule="evenodd" d="M25.1026 407.584C26.1067 407.584 26.8926 406.708 26.8926 405.693C26.8926 404.679 26.1067 403.802 25.1026 403.802C24.1421 403.802 23.3126 404.679 23.3126 405.693C23.3126 406.754 24.1421 407.584 25.1026 407.584Z" fill="white"/>
<path fill-rule="evenodd" clip-rule="evenodd" d="M439.103 422.39C440.107 422.39 440.893 421.559 440.893 420.499C440.893 419.484 440.107 418.607 439.103 418.607C438.142 418.607 437.313 419.484 437.313 420.499C437.313 421.559 438.099 422.39 439.103 422.39Z" fill="white"/>
<path fill-rule="evenodd" clip-rule="evenodd" d="M522.313 221.941C523.318 221.941 524.103 221.065 524.103 220.05C524.103 218.989 523.318 218.159 522.313 218.159C521.353 218.159 520.523 218.989 520.523 220.05C520.523 221.065 521.309 221.941 522.313 221.941Z" fill="white"/>
<path fill-rule="evenodd" clip-rule="evenodd" d="M694.847 313.863C695.851 313.863 696.637 313.033 696.637 311.972C696.637 310.958 695.851 310.081 694.847 310.081C693.886 310.081 693.057 310.958 693.057 311.972C693.057 313.033 693.886 313.863 694.847 313.863Z" fill="white"/>
<path fill-rule="evenodd" clip-rule="evenodd" d="M409.897 104.744C410.9 104.744 411.686 103.868 411.686 102.853C411.686 101.792 410.9 100.962 409.897 100.962C408.937 100.962 408.108 101.792 408.108 102.853C408.108 103.914 408.893 104.744 409.897 104.744Z" fill="white"/>
<path fill-rule="evenodd" clip-rule="evenodd" d="M692.445 32.5164C693.406 32.5164 694.235 31.64 694.235 30.6253C694.235 29.5645 693.406 28.7343 692.445 28.7343C691.485 28.7343 690.655 29.5645 690.655 30.6253C690.655 31.64 691.485 32.5164 692.445 32.5164Z" fill="white"/>
<path fill-rule="evenodd" clip-rule="evenodd" d="M296.432 75.5947C296.825 75.5947 297.174 75.2257 297.174 74.8106C297.174 74.3955 296.869 74.0266 296.432 74.0266C296.039 74.0266 295.69 74.3955 295.69 74.8106C295.69 75.2257 296.039 75.5947 296.432 75.5947Z" fill="white"/>
<path fill-rule="evenodd" clip-rule="evenodd" d="M422.033 31.5939C422.426 31.5939 422.776 31.2249 422.776 30.8098C422.776 30.3947 422.47 30.0258 422.033 30.0258C421.597 30.0258 421.291 30.3486 421.291 30.8098C421.291 31.2711 421.64 31.5939 422.033 31.5939Z" fill="white"/>
<path fill-rule="evenodd" clip-rule="evenodd" d="M575.139 138.644C575.532 138.644 575.881 138.275 575.881 137.86C575.881 137.445 575.532 137.076 575.139 137.076C574.746 137.076 574.397 137.445 574.397 137.86C574.397 138.321 574.703 138.644 575.139 138.644Z" fill="white"/>
<path fill-rule="evenodd" clip-rule="evenodd" d="M684.02 138.644C684.412 138.644 684.762 138.275 684.762 137.86C684.762 137.445 684.456 137.076 684.02 137.076C683.627 137.076 683.277 137.445 683.277 137.86C683.277 138.321 683.583 138.644 684.02 138.644Z" fill="white"/>
<path fill-rule="evenodd" clip-rule="evenodd" d="M710.956 240.021C711.349 240.021 711.698 239.698 711.698 239.237C711.698 238.776 711.349 238.453 710.956 238.453C710.563 238.453 710.214 238.822 710.214 239.237C710.214 239.652 710.563 240.021 710.956 240.021Z" fill="white"/>
<path fill-rule="evenodd" clip-rule="evenodd" d="M455.431 249.154C455.824 249.154 456.173 248.785 456.173 248.369C456.173 247.954 455.824 247.585 455.431 247.585C455.038 247.585 454.689 247.908 454.689 248.369C454.689 248.831 455.038 249.154 455.431 249.154Z" fill="white"/>
<path fill-rule="evenodd" clip-rule="evenodd" d="M497.517 337.985C497.909 337.985 498.259 337.616 498.259 337.201C498.259 336.786 497.909 336.417 497.517 336.417C497.124 336.417 496.774 336.786 496.774 337.201C496.774 337.616 497.08 337.985 497.517 337.985Z" fill="white"/>
<path fill-rule="evenodd" clip-rule="evenodd" d="M112.592 99.6706C112.985 99.6706 113.334 99.3016 113.334 98.8865C113.334 98.4714 112.985 98.1024 112.592 98.1024C112.199 98.1024 111.85 98.4714 111.85 98.8865C111.85 99.3478 112.199 99.6706 112.592 99.6706Z" fill="white"/>
<path fill-rule="evenodd" clip-rule="evenodd" d="M110.452 156.909C110.845 156.909 111.195 156.54 111.195 156.125C111.195 155.709 110.845 155.34 110.452 155.34C110.059 155.34 109.71 155.709 109.71 156.125C109.71 156.54 110.059 156.909 110.452 156.909Z" fill="white"/>
<path fill-rule="evenodd" clip-rule="evenodd" d="M69.5022 236.608C69.8951 236.608 70.2443 236.239 70.2443 235.824C70.2443 235.409 69.8951 235.04 69.5022 235.04C69.1093 235.04 68.76 235.363 68.76 235.824C68.76 236.285 69.0656 236.608 69.5022 236.608Z" fill="white"/>
<path fill-rule="evenodd" clip-rule="evenodd" d="M94.2118 82.1442C94.6048 82.1442 94.954 81.8213 94.954 81.3601C94.954 80.945 94.6048 80.576 94.2118 80.576C93.8189 80.576 93.4697 80.945 93.4697 81.3601C93.4697 81.8213 93.8189 82.1442 94.2118 82.1442Z" fill="white"/>
<path fill-rule="evenodd" clip-rule="evenodd" d="M84.7383 403.848C85.1313 403.848 85.4805 403.479 85.4805 403.064C85.4805 402.649 85.1313 402.28 84.7383 402.28C84.3454 402.28 83.9962 402.649 83.9962 403.064C83.9962 403.479 84.3018 403.848 84.7383 403.848Z" fill="white"/>
<path fill-rule="evenodd" clip-rule="evenodd" d="M237.669 433.643C238.062 433.643 238.412 433.274 238.412 432.859C238.412 432.444 238.106 432.075 237.669 432.075C237.276 432.075 236.927 432.444 236.927 432.859C236.927 433.32 237.276 433.643 237.669 433.643Z" fill="white"/>
<path fill-rule="evenodd" clip-rule="evenodd" d="M738.984 408.138C739.377 408.138 739.726 407.769 739.726 407.354C739.726 406.939 739.377 406.57 738.984 406.57C738.591 406.57 738.242 406.939 738.242 407.354C738.286 407.815 738.591 408.138 738.984 408.138Z" fill="white"/>
<path fill-rule="evenodd" clip-rule="evenodd" d="M581.905 298.458C582.298 298.458 582.648 298.089 582.648 297.674C582.648 297.259 582.298 296.89 581.905 296.89C581.513 296.89 581.163 297.213 581.163 297.674C581.163 298.135 581.513 298.458 581.905 298.458Z" fill="white"/>
</g>
<g clip-path="url(#clip2)">
<path fill-rule="evenodd" clip-rule="evenodd" d="M-9 507H764V898H-9V507Z" fill="#26136E"/>
<path fill-rule="evenodd" clip-rule="evenodd" d="M79 738.136C94.4318 738.136 107 725.529 107 710.048C107 694.608 94.4318 682 79 682C63.6081 682 51.0399 694.608 51.0399 710.048C51.0399 725.529 63.6081 738.136 79 738.136Z" fill="#FF6666"/>
<path fill-rule="evenodd" clip-rule="evenodd" d="M78.9999 682C94.4715 682 107 694.568 107 710.048C107 725.569 94.4715 738.136 78.9999 738.136C76.176 737.378 70.2499 736.9 71.2044 734.266C71.6817 732.95 75.4204 734.785 79.1192 735.104C84.0511 735.463 89.2215 734.466 89.8181 732.87C90.6533 730.476 84.7272 732.072 77.8862 731.713C69.7726 731.274 60.4658 728.88 60.7044 725.09C60.9033 722.217 69.0567 725.928 77.0908 726.646C85.284 727.404 93.3579 725.13 93.7954 720.342C94.2329 715.474 86.3181 716.711 77.1704 716.512C68.6192 716.312 57.7612 713.4 57.4032 708.213C57.0055 702.627 65.7556 704.941 74.0283 704.782C82.3806 704.622 90.2954 701.949 88.8238 696.363C88.0283 693.331 83.0567 695.246 76.8919 695.525C70.6874 695.805 63.2498 694.488 62.7726 691.935C61.8976 687.147 73.1135 682.598 78.9999 682Z" fill="#336666"/>
<path fill-rule="evenodd" clip-rule="evenodd" d="M79 682C79.9147 682 80.8295 682.04 81.7045 682.12C81.5056 682.12 81.267 682.12 81.0681 682.12C65.5966 682.12 53.0682 694.688 53.0682 710.208C53.0682 724.811 64.1648 736.78 78.3636 738.176C63.2102 737.857 51 725.409 51 710.088C51.0398 694.568 63.5682 682 79 682Z" fill="#336666"/>
<path fill-rule="evenodd" clip-rule="evenodd" d="M276.839 552.281C277.45 552.281 277.931 551.842 277.931 551.283C277.931 550.725 277.45 550.326 276.839 550.326C276.228 550.326 275.748 550.765 275.748 551.283C275.748 551.842 276.228 552.281 276.839 552.281Z" fill="white"/>
<path fill-rule="evenodd" clip-rule="evenodd" d="M206.42 540.511C207.031 540.511 207.511 540.072 207.511 539.513C207.511 538.955 207.031 538.516 206.42 538.516C205.809 538.516 205.329 538.955 205.329 539.513C205.329 540.072 205.852 540.511 206.42 540.511Z" fill="white"/>
<path fill-rule="evenodd" clip-rule="evenodd" d="M180.531 768.129C181.143 768.129 181.623 767.69 181.623 767.171C181.623 766.653 181.143 766.174 180.531 766.174C179.92 766.174 179.44 766.613 179.44 767.171C179.44 767.73 179.964 768.129 180.531 768.129Z" fill="white"/>
<path fill-rule="evenodd" clip-rule="evenodd" d="M296.965 845.93C297.576 845.93 298.056 845.491 298.056 844.932C298.056 844.374 297.576 843.935 296.965 843.935C296.354 843.935 295.874 844.374 295.874 844.932C295.874 845.531 296.397 845.93 296.965 845.93Z" fill="white"/>
<path fill-rule="evenodd" clip-rule="evenodd" d="M267.89 863.684C268.501 863.684 268.981 863.246 268.981 862.687C268.981 862.128 268.501 861.729 267.89 861.729C267.278 861.729 266.798 862.168 266.798 862.687C266.798 863.246 267.278 863.684 267.89 863.684Z" fill="white"/>
<path fill-rule="evenodd" clip-rule="evenodd" d="M74.8809 782.891C75.4921 782.891 75.9723 782.452 75.9723 781.894C75.9723 781.335 75.4921 780.896 74.8809 780.896C74.2697 780.896 73.7894 781.335 73.7894 781.894C73.8331 782.452 74.3133 782.891 74.8809 782.891Z" fill="white"/>
<path fill-rule="evenodd" clip-rule="evenodd" d="M345.512 764.179C346.123 764.179 346.603 763.74 346.603 763.182C346.603 762.623 346.123 762.184 345.512 762.184C344.9 762.184 344.42 762.623 344.42 763.182C344.42 763.74 344.9 764.179 345.512 764.179Z" fill="white"/>
<path fill-rule="evenodd" clip-rule="evenodd" d="M445.748 805.553C446.359 805.553 446.84 805.114 446.84 804.556C446.84 803.997 446.359 803.558 445.748 803.558C445.137 803.558 444.657 803.997 444.657 804.556C444.657 805.114 445.181 805.553 445.748 805.553Z" fill="white"/>
<path fill-rule="evenodd" clip-rule="evenodd" d="M539.568 724.76C540.179 724.76 540.659 724.321 540.659 723.762C540.659 723.204 540.179 722.765 539.568 722.765C538.956 722.765 538.476 723.204 538.476 723.762C538.476 724.321 538.956 724.76 539.568 724.76Z" fill="white"/>
<path fill-rule="evenodd" clip-rule="evenodd" d="M608.546 646.919C609.157 646.919 609.637 646.48 609.637 645.921C609.637 645.363 609.157 644.924 608.546 644.924C607.935 644.924 607.454 645.363 607.454 645.921C607.454 646.48 607.978 646.919 608.546 646.919Z" fill="white"/>
<path fill-rule="evenodd" clip-rule="evenodd" d="M591.302 609.494C591.913 609.494 592.393 609.056 592.393 608.497C592.393 607.938 591.913 607.5 591.302 607.5C590.691 607.5 590.21 607.938 590.21 608.497C590.21 609.056 590.691 609.494 591.302 609.494Z" fill="white"/>
<path fill-rule="evenodd" clip-rule="evenodd" d="M640.067 589.146C640.679 589.146 641.159 588.708 641.159 588.189C641.159 587.63 640.679 587.191 640.067 587.191C639.456 587.191 639.019 587.63 639.019 588.189C638.975 588.708 639.456 589.146 640.067 589.146Z" fill="white"/>
<path fill-rule="evenodd" clip-rule="evenodd" d="M674.337 586.832C674.948 586.832 675.429 586.394 675.429 585.835C675.429 585.276 674.948 584.838 674.337 584.838C673.726 584.838 673.246 585.276 673.246 585.835C673.246 586.394 673.726 586.832 674.337 586.832Z" fill="white"/>
<path fill-rule="evenodd" clip-rule="evenodd" d="M631.117 570.873C631.728 570.873 632.208 570.434 632.208 569.876C632.208 569.317 631.728 568.878 631.117 568.878C630.506 568.878 630.026 569.317 630.026 569.876C630.026 570.474 630.506 570.873 631.117 570.873Z" fill="white"/>
<path fill-rule="evenodd" clip-rule="evenodd" d="M566.504 523.794C567.116 523.794 567.596 523.355 567.596 522.796C567.596 522.238 567.116 521.799 566.504 521.799C565.893 521.799 565.413 522.238 565.413 522.796C565.413 523.315 565.893 523.794 566.504 523.794Z" fill="white"/>
<path fill-rule="evenodd" clip-rule="evenodd" d="M727.163 523.794C727.774 523.794 728.254 523.355 728.254 522.796C728.254 522.238 727.774 521.799 727.163 521.799C726.551 521.799 726.071 522.238 726.071 522.796C726.071 523.315 726.551 523.794 727.163 523.794Z" fill="white"/>
<path fill-rule="evenodd" clip-rule="evenodd" d="M722.841 599.64C723.452 599.64 723.932 599.201 723.932 598.642C723.932 598.084 723.452 597.645 722.841 597.645C722.23 597.645 721.749 598.084 721.749 598.642C721.749 599.201 722.23 599.64 722.841 599.64Z" fill="white"/>
<path fill-rule="evenodd" clip-rule="evenodd" d="M668.924 696.193C669.535 696.193 670.015 695.754 670.015 695.195C670.015 694.637 669.535 694.198 668.924 694.198C668.312 694.198 667.832 694.637 667.832 695.195C667.832 695.754 668.312 696.193 668.924 696.193Z" fill="white"/>
<path fill-rule="evenodd" clip-rule="evenodd" d="M717.427 738.564C718.038 738.564 718.518 738.126 718.518 737.567C718.518 737.008 718.038 736.57 717.427 736.57C716.816 736.57 716.336 737.008 716.336 737.567C716.336 738.126 716.859 738.564 717.427 738.564Z" fill="white"/>
<path fill-rule="evenodd" clip-rule="evenodd" d="M691.582 808.506C692.193 808.506 692.674 808.067 692.674 807.508C692.674 806.949 692.193 806.55 691.582 806.55C690.971 806.55 690.491 806.989 690.491 807.508C690.491 808.067 690.971 808.506 691.582 808.506Z" fill="white"/>
<path fill-rule="evenodd" clip-rule="evenodd" d="M552.49 802.601C553.101 802.601 553.581 802.162 553.581 801.603C553.581 801.045 553.101 800.606 552.49 800.606C551.879 800.606 551.399 801.045 551.399 801.603C551.399 802.162 551.879 802.601 552.49 802.601Z" fill="white"/>
<path fill-rule="evenodd" clip-rule="evenodd" d="M495.343 850.877C495.954 850.877 496.434 850.438 496.434 849.88C496.434 849.321 495.954 848.882 495.343 848.882C494.732 848.882 494.251 849.321 494.251 849.88C494.295 850.438 494.775 850.877 495.343 850.877Z" fill="white"/>
<path fill-rule="evenodd" clip-rule="evenodd" d="M444.701 557.268C445.312 557.268 445.749 556.829 445.749 556.271C445.749 555.712 445.268 555.273 444.701 555.273C444.09 555.273 443.609 555.712 443.609 556.271C443.609 556.829 444.09 557.268 444.701 557.268Z" fill="white"/>
<path fill-rule="evenodd" clip-rule="evenodd" d="M54.4062 528.701C55.0174 528.701 55.4539 528.262 55.4539 527.704C55.4539 527.145 54.9737 526.706 54.4062 526.706C53.795 526.706 53.3147 527.145 53.3147 527.704C53.3584 528.262 53.795 528.701 54.4062 528.701Z" fill="white"/>
<path fill-rule="evenodd" clip-rule="evenodd" d="M60.6052 533.968C61.6093 533.968 62.3952 533.249 62.3952 532.332C62.3952 531.454 61.6093 530.696 60.6052 530.696C59.6448 530.696 58.8153 531.454 58.8153 532.332C58.8153 533.249 59.6448 533.968 60.6052 533.968Z" fill="white"/>
<path fill-rule="evenodd" clip-rule="evenodd" d="M119.281 520.722C120.241 520.722 121.071 520.003 121.071 519.086C121.071 518.208 120.241 517.45 119.281 517.45C118.277 517.45 117.491 518.208 117.491 519.086C117.491 520.003 118.277 520.722 119.281 520.722Z" fill="white"/>
<path fill-rule="evenodd" clip-rule="evenodd" d="M140.847 539.434C141.807 539.434 142.637 538.676 142.637 537.798C142.637 536.88 141.807 536.162 140.847 536.162C139.843 536.162 139.057 536.88 139.057 537.798C139.057 538.716 139.843 539.434 140.847 539.434Z" fill="white"/>
<path fill-rule="evenodd" clip-rule="evenodd" d="M277.188 530.098C278.192 530.098 278.978 529.339 278.978 528.462C278.978 527.544 278.192 526.826 277.188 526.826C276.228 526.826 275.398 527.584 275.398 528.462C275.398 529.339 276.228 530.098 277.188 530.098Z" fill="white"/>
<path fill-rule="evenodd" clip-rule="evenodd" d="M113.517 658.808C114.478 658.808 115.307 658.09 115.307 657.173C115.307 656.295 114.478 655.537 113.517 655.537C112.513 655.537 111.727 656.295 111.727 657.173C111.727 658.09 112.513 658.808 113.517 658.808Z" fill="white"/>
<path fill-rule="evenodd" clip-rule="evenodd" d="M247.196 795.778C248.156 795.778 248.986 795.06 248.986 794.142C248.986 793.265 248.156 792.506 247.196 792.506C246.192 792.506 245.406 793.265 245.406 794.142C245.406 795.02 246.192 795.778 247.196 795.778Z" fill="white"/>
<path fill-rule="evenodd" clip-rule="evenodd" d="M20.79 858.817C21.7941 858.817 22.5799 858.059 22.5799 857.181C22.5799 856.303 21.7941 855.545 20.79 855.545C19.8295 855.545 19 856.303 19 857.181C19 858.099 19.8295 858.817 20.79 858.817Z" fill="white"/>
<path fill-rule="evenodd" clip-rule="evenodd" d="M434.79 871.624C435.795 871.624 436.581 870.906 436.581 869.988C436.581 869.111 435.795 868.352 434.79 868.352C433.83 868.352 433 869.111 433 869.988C433 870.906 433.786 871.624 434.79 871.624Z" fill="white"/>
<path fill-rule="evenodd" clip-rule="evenodd" d="M518.001 698.228C519.005 698.228 519.791 697.469 519.791 696.592C519.791 695.674 519.005 694.956 518.001 694.956C517.04 694.956 516.211 695.674 516.211 696.592C516.211 697.469 516.997 698.228 518.001 698.228Z" fill="white"/>
<path fill-rule="evenodd" clip-rule="evenodd" d="M690.534 777.744C691.538 777.744 692.324 777.026 692.324 776.108C692.324 775.231 691.538 774.472 690.534 774.472C689.574 774.472 688.744 775.231 688.744 776.108C688.744 777.026 689.574 777.744 690.534 777.744Z" fill="white"/>
<path fill-rule="evenodd" clip-rule="evenodd" d="M405.584 596.847C406.588 596.847 407.373 596.089 407.373 595.211C407.373 594.293 406.588 593.575 405.584 593.575C404.624 593.575 403.795 594.293 403.795 595.211C403.795 596.129 404.58 596.847 405.584 596.847Z" fill="white"/>
<path fill-rule="evenodd" clip-rule="evenodd" d="M688.133 534.367C689.093 534.367 689.923 533.609 689.923 532.731C689.923 531.813 689.093 531.095 688.133 531.095C687.172 531.095 686.343 531.813 686.343 532.731C686.343 533.609 687.172 534.367 688.133 534.367Z" fill="white"/>
<path fill-rule="evenodd" clip-rule="evenodd" d="M292.119 571.631C292.512 571.631 292.862 571.312 292.862 570.953C292.862 570.594 292.556 570.275 292.119 570.275C291.727 570.275 291.377 570.594 291.377 570.953C291.377 571.312 291.727 571.631 292.119 571.631Z" fill="white"/>
<path fill-rule="evenodd" clip-rule="evenodd" d="M417.721 533.569C418.114 533.569 418.463 533.249 418.463 532.89C418.463 532.531 418.157 532.212 417.721 532.212C417.284 532.212 416.979 532.491 416.979 532.89C416.979 533.289 417.328 533.569 417.721 533.569Z" fill="white"/>
<path fill-rule="evenodd" clip-rule="evenodd" d="M570.827 626.172C571.219 626.172 571.569 625.853 571.569 625.494C571.569 625.135 571.219 624.815 570.827 624.815C570.434 624.815 570.084 625.135 570.084 625.494C570.084 625.893 570.39 626.172 570.827 626.172Z" fill="white"/>
<path fill-rule="evenodd" clip-rule="evenodd" d="M679.707 626.172C680.1 626.172 680.449 625.853 680.449 625.494C680.449 625.135 680.144 624.815 679.707 624.815C679.314 624.815 678.965 625.135 678.965 625.494C678.965 625.893 679.27 626.172 679.707 626.172Z" fill="white"/>
<path fill-rule="evenodd" clip-rule="evenodd" d="M706.644 713.868C707.037 713.868 707.386 713.588 707.386 713.189C707.386 712.79 707.037 712.511 706.644 712.511C706.251 712.511 705.901 712.83 705.901 713.189C705.901 713.548 706.251 713.868 706.644 713.868Z" fill="white"/>
<path fill-rule="evenodd" clip-rule="evenodd" d="M451.119 721.767C451.512 721.767 451.861 721.448 451.861 721.089C451.861 720.73 451.512 720.411 451.119 720.411C450.726 720.411 450.376 720.69 450.376 721.089C450.376 721.488 450.726 721.767 451.119 721.767Z" fill="white"/>
<path fill-rule="evenodd" clip-rule="evenodd" d="M493.204 798.611C493.597 798.611 493.946 798.292 493.946 797.933C493.946 797.574 493.597 797.254 493.204 797.254C492.811 797.254 492.462 797.574 492.462 797.933C492.462 798.292 492.767 798.611 493.204 798.611Z" fill="white"/>
<path fill-rule="evenodd" clip-rule="evenodd" d="M108.279 592.458C108.672 592.458 109.021 592.139 109.021 591.78C109.021 591.421 108.672 591.102 108.279 591.102C107.886 591.102 107.537 591.421 107.537 591.78C107.537 592.179 107.886 592.458 108.279 592.458Z" fill="white"/>
<path fill-rule="evenodd" clip-rule="evenodd" d="M106.14 641.971C106.533 641.971 106.882 641.652 106.882 641.293C106.882 640.934 106.533 640.615 106.14 640.615C105.747 640.615 105.398 640.934 105.398 641.293C105.398 641.652 105.747 641.971 106.14 641.971Z" fill="white"/>
<path fill-rule="evenodd" clip-rule="evenodd" d="M65.1896 710.915C65.5825 710.915 65.9317 710.596 65.9317 710.237C65.9317 709.878 65.5825 709.559 65.1896 709.559C64.7966 709.559 64.4474 709.838 64.4474 710.237C64.4474 710.636 64.753 710.915 65.1896 710.915Z" fill="white"/>
<path fill-rule="evenodd" clip-rule="evenodd" d="M89.8992 577.297C90.2921 577.297 90.6414 577.018 90.6414 576.619C90.6414 576.26 90.2921 575.94 89.8992 575.94C89.5063 575.94 89.157 576.26 89.157 576.619C89.157 577.018 89.5063 577.297 89.8992 577.297Z" fill="white"/>
<path fill-rule="evenodd" clip-rule="evenodd" d="M80.4257 855.585C80.8186 855.585 81.1679 855.266 81.1679 854.907C81.1679 854.548 80.8186 854.228 80.4257 854.228C80.0328 854.228 79.6835 854.548 79.6835 854.907C79.6835 855.266 79.9891 855.585 80.4257 855.585Z" fill="white"/>
<path fill-rule="evenodd" clip-rule="evenodd" d="M233.357 881.359C233.75 881.359 234.099 881.04 234.099 880.681C234.099 880.322 233.794 880.003 233.357 880.003C232.964 880.003 232.614 880.322 232.614 880.681C232.614 881.08 232.964 881.359 233.357 881.359Z" fill="white"/>
<path fill-rule="evenodd" clip-rule="evenodd" d="M734.672 859.296C735.064 859.296 735.414 858.977 735.414 858.617C735.414 858.258 735.064 857.939 734.672 857.939C734.279 857.939 733.929 858.258 733.929 858.617C733.973 859.016 734.279 859.296 734.672 859.296Z" fill="white"/>
<path fill-rule="evenodd" clip-rule="evenodd" d="M577.593 764.418C577.986 764.418 578.335 764.099 578.335 763.74C578.335 763.381 577.986 763.062 577.593 763.062C577.2 763.062 576.851 763.341 576.851 763.74C576.851 764.139 577.2 764.418 577.593 764.418Z" fill="white"/>
<path fill-rule="evenodd" clip-rule="evenodd" d="M591.359 734.318C591.752 734.318 592.188 734.398 592.537 734.597C592.887 734.797 634.448 713.292 634.666 713.611C634.928 713.97 593.804 736.113 593.804 736.552C593.804 737.789 592.712 738.747 591.402 738.747C590.093 738.747 589.001 737.789 589.001 736.552C588.958 735.315 590.049 734.318 591.359 734.318Z" fill="#FFFFCC"/>
<path fill-rule="evenodd" clip-rule="evenodd" d="M591.359 738.228C592.406 738.228 593.236 737.43 593.236 736.512C593.236 735.595 592.406 734.797 591.359 734.797C590.311 734.797 589.481 735.555 589.481 736.512C589.481 737.47 590.354 738.228 591.359 738.228Z" fill="#FFFF66"/>
<path fill-rule="evenodd" clip-rule="evenodd" d="M591.228 737.829C591.926 737.829 592.494 737.31 592.494 736.672C592.494 736.033 591.926 735.515 591.228 735.515C590.529 735.515 589.962 736.033 589.962 736.672C589.962 737.31 590.529 737.829 591.228 737.829Z" fill="#000"/>
<path fill-rule="evenodd" clip-rule="evenodd" d="M642.962 708.983C643.049 708.943 707.05 674.95 707.137 675.069C707.224 675.189 643.529 709.581 643.398 709.661C642.525 710.14 642.176 709.422 642.962 708.983Z" fill="#FFFFCC"/>
</g>
<path fill-rule="evenodd" clip-rule="evenodd" d="M655.143 1106C706.571 1106 750.097 1141.74 764.329 1190.85H546C560.189 1141.74 603.671 1106 655.143 1106Z" fill="#9966FF"/>
<path fill-rule="evenodd" clip-rule="evenodd" d="M754.55 1166.98C758.566 1174.45 761.884 1182.47 764.285 1190.85H550.977C566.78 1144.67 608.91 1111.64 658.329 1111.64C698.8 1111.64 734.293 1133.72 754.55 1166.98Z" fill="#321791"/>
<path fill-rule="evenodd" clip-rule="evenodd" d="M748.001 1165.7C751.014 1171.29 753.459 1184.62 755.292 1190.85H596.293C604.326 1167.39 614.978 1175.96 636.763 1166.25C646.935 1161.71 664.573 1131.79 676.316 1131.79C687.58 1131.79 698.582 1140.04 708.404 1144.21C724.907 1151.22 738.528 1150.17 748.001 1165.7ZM628.774 1124.88C629.691 1124.88 630.476 1125.66 630.476 1126.71C630.476 1127.72 629.691 1128.54 628.774 1128.54C627.813 1128.54 627.071 1127.72 627.071 1126.71C627.071 1125.7 627.813 1124.88 628.774 1124.88ZM660.294 1118.6C661.429 1118.6 662.302 1119.56 662.302 1120.71C662.302 1121.9 661.429 1122.86 660.294 1122.86C659.203 1122.86 658.286 1121.9 658.286 1120.71C658.33 1119.56 659.203 1118.6 660.294 1118.6ZM652.305 1128.13C653.833 1128.13 655.099 1129.46 655.099 1131.06C655.099 1132.67 653.877 1133.99 652.305 1133.99C650.777 1133.99 649.555 1132.67 649.555 1131.06C649.511 1129.46 650.777 1128.13 652.305 1128.13ZM605.33 1156.81C607.644 1156.81 609.521 1158.83 609.521 1161.3C609.521 1163.77 607.644 1165.79 605.33 1165.79C602.972 1165.79 601.095 1163.77 601.095 1161.3C601.139 1158.83 603.016 1156.81 605.33 1156.81ZM584.374 1155.3C589.22 1155.3 593.15 1159.47 593.15 1164.64C593.15 1169.78 589.22 1173.99 584.374 1173.99C579.528 1173.99 575.599 1169.82 575.599 1164.64C575.643 1159.47 579.572 1155.3 584.374 1155.3Z" fill="#220B78"/>
<path fill-rule="evenodd" clip-rule="evenodd" d="M263.955 937.998C264.602 937.998 265.11 937.494 265.11 936.852C265.11 936.211 264.602 935.753 263.955 935.753C263.308 935.753 262.8 936.257 262.8 936.852C262.8 937.494 263.308 937.998 263.955 937.998Z" fill="white"/>
<path fill-rule="evenodd" clip-rule="evenodd" d="M189.408 924.482C190.055 924.482 190.563 923.978 190.563 923.336C190.563 922.695 190.055 922.191 189.408 922.191C188.76 922.191 188.252 922.695 188.252 923.336C188.252 923.978 188.807 924.482 189.408 924.482Z" fill="white"/>
<path fill-rule="evenodd" clip-rule="evenodd" d="M162.001 1185.86C162.648 1185.86 163.157 1185.36 163.157 1184.76C163.157 1184.17 162.648 1183.62 162.001 1183.62C161.354 1183.62 160.846 1184.12 160.846 1184.76C160.846 1185.41 161.4 1185.86 162.001 1185.86Z" fill="white"/>
<path fill-rule="evenodd" clip-rule="evenodd" d="M336.653 1181.33C337.3 1181.33 337.809 1180.82 337.809 1180.18C337.809 1179.54 337.3 1179.04 336.653 1179.04C336.006 1179.04 335.498 1179.54 335.498 1180.18C335.498 1180.82 336.006 1181.33 336.653 1181.33Z" fill="white"/>
<path fill-rule="evenodd" clip-rule="evenodd" d="M542.086 1136.06C542.733 1136.06 543.241 1135.56 543.241 1134.92C543.241 1134.27 542.733 1133.77 542.086 1133.77C541.439 1133.77 540.931 1134.27 540.931 1134.92C540.931 1135.56 541.439 1136.06 542.086 1136.06Z" fill="white"/>
<path fill-rule="evenodd" clip-rule="evenodd" d="M615.108 1046.67C615.755 1046.67 616.264 1046.17 616.264 1045.53C616.264 1044.89 615.755 1044.38 615.108 1044.38C614.461 1044.38 613.953 1044.89 613.953 1045.53C613.953 1046.17 614.507 1046.67 615.108 1046.67Z" fill="white"/>
<path fill-rule="evenodd" clip-rule="evenodd" d="M596.853 1003.7C597.5 1003.7 598.009 1003.19 598.009 1002.55C598.009 1001.91 597.5 1001.41 596.853 1001.41C596.206 1001.41 595.698 1001.91 595.698 1002.55C595.698 1003.19 596.206 1003.7 596.853 1003.7Z" fill="white"/>
<path fill-rule="evenodd" clip-rule="evenodd" d="M648.477 980.332C649.125 980.332 649.634 979.828 649.634 979.232C649.634 978.591 649.125 978.087 648.477 978.087C647.83 978.087 647.368 978.591 647.368 979.232C647.321 979.828 647.83 980.332 648.477 980.332Z" fill="white"/>
<path fill-rule="evenodd" clip-rule="evenodd" d="M684.757 977.675C685.404 977.675 685.912 977.171 685.912 976.529C685.912 975.888 685.404 975.384 684.757 975.384C684.11 975.384 683.601 975.888 683.601 976.529C683.601 977.171 684.11 977.675 684.757 977.675Z" fill="white"/>
<path fill-rule="evenodd" clip-rule="evenodd" d="M639.003 959.348C639.65 959.348 640.158 958.844 640.158 958.203C640.158 957.561 639.65 957.057 639.003 957.057C638.355 957.057 637.847 957.561 637.847 958.203C637.847 958.89 638.355 959.348 639.003 959.348Z" fill="white"/>
<path fill-rule="evenodd" clip-rule="evenodd" d="M570.602 905.285C571.249 905.285 571.757 904.781 571.757 904.139C571.757 903.498 571.249 902.994 570.602 902.994C569.955 902.994 569.447 903.498 569.447 904.139C569.447 904.735 569.955 905.285 570.602 905.285Z" fill="white"/>
<path fill-rule="evenodd" clip-rule="evenodd" d="M740.679 905.285C741.326 905.285 741.834 904.781 741.834 904.139C741.834 903.498 741.326 902.994 740.679 902.994C740.032 902.994 739.523 903.498 739.523 904.139C739.523 904.735 740.032 905.285 740.679 905.285Z" fill="white"/>
<path fill-rule="evenodd" clip-rule="evenodd" d="M736.104 992.382C736.751 992.382 737.259 991.878 737.259 991.236C737.259 990.595 736.751 990.091 736.104 990.091C735.457 990.091 734.948 990.595 734.948 991.236C734.948 991.878 735.457 992.382 736.104 992.382Z" fill="white"/>
<path fill-rule="evenodd" clip-rule="evenodd" d="M679.026 1103.26C679.673 1103.26 680.181 1102.75 680.181 1102.11C680.181 1101.47 679.673 1100.97 679.026 1100.97C678.379 1100.97 677.87 1101.47 677.87 1102.11C677.87 1102.75 678.379 1103.26 679.026 1103.26Z" fill="white"/>
<path fill-rule="evenodd" clip-rule="evenodd" d="M730.372 1151.91C731.02 1151.91 731.528 1151.41 731.528 1150.77C731.528 1150.13 731.02 1149.62 730.372 1149.62C729.725 1149.62 729.217 1150.13 729.217 1150.77C729.217 1151.41 729.772 1151.91 730.372 1151.91Z" fill="white"/>
<path fill-rule="evenodd" clip-rule="evenodd" d="M441.658 943.725C442.305 943.725 442.767 943.221 442.767 942.579C442.767 941.938 442.259 941.434 441.658 941.434C441.011 941.434 440.502 941.938 440.502 942.579C440.502 943.221 441.011 943.725 441.658 943.725Z" fill="white"/>
<path fill-rule="evenodd" clip-rule="evenodd" d="M28.4819 910.92C29.1289 910.92 29.5911 910.416 29.5911 909.775C29.5911 909.133 29.0827 908.629 28.4819 908.629C27.8348 908.629 27.3264 909.133 27.3264 909.775C27.3727 910.416 27.8348 910.92 28.4819 910.92Z" fill="white"/>
<path fill-rule="evenodd" clip-rule="evenodd" d="M35.0444 916.968C36.1073 916.968 36.9392 916.143 36.9392 915.089C36.9392 914.082 36.1073 913.211 35.0444 913.211C34.0276 913.211 33.1495 914.082 33.1495 915.089C33.1495 916.143 34.0276 916.968 35.0444 916.968Z" fill="white"/>
<path fill-rule="evenodd" clip-rule="evenodd" d="M97.1597 901.757C98.1765 901.757 99.0546 900.932 99.0546 899.878C99.0546 898.871 98.1765 898 97.1597 898C96.0967 898 95.2648 898.871 95.2648 899.878C95.2648 900.932 96.0967 901.757 97.1597 901.757Z" fill="white"/>
<path fill-rule="evenodd" clip-rule="evenodd" d="M119.99 923.245C121.007 923.245 121.885 922.374 121.885 921.366C121.885 920.313 121.007 919.488 119.99 919.488C118.927 919.488 118.095 920.313 118.095 921.366C118.095 922.42 118.927 923.245 119.99 923.245Z" fill="white"/>
<path fill-rule="evenodd" clip-rule="evenodd" d="M264.324 912.524C265.387 912.524 266.219 911.653 266.219 910.645C266.219 909.591 265.387 908.767 264.324 908.767C263.308 908.767 262.429 909.637 262.429 910.645C262.429 911.653 263.308 912.524 264.324 912.524Z" fill="white"/>
<path fill-rule="evenodd" clip-rule="evenodd" d="M91.0585 1060.33C92.0753 1060.33 92.9534 1059.5 92.9534 1058.45C92.9534 1057.44 92.0753 1056.57 91.0585 1056.57C89.9955 1056.57 89.1636 1057.44 89.1636 1058.45C89.1636 1059.5 89.9955 1060.33 91.0585 1060.33Z" fill="white"/>
<path fill-rule="evenodd" clip-rule="evenodd" d="M519.255 1105.59C520.318 1105.59 521.15 1104.72 521.15 1103.72C521.15 1102.66 520.318 1101.84 519.255 1101.84C518.238 1101.84 517.36 1102.66 517.36 1103.72C517.36 1104.72 518.192 1105.59 519.255 1105.59Z" fill="white"/>
<path fill-rule="evenodd" clip-rule="evenodd" d="M400.248 989.175C401.31 989.175 402.142 988.304 402.142 987.296C402.142 986.242 401.31 985.418 400.248 985.418C399.231 985.418 398.354 986.242 398.354 987.296C398.354 988.35 399.185 989.175 400.248 989.175Z" fill="white"/>
<path fill-rule="evenodd" clip-rule="evenodd" d="M699.361 917.426C700.378 917.426 701.256 916.556 701.256 915.548C701.256 914.494 700.378 913.669 699.361 913.669C698.344 913.669 697.466 914.494 697.466 915.548C697.466 916.556 698.344 917.426 699.361 917.426Z" fill="white"/>
<path fill-rule="evenodd" clip-rule="evenodd" d="M280.131 960.219C280.547 960.219 280.917 959.852 280.917 959.44C280.917 959.027 280.593 958.661 280.131 958.661C279.715 958.661 279.345 959.027 279.345 959.44C279.345 959.852 279.715 960.219 280.131 960.219Z" fill="white"/>
<path fill-rule="evenodd" clip-rule="evenodd" d="M413.096 916.51C413.512 916.51 413.882 916.143 413.882 915.731C413.882 915.319 413.558 914.952 413.096 914.952C412.634 914.952 412.31 915.273 412.31 915.731C412.31 916.189 412.68 916.51 413.096 916.51Z" fill="white"/>
<path fill-rule="evenodd" clip-rule="evenodd" d="M575.178 1022.85C575.594 1022.85 575.963 1022.48 575.963 1022.07C575.963 1021.66 575.594 1021.29 575.178 1021.29C574.762 1021.29 574.392 1021.66 574.392 1022.07C574.392 1022.53 574.715 1022.85 575.178 1022.85Z" fill="white"/>
<path fill-rule="evenodd" clip-rule="evenodd" d="M690.441 1022.85C690.857 1022.85 691.227 1022.48 691.227 1022.07C691.227 1021.66 690.903 1021.29 690.441 1021.29C690.025 1021.29 689.655 1021.66 689.655 1022.07C689.655 1022.53 689.979 1022.85 690.441 1022.85Z" fill="white"/>
<path fill-rule="evenodd" clip-rule="evenodd" d="M718.957 1123.55C719.373 1123.55 719.743 1123.23 719.743 1122.77C719.743 1122.32 719.373 1122 718.957 1122C718.541 1122 718.171 1122.36 718.171 1122.77C718.171 1123.19 718.541 1123.55 718.957 1123.55Z" fill="white"/>
<path fill-rule="evenodd" clip-rule="evenodd" d="M448.452 1132.63C448.868 1132.63 449.237 1132.26 449.237 1131.85C449.237 1131.43 448.868 1131.07 448.452 1131.07C448.036 1131.07 447.666 1131.39 447.666 1131.85C447.666 1132.3 448.036 1132.63 448.452 1132.63Z" fill="white"/>
<path fill-rule="evenodd" clip-rule="evenodd" d="M85.5131 984.135C85.9291 984.135 86.2988 983.768 86.2988 983.356C86.2988 982.943 85.9291 982.577 85.5131 982.577C85.0972 982.577 84.7275 982.943 84.7275 983.356C84.7275 983.814 85.0972 984.135 85.5131 984.135Z" fill="white"/>
<path fill-rule="evenodd" clip-rule="evenodd" d="M83.2484 1040.99C83.6645 1040.99 84.0343 1040.63 84.0343 1040.21C84.0343 1039.8 83.6645 1039.43 83.2484 1039.43C82.8324 1039.43 82.4626 1039.8 82.4626 1040.21C82.4626 1040.63 82.8324 1040.99 83.2484 1040.99Z" fill="white"/>
<path fill-rule="evenodd" clip-rule="evenodd" d="M39.8974 1120.16C40.3134 1120.16 40.6831 1119.8 40.6831 1119.38C40.6831 1118.97 40.3134 1118.61 39.8974 1118.61C39.4815 1118.61 39.1118 1118.93 39.1118 1119.38C39.1118 1119.84 39.4353 1120.16 39.8974 1120.16Z" fill="white"/>
<path fill-rule="evenodd" clip-rule="evenodd" d="M66.0557 966.725C66.4717 966.725 66.8414 966.404 66.8414 965.946C66.8414 965.533 66.4717 965.167 66.0557 965.167C65.6398 965.167 65.27 965.533 65.27 965.946C65.27 966.404 65.6398 966.725 66.0557 966.725Z" fill="white"/>
<path fill-rule="evenodd" clip-rule="evenodd" d="M582.34 1181.6C582.756 1181.6 583.126 1181.24 583.126 1180.82C583.126 1180.41 582.756 1180.05 582.34 1180.05C581.925 1180.05 581.555 1180.37 581.555 1180.82C581.555 1181.28 581.925 1181.6 582.34 1181.6Z" fill="white"/>
<path fill-rule="evenodd" clip-rule="evenodd" d="M663.352 951.895C675.664 951.895 685.705 942.719 685.705 931.468C685.705 920.216 675.664 911.04 663.352 911.04C651.041 911.04 641 920.216 641 931.468C641 942.679 651.041 951.895 663.352 951.895Z" fill="#6699FF"/>
<path fill-rule="evenodd" clip-rule="evenodd" d="M678.719 916.586C679.549 917.304 680.335 918.102 681.077 918.94C679.374 918.98 677.672 918.98 675.925 918.98C665.011 918.98 654.926 918.461 646.85 917.623C647.155 917.304 647.461 917.025 647.81 916.705C652.176 916.905 656.847 916.985 661.606 916.985C667.674 916.985 673.437 916.865 678.719 916.586ZM683.827 923.169C683.958 923.448 684.089 923.767 684.22 924.047C678.458 929.832 665.753 936.096 651.303 939.806C648.727 940.445 646.239 941.003 643.837 941.442C642.833 939.806 642.091 938.051 641.611 936.176C646.5 935.856 652.22 934.939 658.332 933.383C668.198 930.869 677.279 927.159 683.827 923.169ZM685.05 936.575C685.006 936.774 684.919 937.013 684.831 937.213C680.204 939.168 675.052 940.884 669.639 942.28C660.733 944.594 652.7 945.472 646.719 945.113C645.846 944.195 645.016 943.198 644.318 942.16C650.168 943.956 660.82 943.477 673.131 940.285C677.322 939.248 681.295 937.971 685.05 936.575ZM677.672 947.187C675.751 948.664 673.524 949.821 671.123 950.619C665.186 950.579 659.554 950.419 654.359 950.14C651.827 949.102 649.556 947.706 647.636 945.951C655.538 946.709 665.229 947.187 675.663 947.187C676.318 947.187 676.973 947.187 677.672 947.187Z" fill="#66BDFF"/>
<path fill-rule="evenodd" clip-rule="evenodd" d="M679.506 945.631C675.446 949.502 669.726 951.895 663.352 951.895C650.997 951.895 641 942.719 641 931.468C641 920.177 651.041 911.04 663.352 911.04L656.018 915.508L657.24 917.424L655.538 921.294L656.935 926.361L659.685 927.837L660.035 930.67L657.546 933.622L652.744 932.864L652.525 933.064L649.469 938.051L651.696 941.682L651.914 941.721L657.939 941.961L661.912 939.687L663.44 941.362L665.317 941.682L664.837 943.437C665.011 943.437 665.099 943.437 665.099 943.437L669.683 943.796C670.556 943.397 669.945 943.676 670.032 943.597L672.957 940.644L668.897 938.37L669.77 936.455L673.787 935.218L675.62 938.091L674.485 940.684L675.838 942.36L672.084 945.272L670.6 944.833L669.945 945.831L672.564 947.307L676.799 945.193L679.506 945.631ZM677.628 934.54L675.664 934.221L675.62 933.024L677.279 932.585L677.366 932.545L678.458 933.303L678.327 933.782L677.628 934.54ZM654.141 940.804L653.792 940.485L654.184 939.727L654.577 940.006L654.141 940.804ZM659.336 935.976L658.463 935.537L657.983 935.896V936.575L658.856 936.894L659.729 935.896L659.336 935.976ZM667.413 916.346L666.889 915.469L667.282 915.07L668.024 915.189V916.227L667.413 916.346ZM662.654 922.251L661.781 921.254L662.392 920.935L663.265 921.174L663.396 921.972L662.654 922.251ZM667.762 924.845L663.571 924.964L662.698 927.039L664.4 928.395L666.627 927.119L666.278 925.962L667.5 925.722L667.762 924.845ZM652.787 917.344L650.692 917.823L649.95 920.216L652.831 921.453L654.184 919.498L652.787 917.344ZM648.64 929.752L648.422 930.39L649.12 930.869L649.469 929.991L648.64 929.752ZM649.339 932.505L647.068 931.946L645.977 933.742L647.854 934.979L650.605 932.864L649.339 932.505ZM653.923 927.358L655.276 927.238L655.232 928.036H653.966V927.358H653.923ZM650.692 923.727L649.208 923.688V924.605L650.823 925.044L650.692 923.727Z" fill="#FFFF66"/>
<path fill-rule="evenodd" clip-rule="evenodd" d="M677.672 947.187C675.751 948.664 673.524 949.821 671.123 950.619C665.186 950.579 659.554 950.419 654.359 950.14C651.827 949.103 649.557 947.706 647.636 945.951C654.708 946.669 663.178 947.068 672.346 947.148L672.651 947.307L672.957 947.148C673.874 947.148 674.79 947.148 675.707 947.148C676.318 947.187 676.973 947.187 677.672 947.187ZM646.763 945.113C645.889 944.195 645.06 943.198 644.361 942.16C648.945 943.557 656.411 943.557 665.317 942.001L664.968 943.357C657.939 944.873 651.652 945.432 646.763 945.113ZM643.881 941.482C642.877 939.846 642.135 938.091 641.655 936.215C644.667 936.016 647.941 935.617 651.478 934.979L649.6 938.051L650.779 940.006C648.378 940.564 646.108 941.043 643.881 941.482ZM646.85 917.623C647.156 917.304 647.461 917.025 647.81 916.705C650.779 916.825 653.835 916.905 656.978 916.945L657.24 917.344L656.804 918.381C655.625 918.301 654.49 918.222 653.398 918.142L652.831 917.264L650.735 917.743L650.692 917.902C649.338 917.862 648.072 917.783 646.85 917.623ZM672.084 941.642L673.044 940.684L672.651 940.445C672.826 940.405 673.001 940.365 673.219 940.325C673.83 940.165 674.398 940.006 675.009 939.846L674.616 940.724L674.747 940.884C673.786 941.123 672.957 941.402 672.084 941.642ZM659.336 935.976L658.463 935.537L657.982 935.896V936.575L658.856 936.894L659.729 935.896L659.336 935.976Z" fill="#2F83C4"/>
<path fill-rule="evenodd" clip-rule="evenodd" d="M663.353 911C675.708 911 685.705 920.137 685.705 931.428C685.705 940.564 679.157 948.305 670.076 950.938C678.284 947.906 684.046 940.564 684.046 931.986C684.046 920.695 674.049 911.559 661.694 911.559C659.336 911.559 657.11 911.878 654.971 912.476C657.546 911.519 660.428 911 663.353 911Z" fill="#DF99FF"/>
</g>
<defs>
<clipPath id="clip0">
<rect width="764" height="1191" fill="white"/>
</clipPath>
<clipPath id="clip1">
<rect width="764" height="452" fill="white"/>
</clipPath>
<clipPath id="clip2">
<rect width="764" height="391" fill="white" transform="translate(0 507)"/>
</clipPath>
</defs>
</svg>
