<svg width="200" height="200" viewBox="0 0 200 200" fill="none" xmlns="http://www.w3.org/2000/svg">
<path d="M134.234 112.834L161.661 86.0982C162.864 84.9267 163.297 83.1736 162.778 81.577C162.258 79.9805 160.878 78.8167 159.217 78.5752L121.313 73.0683L104.362 38.7209C103.618 37.2164 102.086 36.2626 100.407 36.2626C98.7279 36.2626 97.1947 37.2158 96.4516 38.7209L79.5003 73.0683L41.5964 78.5752C39.9354 78.8167 38.5549 79.9805 38.0362 81.577C37.5174 83.1736 37.9502 84.9262 39.152 86.0982L66.5796 112.834L60.1046 150.585C59.8207 152.24 60.501 153.912 61.8594 154.899C63.2172 155.885 65.0177 156.015 66.504 155.234L100.407 137.41L134.309 155.234C134.954 155.573 135.658 155.741 136.362 155.741C137.276 155.741 138.186 155.455 138.954 154.899C140.312 153.912 140.993 152.24 140.709 150.585L134.234 112.834ZM102.46 128.524C101.818 128.187 101.113 128.017 100.408 128.017C99.7026 128.017 128.142 128.187 127.5 128.524C127.745 127.093 102.46 108.135 74.3975 108.135L104.362 108.93L102.46 108.135C103.896 107.926 100.698 79.8768 101.341 78.5752L100.407 50.6388L102.46 112.039C103.102 113.341 116.314 81.2556 117.75 81.464C116.71 82.4779 80.1235 104 102.46 112.039L70.3102 94.5L102.46 128.524Z" fill="white"/>
<path d="M88.0938 110H85.832L77.2422 96.8516V110H74.9805V92.9375H77.2422L85.8555 106.145V92.9375H88.0938V110ZM91.1758 103.543C91.1758 102.301 91.418 101.184 91.9023 100.191C92.3945 99.1992 93.0742 98.4336 93.9414 97.8945C94.8164 97.3555 95.8125 97.0859 96.9297 97.0859C98.6562 97.0859 100.051 97.6836 101.113 98.8789C102.184 100.074 102.719 101.664 102.719 103.648V103.801C102.719 105.035 102.48 106.145 102.004 107.129C101.535 108.105 100.859 108.867 99.9766 109.414C99.1016 109.961 98.0938 110.234 96.9531 110.234C95.2344 110.234 93.8398 109.637 92.7695 108.441C91.707 107.246 91.1758 105.664 91.1758 103.695V103.543ZM93.3555 103.801C93.3555 105.207 93.6797 106.336 94.3281 107.188C94.9844 108.039 95.8594 108.465 96.9531 108.465C98.0547 108.465 98.9297 108.035 99.5781 107.176C100.227 106.309 100.551 105.098 100.551 103.543C100.551 102.152 100.219 101.027 99.5547 100.168C98.8984 99.3008 98.0234 98.8672 96.9297 98.8672C95.8594 98.8672 94.9961 99.293 94.3398 100.145C93.6836 100.996 93.3555 102.215 93.3555 103.801ZM104.91 103.555C104.91 101.609 105.371 100.047 106.293 98.8672C107.215 97.6797 108.422 97.0859 109.914 97.0859C111.398 97.0859 112.574 97.5938 113.441 98.6094V92H115.609V110H113.617L113.512 108.641C112.645 109.703 111.438 110.234 109.891 110.234C108.422 110.234 107.223 109.633 106.293 108.43C105.371 107.227 104.91 105.656 104.91 103.719V103.555ZM107.078 103.801C107.078 105.238 107.375 106.363 107.969 107.176C108.562 107.988 109.383 108.395 110.43 108.395C111.805 108.395 112.809 107.777 113.441 106.543V100.719C112.793 99.5234 111.797 98.9258 110.453 98.9258C109.391 98.9258 108.562 99.3359 107.969 100.156C107.375 100.977 107.078 102.191 107.078 103.801ZM124.246 110.234C122.527 110.234 121.129 109.672 120.051 108.547C118.973 107.414 118.434 105.902 118.434 104.012V103.613C118.434 102.355 118.672 101.234 119.148 100.25C119.633 99.2578 120.305 98.4844 121.164 97.9297C122.031 97.3672 122.969 97.0859 123.977 97.0859C125.625 97.0859 126.906 97.6289 127.82 98.7148C128.734 99.8008 129.191 101.355 129.191 103.379V104.281H120.602C120.633 105.531 120.996 106.543 121.691 107.316C122.395 108.082 123.285 108.465 124.363 108.465C125.129 108.465 125.777 108.309 126.309 107.996C126.84 107.684 127.305 107.27 127.703 106.754L129.027 107.785C127.965 109.418 126.371 110.234 124.246 110.234ZM123.977 98.8672C123.102 98.8672 122.367 99.1875 121.773 99.8281C121.18 100.461 120.812 101.352 120.672 102.5H127.023V102.336C126.961 101.234 126.664 100.383 126.133 99.7812C125.602 99.1719 124.883 98.8672 123.977 98.8672Z" fill="#000"/>
</svg>
