<svg width="200" height="166" viewBox="0 0 200 166" fill="none" xmlns="http://www.w3.org/2000/svg">
<path d="M134.234 112.834L161.661 86.0982C162.864 84.9267 163.297 83.1736 162.778 81.577C162.258 79.9805 160.878 78.8167 159.217 78.5752L121.313 73.0683L104.362 38.7209C103.618 37.2164 102.086 36.2626 100.407 36.2626C98.7279 36.2626 97.1947 37.2158 96.4516 38.7209L79.5003 73.0683L41.5964 78.5752C39.9354 78.8167 38.5549 79.9805 38.0362 81.577C37.5174 83.1736 37.9502 84.9262 39.152 86.0982L66.5796 112.834L60.1046 150.585C59.8207 152.24 60.501 153.912 61.8594 154.899C63.2172 155.885 65.0177 156.015 66.504 155.234L100.407 137.41L134.309 155.234C134.954 155.573 135.658 155.741 136.362 155.741C137.276 155.741 138.186 155.455 138.954 154.899C140.312 153.912 140.993 152.24 140.709 150.585L134.234 112.834ZM102.46 128.524C101.818 128.187 101.113 128.017 100.408 128.017C99.7026 128.017 128.142 128.187 127.5 128.524C127.745 127.093 102.46 108.135 74.3975 108.135L104.362 108.93L102.46 108.135C103.896 107.926 100.698 79.8768 101.341 78.5752L100.407 50.6388L102.46 112.039C103.102 113.341 116.314 81.2556 117.75 81.464C116.71 82.4779 80.1235 104 102.46 112.039L70.3102 94.5L102.46 128.524Z" fill="white"/>
<path d="M77.2383 101.098H73.2305V108H70.9688V90.9375H76.6172C78.5391 90.9375 80.0156 91.375 81.0469 92.25C82.0859 93.125 82.6055 94.3984 82.6055 96.0703C82.6055 97.1328 82.3164 98.0586 81.7383 98.8477C81.168 99.6367 80.3711 100.227 79.3477 100.617L83.3555 107.859V108H80.9414L77.2383 101.098ZM73.2305 99.2578H76.6875C77.8047 99.2578 78.6914 98.9688 79.3477 98.3906C80.0117 97.8125 80.3438 97.0391 80.3438 96.0703C80.3438 95.0156 80.0273 94.207 79.3945 93.6445C78.7695 93.082 77.8633 92.7969 76.6758 92.7891H73.2305V99.2578ZM90.6914 108.234C88.9727 108.234 87.5742 107.672 86.4961 106.547C85.418 105.414 84.8789 103.902 84.8789 102.012V101.613C84.8789 100.355 85.1172 99.2344 85.5938 98.25C86.0781 97.2578 86.75 96.4844 87.6094 95.9297C88.4766 95.3672 89.4141 95.0859 90.4219 95.0859C92.0703 95.0859 93.3516 95.6289 94.2656 96.7148C95.1797 97.8008 95.6367 99.3555 95.6367 101.379V102.281H87.0469C87.0781 103.531 87.4414 104.543 88.1367 105.316C88.8398 106.082 89.7305 106.465 90.8086 106.465C91.5742 106.465 92.2227 106.309 92.7539 105.996C93.2852 105.684 93.75 105.27 94.1484 104.754L95.4727 105.785C94.4102 107.418 92.8164 108.234 90.6914 108.234ZM90.4219 96.8672C89.5469 96.8672 88.8125 97.1875 88.2188 97.8281C87.625 98.4609 87.2578 99.3516 87.1172 100.5H93.4688V100.336C93.4062 99.2344 93.1094 98.3828 92.5781 97.7812C92.0469 97.1719 91.3281 96.8672 90.4219 96.8672ZM105.984 108C105.859 107.75 105.758 107.305 105.68 106.664C104.672 107.711 103.469 108.234 102.07 108.234C100.82 108.234 99.793 107.883 98.9883 107.18C98.1914 106.469 97.793 105.57 97.793 104.484C97.793 103.164 98.293 102.141 99.293 101.414C100.301 100.68 101.715 100.312 103.535 100.312H105.645V99.3164C105.645 98.5586 105.418 97.957 104.965 97.5117C104.512 97.0586 103.844 96.832 102.961 96.832C102.188 96.832 101.539 97.0273 101.016 97.418C100.492 97.8086 100.23 98.2812 100.23 98.8359H98.0508C98.0508 98.2031 98.2734 97.5938 98.7188 97.0078C99.1719 96.4141 99.7812 95.9453 100.547 95.6016C101.32 95.2578 102.168 95.0859 103.09 95.0859C104.551 95.0859 105.695 95.4531 106.523 96.1875C107.352 96.9141 107.781 97.918 107.812 99.1992V105.035C107.812 106.199 107.961 107.125 108.258 107.812V108H105.984ZM102.387 106.348C103.066 106.348 103.711 106.172 104.32 105.82C104.93 105.469 105.371 105.012 105.645 104.449V101.848H103.945C101.289 101.848 99.9609 102.625 99.9609 104.18C99.9609 104.859 100.188 105.391 100.641 105.773C101.094 106.156 101.676 106.348 102.387 106.348ZM116.297 106.465C117.07 106.465 117.746 106.23 118.324 105.762C118.902 105.293 119.223 104.707 119.285 104.004H121.336C121.297 104.73 121.047 105.422 120.586 106.078C120.125 106.734 119.508 107.258 118.734 107.648C117.969 108.039 117.156 108.234 116.297 108.234C114.57 108.234 113.195 107.66 112.172 106.512C111.156 105.355 110.648 103.777 110.648 101.777V101.414C110.648 100.18 110.875 99.082 111.328 98.1211C111.781 97.1602 112.43 96.4141 113.273 95.8828C114.125 95.3516 115.129 95.0859 116.285 95.0859C117.707 95.0859 118.887 95.5117 119.824 96.3633C120.77 97.2148 121.273 98.3203 121.336 99.6797H119.285C119.223 98.8594 118.91 98.1875 118.348 97.6641C117.793 97.1328 117.105 96.8672 116.285 96.8672C115.184 96.8672 114.328 97.2656 113.719 98.0625C113.117 98.8516 112.816 99.9961 112.816 101.496V101.906C112.816 103.367 113.117 104.492 113.719 105.281C114.32 106.07 115.18 106.465 116.297 106.465ZM126.715 92.25V95.3203H129.082V96.9961H126.715V104.859C126.715 105.367 126.82 105.75 127.031 106.008C127.242 106.258 127.602 106.383 128.109 106.383C128.359 106.383 128.703 106.336 129.141 106.242V108C128.57 108.156 128.016 108.234 127.477 108.234C126.508 108.234 125.777 107.941 125.285 107.355C124.793 106.77 124.547 105.938 124.547 104.859V96.9961H122.238V95.3203H124.547V92.25H126.715Z" fill="#000"/>
</svg>
