<svg width="200" height="200" viewBox="0 0 200 200" fill="none" xmlns="http://www.w3.org/2000/svg">
<path d="M134.234 112.834L161.661 86.0982C162.864 84.9267 163.297 83.1736 162.778 81.577C162.258 79.9805 160.878 78.8167 159.217 78.5752L121.313 73.0683L104.362 38.7209C103.618 37.2164 102.086 36.2626 100.407 36.2626C98.7279 36.2626 97.1947 37.2158 96.4516 38.7209L79.5003 73.0683L41.5964 78.5752C39.9354 78.8167 38.5549 79.9805 38.0362 81.577C37.5174 83.1736 37.9502 84.9262 39.152 86.0982L66.5796 112.834L60.1046 150.585C59.8207 152.24 60.501 153.912 61.8594 154.899C63.2172 155.885 65.0177 156.015 66.504 155.234L100.407 137.41L134.309 155.234C134.954 155.573 135.658 155.741 136.362 155.741C137.276 155.741 138.186 155.455 138.954 154.899C140.312 153.912 140.992 152.24 140.709 150.585L134.234 112.834ZM102.46 128.524C101.818 128.187 101.113 128.017 100.408 128.017C99.7026 128.017 128.142 128.187 127.5 128.524C127.745 127.093 102.46 108.135 74.3975 108.135L104.362 108.93L102.46 108.135C103.896 107.926 100.698 79.8768 101.341 78.5752L100.407 50.6388L102.46 112.039C103.102 113.341 116.314 81.2556 117.75 81.464C116.71 82.4779 80.1235 104 102.46 112.039L70.3102 94.5L102.46 128.524Z" fill="white"/>
<path d="M75.5518 93.6729H71.8779V100H69.8047V84.3594H74.9824C76.7441 84.3594 78.0977 84.7604 79.043 85.5625C79.9954 86.3646 80.4717 87.5319 80.4717 89.0645C80.4717 90.0384 80.2067 90.887 79.6768 91.6104C79.154 92.3337 78.4235 92.8743 77.4854 93.2324L81.1592 99.8711V100H78.9463L75.5518 93.6729ZM71.8779 91.9863H75.0469C76.071 91.9863 76.8838 91.7214 77.4854 91.1914C78.0941 90.6615 78.3984 89.9525 78.3984 89.0645C78.3984 88.0977 78.1084 87.3564 77.5283 86.8408C76.9554 86.3252 76.1247 86.0638 75.0361 86.0566H71.8779V91.9863ZM87.8838 100.215C86.3083 100.215 85.0264 99.6992 84.0381 98.668C83.0498 97.6296 82.5557 96.2438 82.5557 94.5107V94.1455C82.5557 92.9925 82.7741 91.9648 83.2109 91.0625C83.6549 90.153 84.2708 89.444 85.0586 88.9355C85.8535 88.4199 86.7129 88.1621 87.6367 88.1621C89.1478 88.1621 90.3223 88.6598 91.1602 89.6553C91.998 90.6507 92.417 92.0758 92.417 93.9307V94.7578H84.543C84.5716 95.9036 84.9046 96.8311 85.542 97.54C86.1865 98.2419 87.0029 98.5928 87.9912 98.5928C88.693 98.5928 89.2874 98.4495 89.7744 98.1631C90.2614 97.8766 90.6875 97.4971 91.0527 97.0244L92.2666 97.9697C91.2926 99.4665 89.8317 100.215 87.8838 100.215ZM87.6367 89.7949C86.8346 89.7949 86.1615 90.0885 85.6172 90.6758C85.0729 91.2559 84.7363 92.0723 84.6074 93.125H90.4297V92.9746C90.3724 91.9648 90.1003 91.1842 89.6133 90.6328C89.1263 90.0742 88.4674 89.7949 87.6367 89.7949ZM101.902 100C101.788 99.7708 101.695 99.3626 101.623 98.7754C100.699 99.735 99.5964 100.215 98.3145 100.215C97.1686 100.215 96.2269 99.8926 95.4893 99.248C94.7588 98.5964 94.3936 97.7728 94.3936 96.7773C94.3936 95.5671 94.8519 94.6289 95.7686 93.9629C96.6924 93.2897 97.9886 92.9531 99.6572 92.9531H101.591V92.04C101.591 91.3454 101.383 90.7939 100.968 90.3857C100.552 89.9704 99.9401 89.7627 99.1309 89.7627C98.4219 89.7627 97.8275 89.9417 97.3477 90.2998C96.8678 90.6579 96.6279 91.0911 96.6279 91.5996H94.6299C94.6299 91.0195 94.834 90.4609 95.2422 89.9238C95.6576 89.3796 96.2161 88.9499 96.918 88.6348C97.627 88.3197 98.404 88.1621 99.249 88.1621C100.588 88.1621 101.637 88.4987 102.396 89.1719C103.156 89.8379 103.549 90.7581 103.578 91.9326V97.2822C103.578 98.3493 103.714 99.1979 103.986 99.8281V100H101.902ZM98.6045 98.4854C99.2275 98.4854 99.8184 98.3242 100.377 98.002C100.936 97.6797 101.34 97.2607 101.591 96.7451V94.3604H100.033C97.5983 94.3604 96.3809 95.0729 96.3809 96.498C96.3809 97.1211 96.5885 97.6081 97.0039 97.959C97.4193 98.3099 97.9528 98.4854 98.6045 98.4854ZM111.355 98.5928C112.064 98.5928 112.684 98.3779 113.214 97.9482C113.744 97.5186 114.037 96.9814 114.095 96.3369H115.975C115.939 97.0029 115.71 97.6367 115.287 98.2383C114.865 98.8398 114.299 99.3197 113.59 99.6777C112.888 100.036 112.143 100.215 111.355 100.215C109.773 100.215 108.512 99.6885 107.574 98.6357C106.643 97.5758 106.178 96.1292 106.178 94.2959V93.9629C106.178 92.8314 106.385 91.8252 106.801 90.9443C107.216 90.0635 107.811 89.3796 108.584 88.8926C109.365 88.4056 110.285 88.1621 111.345 88.1621C112.648 88.1621 113.729 88.5524 114.589 89.333C115.455 90.1136 115.917 91.127 115.975 92.373H114.095C114.037 91.6211 113.751 91.0052 113.235 90.5254C112.727 90.0384 112.097 89.7949 111.345 89.7949C110.335 89.7949 109.551 90.1602 108.992 90.8906C108.441 91.6139 108.165 92.6631 108.165 94.0381V94.4141C108.165 95.7533 108.441 96.7845 108.992 97.5078C109.544 98.2311 110.331 98.5928 111.355 98.5928ZM120.905 85.5625V88.377H123.075V89.9131H120.905V97.1211C120.905 97.5866 121.002 97.9375 121.195 98.1738C121.389 98.403 121.718 98.5176 122.184 98.5176C122.413 98.5176 122.728 98.4746 123.129 98.3887V100C122.606 100.143 122.098 100.215 121.604 100.215C120.715 100.215 120.046 99.9463 119.595 99.4092C119.144 98.8721 118.918 98.1094 118.918 97.1211V89.9131H116.802V88.377H118.918V85.5625H120.905ZM81.8359 126H79.7627L71.8887 113.947V126H69.8154V110.359H71.8887L79.7842 122.466V110.359H81.8359V126ZM92.3633 126C92.2487 125.771 92.1556 125.363 92.084 124.775C91.1602 125.735 90.0573 126.215 88.7754 126.215C87.6296 126.215 86.6878 125.893 85.9502 125.248C85.2197 124.596 84.8545 123.773 84.8545 122.777C84.8545 121.567 85.3128 120.629 86.2295 119.963C87.1533 119.29 88.4495 118.953 90.1182 118.953H92.0518V118.04C92.0518 117.345 91.8441 116.794 91.4287 116.386C91.0133 115.97 90.401 115.763 89.5918 115.763C88.8828 115.763 88.2884 115.942 87.8086 116.3C87.3288 116.658 87.0889 117.091 87.0889 117.6H85.0908C85.0908 117.02 85.2949 116.461 85.7031 115.924C86.1185 115.38 86.6771 114.95 87.3789 114.635C88.0879 114.32 88.8649 114.162 89.71 114.162C91.0492 114.162 92.0983 114.499 92.8574 115.172C93.6165 115.838 94.0104 116.758 94.0391 117.933V123.282C94.0391 124.349 94.1751 125.198 94.4473 125.828V126H92.3633ZM89.0654 124.485C89.6885 124.485 90.2793 124.324 90.8379 124.002C91.3965 123.68 91.8011 123.261 92.0518 122.745V120.36H90.4941C88.0592 120.36 86.8418 121.073 86.8418 122.498C86.8418 123.121 87.0495 123.608 87.4648 123.959C87.8802 124.31 88.4137 124.485 89.0654 124.485ZM99.8506 111.562V114.377H102.021V115.913H99.8506V123.121C99.8506 123.587 99.9473 123.938 100.141 124.174C100.334 124.403 100.663 124.518 101.129 124.518C101.358 124.518 101.673 124.475 102.074 124.389V126C101.551 126.143 101.043 126.215 100.549 126.215C99.6608 126.215 98.9912 125.946 98.54 125.409C98.0889 124.872 97.8633 124.109 97.8633 123.121V115.913H95.7471V114.377H97.8633V111.562H99.8506ZM106.511 126H104.523V114.377H106.511V126ZM104.362 111.294C104.362 110.972 104.459 110.7 104.652 110.478C104.853 110.256 105.146 110.145 105.533 110.145C105.92 110.145 106.214 110.256 106.414 110.478C106.615 110.7 106.715 110.972 106.715 111.294C106.715 111.616 106.615 111.885 106.414 112.1C106.214 112.314 105.92 112.422 105.533 112.422C105.146 112.422 104.853 112.314 104.652 112.1C104.459 111.885 104.362 111.616 104.362 111.294ZM113.536 123.304L116.415 114.377H118.445L114.277 126H112.763L108.552 114.377H110.582L113.536 123.304ZM125.03 126.215C123.455 126.215 122.173 125.699 121.185 124.668C120.196 123.63 119.702 122.244 119.702 120.511V120.146C119.702 118.993 119.921 117.965 120.357 117.062C120.801 116.153 121.417 115.444 122.205 114.936C123 114.42 123.859 114.162 124.783 114.162C126.294 114.162 127.469 114.66 128.307 115.655C129.145 116.651 129.563 118.076 129.563 119.931V120.758H121.689C121.718 121.904 122.051 122.831 122.688 123.54C123.333 124.242 124.149 124.593 125.138 124.593C125.84 124.593 126.434 124.45 126.921 124.163C127.408 123.877 127.834 123.497 128.199 123.024L129.413 123.97C128.439 125.466 126.978 126.215 125.03 126.215ZM124.783 115.795C123.981 115.795 123.308 116.089 122.764 116.676C122.219 117.256 121.883 118.072 121.754 119.125H127.576V118.975C127.519 117.965 127.247 117.184 126.76 116.633C126.273 116.074 125.614 115.795 124.783 115.795Z" fill="#000"/>
</svg>
