<svg width="200" height="200" viewBox="0 0 200 200" fill="none" xmlns="http://www.w3.org/2000/svg">
<path d="M134.234 112.834L161.661 86.0982C162.864 84.9267 163.297 83.1736 162.778 81.577C162.258 79.9805 160.878 78.8167 159.217 78.5752L121.313 73.0683L104.362 38.7209C103.618 37.2164 102.086 36.2626 100.407 36.2626C98.7279 36.2626 97.1947 37.2158 96.4516 38.7209L79.5003 73.0683L41.5964 78.5752C39.9354 78.8167 38.5549 79.9805 38.0362 81.577C37.5174 83.1736 37.9502 84.9262 39.152 86.0982L66.5796 112.834L60.1046 150.585C59.8207 152.24 60.501 153.912 61.8594 154.899C63.2172 155.885 65.0177 156.015 66.504 155.234L100.407 137.41L134.309 155.234C134.954 155.573 135.658 155.741 136.362 155.741C137.276 155.741 138.186 155.455 138.954 154.899C140.312 153.912 140.993 152.24 140.709 150.585L134.234 112.834ZM102.46 128.524C101.818 128.187 101.113 128.017 100.408 128.017C99.7026 128.017 128.142 128.187 127.5 128.524C127.745 127.093 102.46 108.135 74.3975 108.135L104.362 108.93L102.46 108.135C103.896 107.926 100.698 79.8768 101.341 78.5752L100.407 50.6388L102.46 112.039C103.102 113.341 116.314 81.2556 117.75 81.464C116.71 82.4779 80.1235 104 102.46 112.039L70.3102 94.5L102.46 128.524Z" fill="white"/>
<path d="M95.1289 90.9375H97.3906V103.02C97.3906 104.652 96.8984 105.93 95.9141 106.852C94.9375 107.773 93.6328 108.234 92 108.234C90.3047 108.234 88.9844 107.801 88.0391 106.934C87.0938 106.066 86.6211 104.852 86.6211 103.289H88.8711C88.8711 104.266 89.1367 105.027 89.668 105.574C90.207 106.121 90.9844 106.395 92 106.395C92.9297 106.395 93.6797 106.102 94.25 105.516C94.8281 104.93 95.1211 104.109 95.1289 103.055V90.9375ZM106.25 100.395C104.32 99.8398 102.914 99.1602 102.031 98.3555C101.156 97.543 100.719 96.543 100.719 95.3555C100.719 94.0117 101.254 92.9023 102.324 92.0273C103.402 91.1445 104.801 90.7031 106.52 90.7031C107.691 90.7031 108.734 90.9297 109.648 91.3828C110.57 91.8359 111.281 92.4609 111.781 93.2578C112.289 94.0547 112.543 94.9258 112.543 95.8711H110.281C110.281 94.8398 109.953 94.0312 109.297 93.4453C108.641 92.8516 107.715 92.5547 106.52 92.5547C105.41 92.5547 104.543 92.8008 103.918 93.293C103.301 93.7773 102.992 94.4531 102.992 95.3203C102.992 96.0156 103.285 96.6055 103.871 97.0898C104.465 97.5664 105.469 98.0039 106.883 98.4023C108.305 98.8008 109.414 99.2422 110.211 99.7266C111.016 100.203 111.609 100.762 111.992 101.402C112.383 102.043 112.578 102.797 112.578 103.664C112.578 105.047 112.039 106.156 110.961 106.992C109.883 107.82 108.441 108.234 106.637 108.234C105.465 108.234 104.371 108.012 103.355 107.566C102.34 107.113 101.555 106.496 101 105.715C100.453 104.934 100.18 104.047 100.18 103.055H102.441C102.441 104.086 102.82 104.902 103.578 105.504C104.344 106.098 105.363 106.395 106.637 106.395C107.824 106.395 108.734 106.152 109.367 105.668C110 105.184 110.316 104.523 110.316 103.688C110.316 102.852 110.023 102.207 109.438 101.754C108.852 101.293 107.789 100.84 106.25 100.395Z" fill="#000"/>
</svg>
