<svg width="200" height="200" viewBox="0 0 200 200" fill="none" xmlns="http://www.w3.org/2000/svg">
<path d="M134.234 112.834L161.661 86.0982C162.864 84.9267 163.297 83.1736 162.778 81.577C162.258 79.9805 160.878 78.8167 159.217 78.5752L121.313 73.0683L104.362 38.7209C103.618 37.2164 102.086 36.2626 100.407 36.2626C98.7279 36.2626 97.1947 37.2158 96.4516 38.7209L79.5003 73.0683L41.5964 78.5752C39.9354 78.8167 38.5549 79.9805 38.0362 81.577C37.5174 83.1736 37.9502 84.9262 39.152 86.0982L66.5796 112.834L60.1046 150.585C59.8207 152.24 60.501 153.912 61.8593 154.899C63.2172 155.885 65.0177 156.015 66.504 155.234L100.407 137.41L134.309 155.234C134.954 155.573 135.658 155.741 136.362 155.741C137.276 155.741 138.186 155.455 138.954 154.899C140.312 153.912 140.992 152.24 140.709 150.585L134.234 112.834ZM102.46 128.524C101.818 128.187 101.113 128.017 100.408 128.017C99.7026 128.017 98.9975 128.187 98.3552 128.524L70.3102 143.268L75.666 112.039C75.9114 110.608 75.4372 109.149 74.3975 108.135L51.7089 86.0194L83.0639 81.464C84.5 81.2551 85.7421 80.3532 86.3843 79.0515L100.407 50.6388L114.429 79.0515C115.072 80.3532 116.314 81.2556 117.75 81.464L149.105 86.0194L126.417 108.135C125.376 109.149 124.903 110.608 125.148 112.039L130.504 143.268L102.46 128.524Z" fill="#FFFFCC"/>
</svg>
