<svg width="300" height="243" viewBox="0 0 300 243" fill="none" xmlns="http://www.w3.org/2000/svg">
<g clip-path="url(#clip0)">
<path d="M268.242 1.04872C262.57 3.037 250.758 7.55978 228.633 16.1684C222.703 18.4844 215.648 21.2374 212.93 22.2861L208.008 24.2089L207.187 28.6006C206.742 31.004 206.273 33.0578 206.133 33.1889C205.945 33.3419 177.352 44.4413 162.422 50.1439C160.945 50.712 158.25 51.7389 156.445 52.4381C154.641 53.1372 145.828 56.5239 136.875 59.976C127.922 63.4282 115.781 68.1039 109.922 70.3544C104.062 72.6049 90.6796 77.7613 80.2031 81.8034C69.7265 85.8237 60.9843 89.2321 60.7265 89.3414C60.375 89.5162 60.1875 90.3027 59.6484 94.0171L59.0156 98.4525L41.5078 105.16C31.8984 108.831 23.8593 111.912 23.6718 111.977C23.3906 112.065 22.7812 110.885 20.8593 106.406C19.5 103.281 18.3281 100.725 18.2578 100.725C18.0468 100.725 6.32809 105.466 6.16403 105.597C6.09372 105.685 8.90622 112.196 10.9218 116.565C10.9922 116.697 8.53122 117.767 5.50778 118.969L-0.023468 121.154L0.0468445 122.88L0.117157 124.606L19.7343 132.188L39.3281 139.791L55.5 133.586L71.6718 127.359L75.4921 130.003C77.6015 131.445 79.4296 132.603 79.5468 132.559C79.6875 132.494 91.8515 127.818 106.57 122.137L133.336 111.824L136.172 114.162L139.008 116.5L145.102 114.053C148.43 112.698 151.242 111.649 151.312 111.715C151.523 111.912 153.516 117.308 153.516 117.68C153.516 117.876 149.789 125.567 145.219 134.766C134.695 156.047 97.2187 231.623 94.8281 236.387C93.8437 238.375 93.1171 240.057 93.2109 240.145C93.4453 240.341 98.2734 242.33 98.3437 242.242C98.3906 242.198 113.297 217.684 142.219 170.052C157.266 145.275 159.516 141.692 159.656 142.195C159.75 142.522 160.055 145.975 160.312 149.886C160.758 156.244 161.109 161.16 162.305 177.525C162.492 180.169 163.289 191.028 164.062 201.668C164.812 212.309 165.516 221.616 165.586 222.359L165.75 223.736H168.305C170.156 223.736 170.906 223.648 170.977 223.452C171.023 223.321 171.539 215.564 172.125 206.256C172.734 196.949 173.32 187.794 173.437 185.937C173.578 184.08 174.258 173.505 174.961 162.449C175.664 151.393 176.273 142.151 176.32 141.911C176.367 141.539 176.461 141.605 176.859 142.238C177.141 142.653 190.945 165.114 207.539 192.164C224.133 219.191 237.844 241.543 238.031 241.805L238.336 242.264L240.937 241.259C242.344 240.691 243.516 240.145 243.516 240.035C243.516 239.839 239.016 230.815 219.492 191.727C213.562 179.884 203.953 160.657 197.227 147.154C182.766 118.204 183.328 119.297 181.219 117.112C179.625 115.451 178.102 114.424 175.242 113.07L172.922 111.977L171.328 108.263C170.437 106.209 169.805 104.483 169.875 104.395C169.969 104.308 172.734 103.216 176.016 101.97L181.992 99.7198L182.156 96.355C182.25 94.4978 182.414 92.9247 182.508 92.8591C182.789 92.6406 224.812 76.4066 225.352 76.3192C225.773 76.2319 227.016 77.0621 233.086 81.5194C233.227 81.6068 234.773 81.1261 236.602 80.4269C238.406 79.7277 252.117 74.4184 267.07 68.6065C282.023 62.8164 294.703 57.8785 295.242 57.66C297.187 56.8079 298.617 54.7541 299.461 51.6733C299.977 49.7725 300.023 43.5017 299.555 40.5302C297.82 29.4745 292.383 17.3045 285.516 9.08923C282.094 5.00343 277.992 1.70419 274.992 0.655441C272.555 -0.196686 271.687 -0.152985 268.242 1.04872ZM276.328 8.10602C280.195 9.81026 285.586 16.7146 289.43 24.9299C292.805 32.1183 294.609 38.6294 294.609 43.5891C294.586 52.7439 289.055 53.3557 282.211 44.9438C273.398 34.0847 267.422 14.9011 271.055 9.04553C272.133 7.34129 273.867 7.01355 276.328 8.10602Z" fill="#FFCC00"/>
</g>
<defs>
<clipPath id="clip0">
<rect width="300" height="242.308" fill="white"/>
</clipPath>
</defs>
</svg>
