  <svg width="200" height="200" viewBox="0 0 200 200" fill="none" xmlns="http://www.w3.org/2000/svg">
<path d="M134.234 112.834L161.661 86.0982C162.864 84.9267 163.297 83.1736 162.778 81.577C162.258 79.9805 160.878 78.8167 159.217 78.5752L121.313 73.0683L104.362 38.7209C103.618 37.2164 102.086 36.2626 100.407 36.2626C98.7279 36.2626 97.1947 37.2158 96.4516 38.7209L79.5003 73.0683L41.5964 78.5752C39.9354 78.8167 38.5549 79.9805 38.0362 81.577C37.5174 83.1736 37.9502 84.9262 39.152 86.0982L66.5796 112.834L60.1046 150.585C59.8207 152.24 60.501 153.912 61.8594 154.899C63.2172 155.885 65.0177 156.015 66.504 155.234L100.407 137.41L134.309 155.234C134.954 155.573 135.658 155.741 136.362 155.741C137.276 155.741 138.186 155.455 138.954 154.899C140.312 153.912 140.993 152.24 140.709 150.585L134.234 112.834ZM102.46 128.524C101.818 128.187 101.113 128.017 100.408 128.017C99.7026 128.017 128.142 128.187 127.5 128.524C127.745 127.093 102.46 108.135 74.3975 108.135L104.362 108.93L102.46 108.135C103.896 107.926 100.698 79.8768 101.341 78.5752L100.407 50.6388L102.46 112.039C103.102 113.341 116.314 81.2556 117.75 81.464C116.71 82.4779 80.1235 104 102.46 112.039L70.3102 94.5L102.46 128.524Z" fill="white"/>
<path d="M86.6289 105.012L91.5039 90.9375H93.9648L87.6367 108H85.6445L79.3281 90.9375H81.7773L86.6289 105.012ZM103.422 106.746C102.578 107.738 101.34 108.234 99.707 108.234C98.3555 108.234 97.3242 107.844 96.6133 107.062C95.9102 106.273 95.5547 105.109 95.5469 103.57V95.3203H97.7148V103.512C97.7148 105.434 98.4961 106.395 100.059 106.395C101.715 106.395 102.816 105.777 103.363 104.543V95.3203H105.531V108H103.469L103.422 106.746ZM114.098 108.234C112.379 108.234 110.98 107.672 109.902 106.547C108.824 105.414 108.285 103.902 108.285 102.012V101.613C108.285 100.355 108.523 99.2344 109 98.25C109.484 97.2578 110.156 96.4844 111.016 95.9297C111.883 95.3672 112.82 95.0859 113.828 95.0859C115.477 95.0859 116.758 95.6289 117.672 96.7148C118.586 97.8008 119.043 99.3555 119.043 101.379V102.281H110.453C110.484 103.531 110.848 104.543 111.543 105.316C112.246 106.082 113.137 106.465 114.215 106.465C114.98 106.465 115.629 106.309 116.16 105.996C116.691 105.684 117.156 105.27 117.555 104.754L118.879 105.785C117.816 107.418 116.223 108.234 114.098 108.234ZM113.828 96.8672C112.953 96.8672 112.219 97.1875 111.625 97.8281C111.031 98.4609 110.664 99.3516 110.523 100.5H116.875V100.336C116.812 99.2344 116.516 98.3828 115.984 97.7812C115.453 97.1719 114.734 96.8672 113.828 96.8672Z" fill="#000"/>
</svg>
